G04 #@! TF.GenerationSoftware,KiCad,Pcbnew,(5.1.5-0-10_14)*
G04 #@! TF.CreationDate,2020-05-14T00:27:54+02:00*
G04 #@! TF.ProjectId,final,66696e61-6c2e-46b6-9963-61645f706362,rev?*
G04 #@! TF.SameCoordinates,Original*
G04 #@! TF.FileFunction,Soldermask,Bot*
G04 #@! TF.FilePolarity,Negative*
%FSLAX46Y46*%
G04 Gerber Fmt 4.6, Leading zero omitted, Abs format (unit mm)*
G04 Created by KiCad (PCBNEW (5.1.5-0-10_14)) date 2020-05-14 00:27:54*
%MOMM*%
%LPD*%
G04 APERTURE LIST*
%ADD10C,0.100000*%
G04 APERTURE END LIST*
D10*
G36*
X58632321Y-30885047D02*
G01*
X58692889Y-30897095D01*
X58749943Y-30920728D01*
X58806997Y-30944360D01*
X58909687Y-31012975D01*
X58997025Y-31100313D01*
X59065640Y-31203003D01*
X59112905Y-31317112D01*
X59137000Y-31438245D01*
X59137000Y-31561755D01*
X59112905Y-31682888D01*
X59065640Y-31796997D01*
X58997025Y-31899687D01*
X58909687Y-31987025D01*
X58806997Y-32055640D01*
X58749942Y-32079273D01*
X58692889Y-32102905D01*
X58632321Y-32114953D01*
X58571755Y-32127000D01*
X58448245Y-32127000D01*
X58387679Y-32114953D01*
X58327111Y-32102905D01*
X58270058Y-32079273D01*
X58213003Y-32055640D01*
X58110313Y-31987025D01*
X58022975Y-31899687D01*
X57954360Y-31796997D01*
X57907095Y-31682888D01*
X57883000Y-31561755D01*
X57883000Y-31438245D01*
X57907095Y-31317112D01*
X57954360Y-31203003D01*
X58022975Y-31100313D01*
X58110313Y-31012975D01*
X58213003Y-30944360D01*
X58270057Y-30920728D01*
X58327111Y-30897095D01*
X58387679Y-30885047D01*
X58448245Y-30873000D01*
X58571755Y-30873000D01*
X58632321Y-30885047D01*
G37*
G36*
X21712321Y-30885047D02*
G01*
X21772889Y-30897095D01*
X21829943Y-30920728D01*
X21886997Y-30944360D01*
X21989687Y-31012975D01*
X22077025Y-31100313D01*
X22145640Y-31203003D01*
X22192905Y-31317112D01*
X22217000Y-31438245D01*
X22217000Y-31561755D01*
X22192905Y-31682888D01*
X22145640Y-31796997D01*
X22077025Y-31899687D01*
X21989687Y-31987025D01*
X21886997Y-32055640D01*
X21829942Y-32079273D01*
X21772889Y-32102905D01*
X21712321Y-32114953D01*
X21651755Y-32127000D01*
X21528245Y-32127000D01*
X21467679Y-32114953D01*
X21407111Y-32102905D01*
X21350058Y-32079273D01*
X21293003Y-32055640D01*
X21190313Y-31987025D01*
X21102975Y-31899687D01*
X21034360Y-31796997D01*
X20987095Y-31682888D01*
X20963000Y-31561755D01*
X20963000Y-31438245D01*
X20987095Y-31317112D01*
X21034360Y-31203003D01*
X21102975Y-31100313D01*
X21190313Y-31012975D01*
X21293003Y-30944360D01*
X21350057Y-30920728D01*
X21407111Y-30897095D01*
X21467679Y-30885047D01*
X21528245Y-30873000D01*
X21651755Y-30873000D01*
X21712321Y-30885047D01*
G37*
G36*
X39160721Y-23670174D02*
G01*
X39260995Y-23711709D01*
X39260996Y-23711710D01*
X39351242Y-23772010D01*
X39427990Y-23848758D01*
X39458345Y-23894188D01*
X39488291Y-23939005D01*
X39529826Y-24039279D01*
X39551000Y-24145730D01*
X39551000Y-24254270D01*
X39529826Y-24360721D01*
X39488291Y-24460995D01*
X39488290Y-24460996D01*
X39427990Y-24551242D01*
X39351242Y-24627990D01*
X39305812Y-24658345D01*
X39260995Y-24688291D01*
X39160721Y-24729826D01*
X39054270Y-24751000D01*
X38945730Y-24751000D01*
X38839279Y-24729826D01*
X38739005Y-24688291D01*
X38694188Y-24658345D01*
X38648758Y-24627990D01*
X38572010Y-24551242D01*
X38511710Y-24460996D01*
X38511709Y-24460995D01*
X38470174Y-24360721D01*
X38449000Y-24254270D01*
X38449000Y-24145730D01*
X38470174Y-24039279D01*
X38511709Y-23939005D01*
X38541655Y-23894188D01*
X38572010Y-23848758D01*
X38648758Y-23772010D01*
X38739004Y-23711710D01*
X38739005Y-23711709D01*
X38839279Y-23670174D01*
X38945730Y-23649000D01*
X39054270Y-23649000D01*
X39160721Y-23670174D01*
G37*
G36*
X53213512Y-22693927D02*
G01*
X53362812Y-22723624D01*
X53526784Y-22791544D01*
X53674354Y-22890147D01*
X53799853Y-23015646D01*
X53898456Y-23163216D01*
X53966376Y-23327188D01*
X54001000Y-23501259D01*
X54001000Y-23678741D01*
X53966376Y-23852812D01*
X53898456Y-24016784D01*
X53799853Y-24164354D01*
X53674354Y-24289853D01*
X53526784Y-24388456D01*
X53362812Y-24456376D01*
X53213512Y-24486073D01*
X53188742Y-24491000D01*
X53011258Y-24491000D01*
X52986488Y-24486073D01*
X52837188Y-24456376D01*
X52673216Y-24388456D01*
X52525646Y-24289853D01*
X52400147Y-24164354D01*
X52301544Y-24016784D01*
X52233624Y-23852812D01*
X52199000Y-23678741D01*
X52199000Y-23501259D01*
X52233624Y-23327188D01*
X52301544Y-23163216D01*
X52400147Y-23015646D01*
X52525646Y-22890147D01*
X52673216Y-22791544D01*
X52837188Y-22723624D01*
X52986488Y-22693927D01*
X53011258Y-22689000D01*
X53188742Y-22689000D01*
X53213512Y-22693927D01*
G37*
G36*
X54001000Y-21951000D02*
G01*
X52199000Y-21951000D01*
X52199000Y-20149000D01*
X54001000Y-20149000D01*
X54001000Y-21951000D01*
G37*
G36*
X56160721Y-14370174D02*
G01*
X56260995Y-14411709D01*
X56260996Y-14411710D01*
X56351242Y-14472010D01*
X56427990Y-14548758D01*
X56427991Y-14548760D01*
X56488291Y-14639005D01*
X56529826Y-14739279D01*
X56551000Y-14845730D01*
X56551000Y-14954270D01*
X56529826Y-15060721D01*
X56488291Y-15160995D01*
X56488290Y-15160996D01*
X56427990Y-15251242D01*
X56351242Y-15327990D01*
X56305812Y-15358345D01*
X56260995Y-15388291D01*
X56160721Y-15429826D01*
X56054270Y-15451000D01*
X55945730Y-15451000D01*
X55839279Y-15429826D01*
X55739005Y-15388291D01*
X55694188Y-15358345D01*
X55648758Y-15327990D01*
X55572010Y-15251242D01*
X55511710Y-15160996D01*
X55511709Y-15160995D01*
X55470174Y-15060721D01*
X55449000Y-14954270D01*
X55449000Y-14845730D01*
X55470174Y-14739279D01*
X55511709Y-14639005D01*
X55572009Y-14548760D01*
X55572010Y-14548758D01*
X55648758Y-14472010D01*
X55739004Y-14411710D01*
X55739005Y-14411709D01*
X55839279Y-14370174D01*
X55945730Y-14349000D01*
X56054270Y-14349000D01*
X56160721Y-14370174D01*
G37*
G36*
X58622322Y-13965048D02*
G01*
X58682889Y-13977095D01*
X58739942Y-14000727D01*
X58796997Y-14024360D01*
X58899687Y-14092975D01*
X58987025Y-14180313D01*
X59055640Y-14283003D01*
X59055640Y-14283004D01*
X59091748Y-14370175D01*
X59102905Y-14397112D01*
X59127000Y-14518245D01*
X59127000Y-14641755D01*
X59102905Y-14762888D01*
X59055640Y-14876997D01*
X58987025Y-14979687D01*
X58899687Y-15067025D01*
X58796997Y-15135640D01*
X58739943Y-15159272D01*
X58682889Y-15182905D01*
X58622322Y-15194952D01*
X58561755Y-15207000D01*
X58438245Y-15207000D01*
X58377678Y-15194952D01*
X58317111Y-15182905D01*
X58260057Y-15159272D01*
X58203003Y-15135640D01*
X58100313Y-15067025D01*
X58012975Y-14979687D01*
X57944360Y-14876997D01*
X57897095Y-14762888D01*
X57873000Y-14641755D01*
X57873000Y-14518245D01*
X57897095Y-14397112D01*
X57908253Y-14370175D01*
X57944360Y-14283004D01*
X57944360Y-14283003D01*
X58012975Y-14180313D01*
X58100313Y-14092975D01*
X58203003Y-14024360D01*
X58260057Y-14000728D01*
X58317111Y-13977095D01*
X58377678Y-13965048D01*
X58438245Y-13953000D01*
X58561755Y-13953000D01*
X58622322Y-13965048D01*
G37*
M02*
