M48
; DRILL file {KiCad (5.1.5-0-10_14)} date 2020 May 14, Thursday 00:28:05
; FORMAT={-:-/ absolute / inch / decimal}
; #@! TF.CreationDate,2020-05-14T00:28:05+02:00
; #@! TF.GenerationSoftware,Kicad,Pcbnew,(5.1.5-0-10_14)
; #@! TF.FileFunction,Plated,1,2,PTH
FMAT,2
INCH
T1C0.0157
T2C0.0197
T3C0.0394
%
G90
G05
T1
X1.2756Y-0.8406
X1.2776Y-0.878
X1.3346Y-0.7323
X1.5394Y-0.8406
X1.5394Y-0.8878
X1.563Y-0.8622
X1.6772Y-0.6791
X1.6811Y-0.5965
X1.685Y-0.9843
X1.6969Y-0.8976
X1.7205Y-0.9843
X1.8012Y-0.7224
X1.811Y-0.5925
X1.8386Y-0.9016
X1.8701Y-0.9843
X1.8917Y-0.7264
X1.9449Y-0.5965
X2.0157Y-0.7874
X2.0748Y-0.5846
X2.1417Y-0.7756
X2.1417Y-1.0315
T2
X1.5354Y-0.9528
X2.2047Y-0.5866
T3
X2.0906Y-0.8287
X2.0906Y-0.9287
T0
M30
