G04 #@! TF.GenerationSoftware,KiCad,Pcbnew,(5.1.5-0-10_14)*
G04 #@! TF.CreationDate,2020-05-14T00:27:54+02:00*
G04 #@! TF.ProjectId,final,66696e61-6c2e-46b6-9963-61645f706362,rev?*
G04 #@! TF.SameCoordinates,Original*
G04 #@! TF.FileFunction,Legend,Top*
G04 #@! TF.FilePolarity,Positive*
%FSLAX46Y46*%
G04 Gerber Fmt 4.6, Leading zero omitted, Abs format (unit mm)*
G04 Created by KiCad (PCBNEW (5.1.5-0-10_14)) date 2020-05-14 00:27:54*
%MOMM*%
%LPD*%
G04 APERTURE LIST*
%ADD10C,0.300000*%
%ADD11C,0.150000*%
%ADD12C,0.120000*%
G04 APERTURE END LIST*
D10*
X55028571Y-20907142D02*
X56171428Y-20907142D01*
X55028571Y-23707142D02*
X56171428Y-23707142D01*
X55600000Y-24278571D02*
X55600000Y-23135714D01*
D11*
X39585714Y-30847619D02*
X39623809Y-30885714D01*
X39661904Y-31000000D01*
X39661904Y-31076190D01*
X39623809Y-31190476D01*
X39547619Y-31266666D01*
X39471428Y-31304761D01*
X39319047Y-31342857D01*
X39204761Y-31342857D01*
X39052380Y-31304761D01*
X38976190Y-31266666D01*
X38900000Y-31190476D01*
X38861904Y-31076190D01*
X38861904Y-31000000D01*
X38900000Y-30885714D01*
X38938095Y-30847619D01*
X39661904Y-30390476D02*
X39623809Y-30466666D01*
X39585714Y-30504761D01*
X39509523Y-30542857D01*
X39280952Y-30542857D01*
X39204761Y-30504761D01*
X39166666Y-30466666D01*
X39128571Y-30390476D01*
X39128571Y-30276190D01*
X39166666Y-30200000D01*
X39204761Y-30161904D01*
X39280952Y-30123809D01*
X39509523Y-30123809D01*
X39585714Y-30161904D01*
X39623809Y-30200000D01*
X39661904Y-30276190D01*
X39661904Y-30390476D01*
X39661904Y-29780952D02*
X39128571Y-29780952D01*
X39204761Y-29780952D02*
X39166666Y-29742857D01*
X39128571Y-29666666D01*
X39128571Y-29552380D01*
X39166666Y-29476190D01*
X39242857Y-29438095D01*
X39661904Y-29438095D01*
X39242857Y-29438095D02*
X39166666Y-29400000D01*
X39128571Y-29323809D01*
X39128571Y-29209523D01*
X39166666Y-29133333D01*
X39242857Y-29095238D01*
X39661904Y-29095238D01*
X37235714Y-30223809D02*
X37273809Y-30261904D01*
X37311904Y-30376190D01*
X37311904Y-30452380D01*
X37273809Y-30566666D01*
X37197619Y-30642857D01*
X37121428Y-30680952D01*
X36969047Y-30719047D01*
X36854761Y-30719047D01*
X36702380Y-30680952D01*
X36626190Y-30642857D01*
X36550000Y-30566666D01*
X36511904Y-30452380D01*
X36511904Y-30376190D01*
X36550000Y-30261904D01*
X36588095Y-30223809D01*
X37311904Y-29766666D02*
X37273809Y-29842857D01*
X37197619Y-29880952D01*
X36511904Y-29880952D01*
X37311904Y-29119047D02*
X36892857Y-29119047D01*
X36816666Y-29157142D01*
X36778571Y-29233333D01*
X36778571Y-29385714D01*
X36816666Y-29461904D01*
X37273809Y-29119047D02*
X37311904Y-29195238D01*
X37311904Y-29385714D01*
X37273809Y-29461904D01*
X37197619Y-29500000D01*
X37121428Y-29500000D01*
X37045238Y-29461904D01*
X37007142Y-29385714D01*
X37007142Y-29195238D01*
X36969047Y-29119047D01*
X34142857Y-31295238D02*
X34180952Y-31180952D01*
X34219047Y-31142857D01*
X34295238Y-31104761D01*
X34409523Y-31104761D01*
X34485714Y-31142857D01*
X34523809Y-31180952D01*
X34561904Y-31257142D01*
X34561904Y-31561904D01*
X33761904Y-31561904D01*
X33761904Y-31295238D01*
X33800000Y-31219047D01*
X33838095Y-31180952D01*
X33914285Y-31142857D01*
X33990476Y-31142857D01*
X34066666Y-31180952D01*
X34104761Y-31219047D01*
X34142857Y-31295238D01*
X34142857Y-31561904D01*
X34561904Y-30647619D02*
X34523809Y-30723809D01*
X34485714Y-30761904D01*
X34409523Y-30800000D01*
X34180952Y-30800000D01*
X34104761Y-30761904D01*
X34066666Y-30723809D01*
X34028571Y-30647619D01*
X34028571Y-30533333D01*
X34066666Y-30457142D01*
X34104761Y-30419047D01*
X34180952Y-30380952D01*
X34409523Y-30380952D01*
X34485714Y-30419047D01*
X34523809Y-30457142D01*
X34561904Y-30533333D01*
X34561904Y-30647619D01*
X34561904Y-29923809D02*
X34523809Y-30000000D01*
X34485714Y-30038095D01*
X34409523Y-30076190D01*
X34180952Y-30076190D01*
X34104761Y-30038095D01*
X34066666Y-30000000D01*
X34028571Y-29923809D01*
X34028571Y-29809523D01*
X34066666Y-29733333D01*
X34104761Y-29695238D01*
X34180952Y-29657142D01*
X34409523Y-29657142D01*
X34485714Y-29695238D01*
X34523809Y-29733333D01*
X34561904Y-29809523D01*
X34561904Y-29923809D01*
X34028571Y-29428571D02*
X34028571Y-29123809D01*
X33761904Y-29314285D02*
X34447619Y-29314285D01*
X34523809Y-29276190D01*
X34561904Y-29200000D01*
X34561904Y-29123809D01*
D12*
X53190000Y-16863748D02*
X53190000Y-17386252D01*
X54610000Y-16863748D02*
X54610000Y-17386252D01*
X47690000Y-21638748D02*
X47690000Y-22161252D01*
X49110000Y-21638748D02*
X49110000Y-22161252D01*
X48548752Y-27140000D02*
X48026248Y-27140000D01*
X48548752Y-28560000D02*
X48026248Y-28560000D01*
X45510000Y-22086252D02*
X45510000Y-21563748D01*
X44090000Y-22086252D02*
X44090000Y-21563748D01*
X40890000Y-21638748D02*
X40890000Y-22161252D01*
X42310000Y-21638748D02*
X42310000Y-22161252D01*
X40185000Y-16386252D02*
X40185000Y-15863748D01*
X38765000Y-16386252D02*
X38765000Y-15863748D01*
X38690000Y-26813748D02*
X38690000Y-27336252D01*
X40110000Y-26813748D02*
X40110000Y-27336252D01*
X37985000Y-16386252D02*
X37985000Y-15863748D01*
X36565000Y-16386252D02*
X36565000Y-15863748D01*
X36190000Y-26813748D02*
X36190000Y-27336252D01*
X37610000Y-26813748D02*
X37610000Y-27336252D01*
X35610000Y-16361252D02*
X35610000Y-15838748D01*
X34190000Y-16361252D02*
X34190000Y-15838748D01*
X33540000Y-26813748D02*
X33540000Y-27336252D01*
X34960000Y-26813748D02*
X34960000Y-27336252D01*
X44810000Y-16386252D02*
X44810000Y-15863748D01*
X43390000Y-16386252D02*
X43390000Y-15863748D01*
X48010000Y-16311252D02*
X48010000Y-15788748D01*
X46590000Y-16311252D02*
X46590000Y-15788748D01*
X51510000Y-16386252D02*
X51510000Y-15863748D01*
X50090000Y-16386252D02*
X50090000Y-15863748D01*
X44140000Y-26788748D02*
X44140000Y-27311252D01*
X45560000Y-26788748D02*
X45560000Y-27311252D01*
X41690000Y-26813748D02*
X41690000Y-27336252D01*
X43110000Y-26813748D02*
X43110000Y-27336252D01*
X31510000Y-20611252D02*
X31510000Y-20088748D01*
X30090000Y-20611252D02*
X30090000Y-20088748D01*
X27360000Y-20611252D02*
X27360000Y-20088748D01*
X25940000Y-20611252D02*
X25940000Y-20088748D01*
X29410000Y-20611252D02*
X29410000Y-20088748D01*
X27990000Y-20611252D02*
X27990000Y-20088748D01*
X26286252Y-22790000D02*
X25763748Y-22790000D01*
X26286252Y-24210000D02*
X25763748Y-24210000D01*
X26211252Y-24940000D02*
X25688748Y-24940000D01*
X26211252Y-26360000D02*
X25688748Y-26360000D01*
X26261252Y-27140000D02*
X25738748Y-27140000D01*
X26261252Y-28560000D02*
X25738748Y-28560000D01*
X54935000Y-26890000D02*
X52075000Y-26890000D01*
X54935000Y-28810000D02*
X54935000Y-26890000D01*
X52075000Y-28810000D02*
X54935000Y-28810000D01*
X39700000Y-24200000D02*
G75*
G03X39700000Y-24200000I-700000J0D01*
G01*
X56700000Y-14900000D02*
G75*
G03X56700000Y-14900000I-700000J0D01*
G01*
X51770000Y-19720000D02*
X53100000Y-19720000D01*
X51770000Y-21050000D02*
X51770000Y-19720000D01*
X51770000Y-22320000D02*
X54430000Y-22320000D01*
X54430000Y-22320000D02*
X54430000Y-24920000D01*
X51770000Y-22320000D02*
X51770000Y-24920000D01*
X51770000Y-24920000D02*
X54430000Y-24920000D01*
D11*
X33250000Y-23450000D02*
G75*
G03X33250000Y-23450000I-250000J0D01*
G01*
X33500000Y-23200000D02*
X33500000Y-23700000D01*
X33500000Y-23700000D02*
X33750000Y-23700000D01*
X37750000Y-23700000D02*
X38000000Y-23700000D01*
X38000000Y-23700000D02*
X38000000Y-23200000D01*
X38000000Y-20700000D02*
X38000000Y-20200000D01*
X38000000Y-20200000D02*
X37750000Y-20200000D01*
X33750000Y-20200000D02*
X33500000Y-20200000D01*
X33500000Y-20200000D02*
X33500000Y-20700000D01*
D12*
X23800000Y-16250000D02*
X23800000Y-19650000D01*
X20400000Y-16250000D02*
X23800000Y-16250000D01*
X20400000Y-19650000D02*
X20400000Y-16250000D01*
X23800000Y-19650000D02*
X20400000Y-19650000D01*
X23800000Y-24000000D02*
X23800000Y-27400000D01*
X20400000Y-24000000D02*
X23800000Y-24000000D01*
X20400000Y-27400000D02*
X20400000Y-24000000D01*
X23800000Y-27400000D02*
X20400000Y-27400000D01*
D11*
X56002380Y-18148809D02*
X55526190Y-18482142D01*
X56002380Y-18720238D02*
X55002380Y-18720238D01*
X55002380Y-18339285D01*
X55050000Y-18244047D01*
X55097619Y-18196428D01*
X55192857Y-18148809D01*
X55335714Y-18148809D01*
X55430952Y-18196428D01*
X55478571Y-18244047D01*
X55526190Y-18339285D01*
X55526190Y-18720238D01*
X56002380Y-17577380D02*
X55954761Y-17672619D01*
X55907142Y-17720238D01*
X55811904Y-17767857D01*
X55526190Y-17767857D01*
X55430952Y-17720238D01*
X55383333Y-17672619D01*
X55335714Y-17577380D01*
X55335714Y-17434523D01*
X55383333Y-17339285D01*
X55430952Y-17291666D01*
X55526190Y-17244047D01*
X55811904Y-17244047D01*
X55907142Y-17291666D01*
X55954761Y-17339285D01*
X56002380Y-17434523D01*
X56002380Y-17577380D01*
X55954761Y-16863095D02*
X56002380Y-16767857D01*
X56002380Y-16577380D01*
X55954761Y-16482142D01*
X55859523Y-16434523D01*
X55811904Y-16434523D01*
X55716666Y-16482142D01*
X55669047Y-16577380D01*
X55669047Y-16720238D01*
X55621428Y-16815476D01*
X55526190Y-16863095D01*
X55478571Y-16863095D01*
X55383333Y-16815476D01*
X55335714Y-16720238D01*
X55335714Y-16577380D01*
X55383333Y-16482142D01*
X56002380Y-15482142D02*
X56002380Y-16053571D01*
X56002380Y-15767857D02*
X55002380Y-15767857D01*
X55145238Y-15863095D01*
X55240476Y-15958333D01*
X55288095Y-16053571D01*
X50502380Y-23257142D02*
X50026190Y-23590476D01*
X50502380Y-23828571D02*
X49502380Y-23828571D01*
X49502380Y-23447619D01*
X49550000Y-23352380D01*
X49597619Y-23304761D01*
X49692857Y-23257142D01*
X49835714Y-23257142D01*
X49930952Y-23304761D01*
X49978571Y-23352380D01*
X50026190Y-23447619D01*
X50026190Y-23828571D01*
X49835714Y-22971428D02*
X49835714Y-22590476D01*
X50502380Y-22828571D02*
X49645238Y-22828571D01*
X49550000Y-22780952D01*
X49502380Y-22685714D01*
X49502380Y-22590476D01*
X50502380Y-22114285D02*
X50454761Y-22209523D01*
X50407142Y-22257142D01*
X50311904Y-22304761D01*
X50026190Y-22304761D01*
X49930952Y-22257142D01*
X49883333Y-22209523D01*
X49835714Y-22114285D01*
X49835714Y-21971428D01*
X49883333Y-21876190D01*
X49930952Y-21828571D01*
X50026190Y-21780952D01*
X50311904Y-21780952D01*
X50407142Y-21828571D01*
X50454761Y-21876190D01*
X50502380Y-21971428D01*
X50502380Y-22114285D01*
X50502380Y-20923809D02*
X49502380Y-20923809D01*
X50454761Y-20923809D02*
X50502380Y-21019047D01*
X50502380Y-21209523D01*
X50454761Y-21304761D01*
X50407142Y-21352380D01*
X50311904Y-21400000D01*
X50026190Y-21400000D01*
X49930952Y-21352380D01*
X49883333Y-21304761D01*
X49835714Y-21209523D01*
X49835714Y-21019047D01*
X49883333Y-20923809D01*
X50502380Y-19923809D02*
X50502380Y-20495238D01*
X50502380Y-20209523D02*
X49502380Y-20209523D01*
X49645238Y-20304761D01*
X49740476Y-20400000D01*
X49788095Y-20495238D01*
X48852380Y-29966666D02*
X48376190Y-30300000D01*
X48852380Y-30538095D02*
X47852380Y-30538095D01*
X47852380Y-30157142D01*
X47900000Y-30061904D01*
X47947619Y-30014285D01*
X48042857Y-29966666D01*
X48185714Y-29966666D01*
X48280952Y-30014285D01*
X48328571Y-30061904D01*
X48376190Y-30157142D01*
X48376190Y-30538095D01*
X47852380Y-29633333D02*
X47852380Y-29014285D01*
X48233333Y-29347619D01*
X48233333Y-29204761D01*
X48280952Y-29109523D01*
X48328571Y-29061904D01*
X48423809Y-29014285D01*
X48661904Y-29014285D01*
X48757142Y-29061904D01*
X48804761Y-29109523D01*
X48852380Y-29204761D01*
X48852380Y-29490476D01*
X48804761Y-29585714D01*
X48757142Y-29633333D01*
X46952380Y-21079166D02*
X46476190Y-21412500D01*
X46952380Y-21650595D02*
X45952380Y-21650595D01*
X45952380Y-21269642D01*
X46000000Y-21174404D01*
X46047619Y-21126785D01*
X46142857Y-21079166D01*
X46285714Y-21079166D01*
X46380952Y-21126785D01*
X46428571Y-21174404D01*
X46476190Y-21269642D01*
X46476190Y-21650595D01*
X46047619Y-20698214D02*
X46000000Y-20650595D01*
X45952380Y-20555357D01*
X45952380Y-20317261D01*
X46000000Y-20222023D01*
X46047619Y-20174404D01*
X46142857Y-20126785D01*
X46238095Y-20126785D01*
X46380952Y-20174404D01*
X46952380Y-20745833D01*
X46952380Y-20126785D01*
X43727380Y-20929166D02*
X43251190Y-21262500D01*
X43727380Y-21500595D02*
X42727380Y-21500595D01*
X42727380Y-21119642D01*
X42775000Y-21024404D01*
X42822619Y-20976785D01*
X42917857Y-20929166D01*
X43060714Y-20929166D01*
X43155952Y-20976785D01*
X43203571Y-21024404D01*
X43251190Y-21119642D01*
X43251190Y-21500595D01*
X43727380Y-19976785D02*
X43727380Y-20548214D01*
X43727380Y-20262500D02*
X42727380Y-20262500D01*
X42870238Y-20357738D01*
X42965476Y-20452976D01*
X43013095Y-20548214D01*
X46057142Y-16192857D02*
X46104761Y-16240476D01*
X46152380Y-16383333D01*
X46152380Y-16478571D01*
X46104761Y-16621428D01*
X46009523Y-16716666D01*
X45914285Y-16764285D01*
X45723809Y-16811904D01*
X45580952Y-16811904D01*
X45390476Y-16764285D01*
X45295238Y-16716666D01*
X45200000Y-16621428D01*
X45152380Y-16478571D01*
X45152380Y-16383333D01*
X45200000Y-16240476D01*
X45247619Y-16192857D01*
X46152380Y-15240476D02*
X46152380Y-15811904D01*
X46152380Y-15526190D02*
X45152380Y-15526190D01*
X45295238Y-15621428D01*
X45390476Y-15716666D01*
X45438095Y-15811904D01*
X45152380Y-14907142D02*
X45152380Y-14288095D01*
X45533333Y-14621428D01*
X45533333Y-14478571D01*
X45580952Y-14383333D01*
X45628571Y-14335714D01*
X45723809Y-14288095D01*
X45961904Y-14288095D01*
X46057142Y-14335714D01*
X46104761Y-14383333D01*
X46152380Y-14478571D01*
X46152380Y-14764285D01*
X46104761Y-14859523D01*
X46057142Y-14907142D01*
X49357142Y-16167857D02*
X49404761Y-16215476D01*
X49452380Y-16358333D01*
X49452380Y-16453571D01*
X49404761Y-16596428D01*
X49309523Y-16691666D01*
X49214285Y-16739285D01*
X49023809Y-16786904D01*
X48880952Y-16786904D01*
X48690476Y-16739285D01*
X48595238Y-16691666D01*
X48500000Y-16596428D01*
X48452380Y-16453571D01*
X48452380Y-16358333D01*
X48500000Y-16215476D01*
X48547619Y-16167857D01*
X49452380Y-15215476D02*
X49452380Y-15786904D01*
X49452380Y-15501190D02*
X48452380Y-15501190D01*
X48595238Y-15596428D01*
X48690476Y-15691666D01*
X48738095Y-15786904D01*
X48547619Y-14834523D02*
X48500000Y-14786904D01*
X48452380Y-14691666D01*
X48452380Y-14453571D01*
X48500000Y-14358333D01*
X48547619Y-14310714D01*
X48642857Y-14263095D01*
X48738095Y-14263095D01*
X48880952Y-14310714D01*
X49452380Y-14882142D01*
X49452380Y-14263095D01*
X52757142Y-16192857D02*
X52804761Y-16240476D01*
X52852380Y-16383333D01*
X52852380Y-16478571D01*
X52804761Y-16621428D01*
X52709523Y-16716666D01*
X52614285Y-16764285D01*
X52423809Y-16811904D01*
X52280952Y-16811904D01*
X52090476Y-16764285D01*
X51995238Y-16716666D01*
X51900000Y-16621428D01*
X51852380Y-16478571D01*
X51852380Y-16383333D01*
X51900000Y-16240476D01*
X51947619Y-16192857D01*
X52852380Y-15240476D02*
X52852380Y-15811904D01*
X52852380Y-15526190D02*
X51852380Y-15526190D01*
X51995238Y-15621428D01*
X52090476Y-15716666D01*
X52138095Y-15811904D01*
X52852380Y-14288095D02*
X52852380Y-14859523D01*
X52852380Y-14573809D02*
X51852380Y-14573809D01*
X51995238Y-14669047D01*
X52090476Y-14764285D01*
X52138095Y-14859523D01*
X45207142Y-30016666D02*
X45254761Y-30064285D01*
X45302380Y-30207142D01*
X45302380Y-30302380D01*
X45254761Y-30445238D01*
X45159523Y-30540476D01*
X45064285Y-30588095D01*
X44873809Y-30635714D01*
X44730952Y-30635714D01*
X44540476Y-30588095D01*
X44445238Y-30540476D01*
X44350000Y-30445238D01*
X44302380Y-30302380D01*
X44302380Y-30207142D01*
X44350000Y-30064285D01*
X44397619Y-30016666D01*
X44730952Y-29445238D02*
X44683333Y-29540476D01*
X44635714Y-29588095D01*
X44540476Y-29635714D01*
X44492857Y-29635714D01*
X44397619Y-29588095D01*
X44350000Y-29540476D01*
X44302380Y-29445238D01*
X44302380Y-29254761D01*
X44350000Y-29159523D01*
X44397619Y-29111904D01*
X44492857Y-29064285D01*
X44540476Y-29064285D01*
X44635714Y-29111904D01*
X44683333Y-29159523D01*
X44730952Y-29254761D01*
X44730952Y-29445238D01*
X44778571Y-29540476D01*
X44826190Y-29588095D01*
X44921428Y-29635714D01*
X45111904Y-29635714D01*
X45207142Y-29588095D01*
X45254761Y-29540476D01*
X45302380Y-29445238D01*
X45302380Y-29254761D01*
X45254761Y-29159523D01*
X45207142Y-29111904D01*
X45111904Y-29064285D01*
X44921428Y-29064285D01*
X44826190Y-29111904D01*
X44778571Y-29159523D01*
X44730952Y-29254761D01*
X43007142Y-30066666D02*
X43054761Y-30114285D01*
X43102380Y-30257142D01*
X43102380Y-30352380D01*
X43054761Y-30495238D01*
X42959523Y-30590476D01*
X42864285Y-30638095D01*
X42673809Y-30685714D01*
X42530952Y-30685714D01*
X42340476Y-30638095D01*
X42245238Y-30590476D01*
X42150000Y-30495238D01*
X42102380Y-30352380D01*
X42102380Y-30257142D01*
X42150000Y-30114285D01*
X42197619Y-30066666D01*
X42102380Y-29733333D02*
X42102380Y-29066666D01*
X43102380Y-29495238D01*
X53452380Y-30438095D02*
X52452380Y-30438095D01*
X52452380Y-30200000D01*
X52500000Y-30057142D01*
X52595238Y-29961904D01*
X52690476Y-29914285D01*
X52880952Y-29866666D01*
X53023809Y-29866666D01*
X53214285Y-29914285D01*
X53309523Y-29961904D01*
X53404761Y-30057142D01*
X53452380Y-30200000D01*
X53452380Y-30438095D01*
X53452380Y-28914285D02*
X53452380Y-29485714D01*
X53452380Y-29200000D02*
X52452380Y-29200000D01*
X52595238Y-29295238D01*
X52690476Y-29390476D01*
X52738095Y-29485714D01*
X56452380Y-18261904D02*
X56452380Y-17690476D01*
X57452380Y-17976190D02*
X56452380Y-17976190D01*
X57452380Y-17357142D02*
X56452380Y-17357142D01*
X56452380Y-16976190D01*
X56500000Y-16880952D01*
X56547619Y-16833333D01*
X56642857Y-16785714D01*
X56785714Y-16785714D01*
X56880952Y-16833333D01*
X56928571Y-16880952D01*
X56976190Y-16976190D01*
X56976190Y-17357142D01*
X57452380Y-15833333D02*
X57452380Y-16404761D01*
X57452380Y-16119047D02*
X56452380Y-16119047D01*
X56595238Y-16214285D01*
X56690476Y-16309523D01*
X56738095Y-16404761D01*
X51766666Y-26502380D02*
X51766666Y-25502380D01*
X52147619Y-25502380D01*
X52242857Y-25550000D01*
X52290476Y-25597619D01*
X52338095Y-25692857D01*
X52338095Y-25835714D01*
X52290476Y-25930952D01*
X52242857Y-25978571D01*
X52147619Y-26026190D01*
X51766666Y-26026190D01*
X52671428Y-25502380D02*
X52909523Y-26502380D01*
X53100000Y-25788095D01*
X53290476Y-26502380D01*
X53528571Y-25502380D01*
X54480952Y-26502380D02*
X54147619Y-26026190D01*
X53909523Y-26502380D02*
X53909523Y-25502380D01*
X54290476Y-25502380D01*
X54385714Y-25550000D01*
X54433333Y-25597619D01*
X54480952Y-25692857D01*
X54480952Y-25835714D01*
X54433333Y-25930952D01*
X54385714Y-25978571D01*
X54290476Y-26026190D01*
X53909523Y-26026190D01*
X34773809Y-25402380D02*
X34773809Y-24402380D01*
X35821428Y-25307142D02*
X35773809Y-25354761D01*
X35630952Y-25402380D01*
X35535714Y-25402380D01*
X35392857Y-25354761D01*
X35297619Y-25259523D01*
X35250000Y-25164285D01*
X35202380Y-24973809D01*
X35202380Y-24830952D01*
X35250000Y-24640476D01*
X35297619Y-24545238D01*
X35392857Y-24450000D01*
X35535714Y-24402380D01*
X35630952Y-24402380D01*
X35773809Y-24450000D01*
X35821428Y-24497619D01*
X36773809Y-25402380D02*
X36202380Y-25402380D01*
X36488095Y-25402380D02*
X36488095Y-24402380D01*
X36392857Y-24545238D01*
X36297619Y-24640476D01*
X36202380Y-24688095D01*
X20980952Y-20705142D02*
X20933333Y-20752761D01*
X20790476Y-20800380D01*
X20695238Y-20800380D01*
X20552380Y-20752761D01*
X20457142Y-20657523D01*
X20409523Y-20562285D01*
X20361904Y-20371809D01*
X20361904Y-20228952D01*
X20409523Y-20038476D01*
X20457142Y-19943238D01*
X20552380Y-19848000D01*
X20695238Y-19800380D01*
X20790476Y-19800380D01*
X20933333Y-19848000D01*
X20980952Y-19895619D01*
X21552380Y-20800380D02*
X21457142Y-20752761D01*
X21409523Y-20705142D01*
X21361904Y-20609904D01*
X21361904Y-20324190D01*
X21409523Y-20228952D01*
X21457142Y-20181333D01*
X21552380Y-20133714D01*
X21695238Y-20133714D01*
X21790476Y-20181333D01*
X21838095Y-20228952D01*
X21885714Y-20324190D01*
X21885714Y-20609904D01*
X21838095Y-20705142D01*
X21790476Y-20752761D01*
X21695238Y-20800380D01*
X21552380Y-20800380D01*
X22314285Y-20800380D02*
X22314285Y-20133714D01*
X22314285Y-19800380D02*
X22266666Y-19848000D01*
X22314285Y-19895619D01*
X22361904Y-19848000D01*
X22314285Y-19800380D01*
X22314285Y-19895619D01*
X22933333Y-20800380D02*
X22838095Y-20752761D01*
X22790476Y-20657523D01*
X22790476Y-19800380D01*
X23266666Y-19895619D02*
X23314285Y-19848000D01*
X23409523Y-19800380D01*
X23647619Y-19800380D01*
X23742857Y-19848000D01*
X23790476Y-19895619D01*
X23838095Y-19990857D01*
X23838095Y-20086095D01*
X23790476Y-20228952D01*
X23219047Y-20800380D01*
X23838095Y-20800380D01*
X21080952Y-23257142D02*
X21033333Y-23304761D01*
X20890476Y-23352380D01*
X20795238Y-23352380D01*
X20652380Y-23304761D01*
X20557142Y-23209523D01*
X20509523Y-23114285D01*
X20461904Y-22923809D01*
X20461904Y-22780952D01*
X20509523Y-22590476D01*
X20557142Y-22495238D01*
X20652380Y-22400000D01*
X20795238Y-22352380D01*
X20890476Y-22352380D01*
X21033333Y-22400000D01*
X21080952Y-22447619D01*
X21652380Y-23352380D02*
X21557142Y-23304761D01*
X21509523Y-23257142D01*
X21461904Y-23161904D01*
X21461904Y-22876190D01*
X21509523Y-22780952D01*
X21557142Y-22733333D01*
X21652380Y-22685714D01*
X21795238Y-22685714D01*
X21890476Y-22733333D01*
X21938095Y-22780952D01*
X21985714Y-22876190D01*
X21985714Y-23161904D01*
X21938095Y-23257142D01*
X21890476Y-23304761D01*
X21795238Y-23352380D01*
X21652380Y-23352380D01*
X22414285Y-23352380D02*
X22414285Y-22685714D01*
X22414285Y-22352380D02*
X22366666Y-22400000D01*
X22414285Y-22447619D01*
X22461904Y-22400000D01*
X22414285Y-22352380D01*
X22414285Y-22447619D01*
X23033333Y-23352380D02*
X22938095Y-23304761D01*
X22890476Y-23209523D01*
X22890476Y-22352380D01*
X23938095Y-23352380D02*
X23366666Y-23352380D01*
X23652380Y-23352380D02*
X23652380Y-22352380D01*
X23557142Y-22495238D01*
X23461904Y-22590476D01*
X23366666Y-22638095D01*
M02*
