G04 #@! TF.GenerationSoftware,KiCad,Pcbnew,(5.1.5-0-10_14)*
G04 #@! TF.CreationDate,2020-05-14T00:27:54+02:00*
G04 #@! TF.ProjectId,final,66696e61-6c2e-46b6-9963-61645f706362,rev?*
G04 #@! TF.SameCoordinates,Original*
G04 #@! TF.FileFunction,Copper,L1,Top*
G04 #@! TF.FilePolarity,Positive*
%FSLAX46Y46*%
G04 Gerber Fmt 4.6, Leading zero omitted, Abs format (unit mm)*
G04 Created by KiCad (PCBNEW (5.1.5-0-10_14)) date 2020-05-14 00:27:54*
%MOMM*%
%LPD*%
G04 APERTURE LIST*
%ADD10C,0.100000*%
%ADD11C,1.000000*%
%ADD12O,1.700000X1.700000*%
%ADD13R,1.700000X1.700000*%
%ADD14R,0.400000X0.320000*%
%ADD15R,1.125000X0.230000*%
%ADD16O,0.850000X0.280000*%
%ADD17O,0.280000X0.850000*%
%ADD18R,1.525000X1.025000*%
%ADD19R,3.000000X3.000000*%
%ADD20C,0.800000*%
%ADD21C,0.250000*%
%ADD22C,0.254000*%
G04 APERTURE END LIST*
G04 #@! TA.AperFunction,SMDPad,CuDef*
D10*
G36*
X54374505Y-17576204D02*
G01*
X54398773Y-17579804D01*
X54422572Y-17585765D01*
X54445671Y-17594030D01*
X54467850Y-17604520D01*
X54488893Y-17617132D01*
X54508599Y-17631747D01*
X54526777Y-17648223D01*
X54543253Y-17666401D01*
X54557868Y-17686107D01*
X54570480Y-17707150D01*
X54580970Y-17729329D01*
X54589235Y-17752428D01*
X54595196Y-17776227D01*
X54598796Y-17800495D01*
X54600000Y-17824999D01*
X54600000Y-18475001D01*
X54598796Y-18499505D01*
X54595196Y-18523773D01*
X54589235Y-18547572D01*
X54580970Y-18570671D01*
X54570480Y-18592850D01*
X54557868Y-18613893D01*
X54543253Y-18633599D01*
X54526777Y-18651777D01*
X54508599Y-18668253D01*
X54488893Y-18682868D01*
X54467850Y-18695480D01*
X54445671Y-18705970D01*
X54422572Y-18714235D01*
X54398773Y-18720196D01*
X54374505Y-18723796D01*
X54350001Y-18725000D01*
X53449999Y-18725000D01*
X53425495Y-18723796D01*
X53401227Y-18720196D01*
X53377428Y-18714235D01*
X53354329Y-18705970D01*
X53332150Y-18695480D01*
X53311107Y-18682868D01*
X53291401Y-18668253D01*
X53273223Y-18651777D01*
X53256747Y-18633599D01*
X53242132Y-18613893D01*
X53229520Y-18592850D01*
X53219030Y-18570671D01*
X53210765Y-18547572D01*
X53204804Y-18523773D01*
X53201204Y-18499505D01*
X53200000Y-18475001D01*
X53200000Y-17824999D01*
X53201204Y-17800495D01*
X53204804Y-17776227D01*
X53210765Y-17752428D01*
X53219030Y-17729329D01*
X53229520Y-17707150D01*
X53242132Y-17686107D01*
X53256747Y-17666401D01*
X53273223Y-17648223D01*
X53291401Y-17631747D01*
X53311107Y-17617132D01*
X53332150Y-17604520D01*
X53354329Y-17594030D01*
X53377428Y-17585765D01*
X53401227Y-17579804D01*
X53425495Y-17576204D01*
X53449999Y-17575000D01*
X54350001Y-17575000D01*
X54374505Y-17576204D01*
G37*
G04 #@! TD.AperFunction*
G04 #@! TA.AperFunction,SMDPad,CuDef*
G36*
X54374505Y-15526204D02*
G01*
X54398773Y-15529804D01*
X54422572Y-15535765D01*
X54445671Y-15544030D01*
X54467850Y-15554520D01*
X54488893Y-15567132D01*
X54508599Y-15581747D01*
X54526777Y-15598223D01*
X54543253Y-15616401D01*
X54557868Y-15636107D01*
X54570480Y-15657150D01*
X54580970Y-15679329D01*
X54589235Y-15702428D01*
X54595196Y-15726227D01*
X54598796Y-15750495D01*
X54600000Y-15774999D01*
X54600000Y-16425001D01*
X54598796Y-16449505D01*
X54595196Y-16473773D01*
X54589235Y-16497572D01*
X54580970Y-16520671D01*
X54570480Y-16542850D01*
X54557868Y-16563893D01*
X54543253Y-16583599D01*
X54526777Y-16601777D01*
X54508599Y-16618253D01*
X54488893Y-16632868D01*
X54467850Y-16645480D01*
X54445671Y-16655970D01*
X54422572Y-16664235D01*
X54398773Y-16670196D01*
X54374505Y-16673796D01*
X54350001Y-16675000D01*
X53449999Y-16675000D01*
X53425495Y-16673796D01*
X53401227Y-16670196D01*
X53377428Y-16664235D01*
X53354329Y-16655970D01*
X53332150Y-16645480D01*
X53311107Y-16632868D01*
X53291401Y-16618253D01*
X53273223Y-16601777D01*
X53256747Y-16583599D01*
X53242132Y-16563893D01*
X53229520Y-16542850D01*
X53219030Y-16520671D01*
X53210765Y-16497572D01*
X53204804Y-16473773D01*
X53201204Y-16449505D01*
X53200000Y-16425001D01*
X53200000Y-15774999D01*
X53201204Y-15750495D01*
X53204804Y-15726227D01*
X53210765Y-15702428D01*
X53219030Y-15679329D01*
X53229520Y-15657150D01*
X53242132Y-15636107D01*
X53256747Y-15616401D01*
X53273223Y-15598223D01*
X53291401Y-15581747D01*
X53311107Y-15567132D01*
X53332150Y-15554520D01*
X53354329Y-15544030D01*
X53377428Y-15535765D01*
X53401227Y-15529804D01*
X53425495Y-15526204D01*
X53449999Y-15525000D01*
X54350001Y-15525000D01*
X54374505Y-15526204D01*
G37*
G04 #@! TD.AperFunction*
G04 #@! TA.AperFunction,SMDPad,CuDef*
G36*
X48874505Y-22351204D02*
G01*
X48898773Y-22354804D01*
X48922572Y-22360765D01*
X48945671Y-22369030D01*
X48967850Y-22379520D01*
X48988893Y-22392132D01*
X49008599Y-22406747D01*
X49026777Y-22423223D01*
X49043253Y-22441401D01*
X49057868Y-22461107D01*
X49070480Y-22482150D01*
X49080970Y-22504329D01*
X49089235Y-22527428D01*
X49095196Y-22551227D01*
X49098796Y-22575495D01*
X49100000Y-22599999D01*
X49100000Y-23250001D01*
X49098796Y-23274505D01*
X49095196Y-23298773D01*
X49089235Y-23322572D01*
X49080970Y-23345671D01*
X49070480Y-23367850D01*
X49057868Y-23388893D01*
X49043253Y-23408599D01*
X49026777Y-23426777D01*
X49008599Y-23443253D01*
X48988893Y-23457868D01*
X48967850Y-23470480D01*
X48945671Y-23480970D01*
X48922572Y-23489235D01*
X48898773Y-23495196D01*
X48874505Y-23498796D01*
X48850001Y-23500000D01*
X47949999Y-23500000D01*
X47925495Y-23498796D01*
X47901227Y-23495196D01*
X47877428Y-23489235D01*
X47854329Y-23480970D01*
X47832150Y-23470480D01*
X47811107Y-23457868D01*
X47791401Y-23443253D01*
X47773223Y-23426777D01*
X47756747Y-23408599D01*
X47742132Y-23388893D01*
X47729520Y-23367850D01*
X47719030Y-23345671D01*
X47710765Y-23322572D01*
X47704804Y-23298773D01*
X47701204Y-23274505D01*
X47700000Y-23250001D01*
X47700000Y-22599999D01*
X47701204Y-22575495D01*
X47704804Y-22551227D01*
X47710765Y-22527428D01*
X47719030Y-22504329D01*
X47729520Y-22482150D01*
X47742132Y-22461107D01*
X47756747Y-22441401D01*
X47773223Y-22423223D01*
X47791401Y-22406747D01*
X47811107Y-22392132D01*
X47832150Y-22379520D01*
X47854329Y-22369030D01*
X47877428Y-22360765D01*
X47901227Y-22354804D01*
X47925495Y-22351204D01*
X47949999Y-22350000D01*
X48850001Y-22350000D01*
X48874505Y-22351204D01*
G37*
G04 #@! TD.AperFunction*
G04 #@! TA.AperFunction,SMDPad,CuDef*
G36*
X48874505Y-20301204D02*
G01*
X48898773Y-20304804D01*
X48922572Y-20310765D01*
X48945671Y-20319030D01*
X48967850Y-20329520D01*
X48988893Y-20342132D01*
X49008599Y-20356747D01*
X49026777Y-20373223D01*
X49043253Y-20391401D01*
X49057868Y-20411107D01*
X49070480Y-20432150D01*
X49080970Y-20454329D01*
X49089235Y-20477428D01*
X49095196Y-20501227D01*
X49098796Y-20525495D01*
X49100000Y-20549999D01*
X49100000Y-21200001D01*
X49098796Y-21224505D01*
X49095196Y-21248773D01*
X49089235Y-21272572D01*
X49080970Y-21295671D01*
X49070480Y-21317850D01*
X49057868Y-21338893D01*
X49043253Y-21358599D01*
X49026777Y-21376777D01*
X49008599Y-21393253D01*
X48988893Y-21407868D01*
X48967850Y-21420480D01*
X48945671Y-21430970D01*
X48922572Y-21439235D01*
X48898773Y-21445196D01*
X48874505Y-21448796D01*
X48850001Y-21450000D01*
X47949999Y-21450000D01*
X47925495Y-21448796D01*
X47901227Y-21445196D01*
X47877428Y-21439235D01*
X47854329Y-21430970D01*
X47832150Y-21420480D01*
X47811107Y-21407868D01*
X47791401Y-21393253D01*
X47773223Y-21376777D01*
X47756747Y-21358599D01*
X47742132Y-21338893D01*
X47729520Y-21317850D01*
X47719030Y-21295671D01*
X47710765Y-21272572D01*
X47704804Y-21248773D01*
X47701204Y-21224505D01*
X47700000Y-21200001D01*
X47700000Y-20549999D01*
X47701204Y-20525495D01*
X47704804Y-20501227D01*
X47710765Y-20477428D01*
X47719030Y-20454329D01*
X47729520Y-20432150D01*
X47742132Y-20411107D01*
X47756747Y-20391401D01*
X47773223Y-20373223D01*
X47791401Y-20356747D01*
X47811107Y-20342132D01*
X47832150Y-20329520D01*
X47854329Y-20319030D01*
X47877428Y-20310765D01*
X47901227Y-20304804D01*
X47925495Y-20301204D01*
X47949999Y-20300000D01*
X48850001Y-20300000D01*
X48874505Y-20301204D01*
G37*
G04 #@! TD.AperFunction*
G04 #@! TA.AperFunction,SMDPad,CuDef*
G36*
X47612005Y-27151204D02*
G01*
X47636273Y-27154804D01*
X47660072Y-27160765D01*
X47683171Y-27169030D01*
X47705350Y-27179520D01*
X47726393Y-27192132D01*
X47746099Y-27206747D01*
X47764277Y-27223223D01*
X47780753Y-27241401D01*
X47795368Y-27261107D01*
X47807980Y-27282150D01*
X47818470Y-27304329D01*
X47826735Y-27327428D01*
X47832696Y-27351227D01*
X47836296Y-27375495D01*
X47837500Y-27399999D01*
X47837500Y-28300001D01*
X47836296Y-28324505D01*
X47832696Y-28348773D01*
X47826735Y-28372572D01*
X47818470Y-28395671D01*
X47807980Y-28417850D01*
X47795368Y-28438893D01*
X47780753Y-28458599D01*
X47764277Y-28476777D01*
X47746099Y-28493253D01*
X47726393Y-28507868D01*
X47705350Y-28520480D01*
X47683171Y-28530970D01*
X47660072Y-28539235D01*
X47636273Y-28545196D01*
X47612005Y-28548796D01*
X47587501Y-28550000D01*
X46937499Y-28550000D01*
X46912995Y-28548796D01*
X46888727Y-28545196D01*
X46864928Y-28539235D01*
X46841829Y-28530970D01*
X46819650Y-28520480D01*
X46798607Y-28507868D01*
X46778901Y-28493253D01*
X46760723Y-28476777D01*
X46744247Y-28458599D01*
X46729632Y-28438893D01*
X46717020Y-28417850D01*
X46706530Y-28395671D01*
X46698265Y-28372572D01*
X46692304Y-28348773D01*
X46688704Y-28324505D01*
X46687500Y-28300001D01*
X46687500Y-27399999D01*
X46688704Y-27375495D01*
X46692304Y-27351227D01*
X46698265Y-27327428D01*
X46706530Y-27304329D01*
X46717020Y-27282150D01*
X46729632Y-27261107D01*
X46744247Y-27241401D01*
X46760723Y-27223223D01*
X46778901Y-27206747D01*
X46798607Y-27192132D01*
X46819650Y-27179520D01*
X46841829Y-27169030D01*
X46864928Y-27160765D01*
X46888727Y-27154804D01*
X46912995Y-27151204D01*
X46937499Y-27150000D01*
X47587501Y-27150000D01*
X47612005Y-27151204D01*
G37*
G04 #@! TD.AperFunction*
G04 #@! TA.AperFunction,SMDPad,CuDef*
G36*
X49662005Y-27151204D02*
G01*
X49686273Y-27154804D01*
X49710072Y-27160765D01*
X49733171Y-27169030D01*
X49755350Y-27179520D01*
X49776393Y-27192132D01*
X49796099Y-27206747D01*
X49814277Y-27223223D01*
X49830753Y-27241401D01*
X49845368Y-27261107D01*
X49857980Y-27282150D01*
X49868470Y-27304329D01*
X49876735Y-27327428D01*
X49882696Y-27351227D01*
X49886296Y-27375495D01*
X49887500Y-27399999D01*
X49887500Y-28300001D01*
X49886296Y-28324505D01*
X49882696Y-28348773D01*
X49876735Y-28372572D01*
X49868470Y-28395671D01*
X49857980Y-28417850D01*
X49845368Y-28438893D01*
X49830753Y-28458599D01*
X49814277Y-28476777D01*
X49796099Y-28493253D01*
X49776393Y-28507868D01*
X49755350Y-28520480D01*
X49733171Y-28530970D01*
X49710072Y-28539235D01*
X49686273Y-28545196D01*
X49662005Y-28548796D01*
X49637501Y-28550000D01*
X48987499Y-28550000D01*
X48962995Y-28548796D01*
X48938727Y-28545196D01*
X48914928Y-28539235D01*
X48891829Y-28530970D01*
X48869650Y-28520480D01*
X48848607Y-28507868D01*
X48828901Y-28493253D01*
X48810723Y-28476777D01*
X48794247Y-28458599D01*
X48779632Y-28438893D01*
X48767020Y-28417850D01*
X48756530Y-28395671D01*
X48748265Y-28372572D01*
X48742304Y-28348773D01*
X48738704Y-28324505D01*
X48737500Y-28300001D01*
X48737500Y-27399999D01*
X48738704Y-27375495D01*
X48742304Y-27351227D01*
X48748265Y-27327428D01*
X48756530Y-27304329D01*
X48767020Y-27282150D01*
X48779632Y-27261107D01*
X48794247Y-27241401D01*
X48810723Y-27223223D01*
X48828901Y-27206747D01*
X48848607Y-27192132D01*
X48869650Y-27179520D01*
X48891829Y-27169030D01*
X48914928Y-27160765D01*
X48938727Y-27154804D01*
X48962995Y-27151204D01*
X48987499Y-27150000D01*
X49637501Y-27150000D01*
X49662005Y-27151204D01*
G37*
G04 #@! TD.AperFunction*
G04 #@! TA.AperFunction,SMDPad,CuDef*
G36*
X45274505Y-20226204D02*
G01*
X45298773Y-20229804D01*
X45322572Y-20235765D01*
X45345671Y-20244030D01*
X45367850Y-20254520D01*
X45388893Y-20267132D01*
X45408599Y-20281747D01*
X45426777Y-20298223D01*
X45443253Y-20316401D01*
X45457868Y-20336107D01*
X45470480Y-20357150D01*
X45480970Y-20379329D01*
X45489235Y-20402428D01*
X45495196Y-20426227D01*
X45498796Y-20450495D01*
X45500000Y-20474999D01*
X45500000Y-21125001D01*
X45498796Y-21149505D01*
X45495196Y-21173773D01*
X45489235Y-21197572D01*
X45480970Y-21220671D01*
X45470480Y-21242850D01*
X45457868Y-21263893D01*
X45443253Y-21283599D01*
X45426777Y-21301777D01*
X45408599Y-21318253D01*
X45388893Y-21332868D01*
X45367850Y-21345480D01*
X45345671Y-21355970D01*
X45322572Y-21364235D01*
X45298773Y-21370196D01*
X45274505Y-21373796D01*
X45250001Y-21375000D01*
X44349999Y-21375000D01*
X44325495Y-21373796D01*
X44301227Y-21370196D01*
X44277428Y-21364235D01*
X44254329Y-21355970D01*
X44232150Y-21345480D01*
X44211107Y-21332868D01*
X44191401Y-21318253D01*
X44173223Y-21301777D01*
X44156747Y-21283599D01*
X44142132Y-21263893D01*
X44129520Y-21242850D01*
X44119030Y-21220671D01*
X44110765Y-21197572D01*
X44104804Y-21173773D01*
X44101204Y-21149505D01*
X44100000Y-21125001D01*
X44100000Y-20474999D01*
X44101204Y-20450495D01*
X44104804Y-20426227D01*
X44110765Y-20402428D01*
X44119030Y-20379329D01*
X44129520Y-20357150D01*
X44142132Y-20336107D01*
X44156747Y-20316401D01*
X44173223Y-20298223D01*
X44191401Y-20281747D01*
X44211107Y-20267132D01*
X44232150Y-20254520D01*
X44254329Y-20244030D01*
X44277428Y-20235765D01*
X44301227Y-20229804D01*
X44325495Y-20226204D01*
X44349999Y-20225000D01*
X45250001Y-20225000D01*
X45274505Y-20226204D01*
G37*
G04 #@! TD.AperFunction*
G04 #@! TA.AperFunction,SMDPad,CuDef*
G36*
X45274505Y-22276204D02*
G01*
X45298773Y-22279804D01*
X45322572Y-22285765D01*
X45345671Y-22294030D01*
X45367850Y-22304520D01*
X45388893Y-22317132D01*
X45408599Y-22331747D01*
X45426777Y-22348223D01*
X45443253Y-22366401D01*
X45457868Y-22386107D01*
X45470480Y-22407150D01*
X45480970Y-22429329D01*
X45489235Y-22452428D01*
X45495196Y-22476227D01*
X45498796Y-22500495D01*
X45500000Y-22524999D01*
X45500000Y-23175001D01*
X45498796Y-23199505D01*
X45495196Y-23223773D01*
X45489235Y-23247572D01*
X45480970Y-23270671D01*
X45470480Y-23292850D01*
X45457868Y-23313893D01*
X45443253Y-23333599D01*
X45426777Y-23351777D01*
X45408599Y-23368253D01*
X45388893Y-23382868D01*
X45367850Y-23395480D01*
X45345671Y-23405970D01*
X45322572Y-23414235D01*
X45298773Y-23420196D01*
X45274505Y-23423796D01*
X45250001Y-23425000D01*
X44349999Y-23425000D01*
X44325495Y-23423796D01*
X44301227Y-23420196D01*
X44277428Y-23414235D01*
X44254329Y-23405970D01*
X44232150Y-23395480D01*
X44211107Y-23382868D01*
X44191401Y-23368253D01*
X44173223Y-23351777D01*
X44156747Y-23333599D01*
X44142132Y-23313893D01*
X44129520Y-23292850D01*
X44119030Y-23270671D01*
X44110765Y-23247572D01*
X44104804Y-23223773D01*
X44101204Y-23199505D01*
X44100000Y-23175001D01*
X44100000Y-22524999D01*
X44101204Y-22500495D01*
X44104804Y-22476227D01*
X44110765Y-22452428D01*
X44119030Y-22429329D01*
X44129520Y-22407150D01*
X44142132Y-22386107D01*
X44156747Y-22366401D01*
X44173223Y-22348223D01*
X44191401Y-22331747D01*
X44211107Y-22317132D01*
X44232150Y-22304520D01*
X44254329Y-22294030D01*
X44277428Y-22285765D01*
X44301227Y-22279804D01*
X44325495Y-22276204D01*
X44349999Y-22275000D01*
X45250001Y-22275000D01*
X45274505Y-22276204D01*
G37*
G04 #@! TD.AperFunction*
G04 #@! TA.AperFunction,SMDPad,CuDef*
G36*
X42074505Y-22351204D02*
G01*
X42098773Y-22354804D01*
X42122572Y-22360765D01*
X42145671Y-22369030D01*
X42167850Y-22379520D01*
X42188893Y-22392132D01*
X42208599Y-22406747D01*
X42226777Y-22423223D01*
X42243253Y-22441401D01*
X42257868Y-22461107D01*
X42270480Y-22482150D01*
X42280970Y-22504329D01*
X42289235Y-22527428D01*
X42295196Y-22551227D01*
X42298796Y-22575495D01*
X42300000Y-22599999D01*
X42300000Y-23250001D01*
X42298796Y-23274505D01*
X42295196Y-23298773D01*
X42289235Y-23322572D01*
X42280970Y-23345671D01*
X42270480Y-23367850D01*
X42257868Y-23388893D01*
X42243253Y-23408599D01*
X42226777Y-23426777D01*
X42208599Y-23443253D01*
X42188893Y-23457868D01*
X42167850Y-23470480D01*
X42145671Y-23480970D01*
X42122572Y-23489235D01*
X42098773Y-23495196D01*
X42074505Y-23498796D01*
X42050001Y-23500000D01*
X41149999Y-23500000D01*
X41125495Y-23498796D01*
X41101227Y-23495196D01*
X41077428Y-23489235D01*
X41054329Y-23480970D01*
X41032150Y-23470480D01*
X41011107Y-23457868D01*
X40991401Y-23443253D01*
X40973223Y-23426777D01*
X40956747Y-23408599D01*
X40942132Y-23388893D01*
X40929520Y-23367850D01*
X40919030Y-23345671D01*
X40910765Y-23322572D01*
X40904804Y-23298773D01*
X40901204Y-23274505D01*
X40900000Y-23250001D01*
X40900000Y-22599999D01*
X40901204Y-22575495D01*
X40904804Y-22551227D01*
X40910765Y-22527428D01*
X40919030Y-22504329D01*
X40929520Y-22482150D01*
X40942132Y-22461107D01*
X40956747Y-22441401D01*
X40973223Y-22423223D01*
X40991401Y-22406747D01*
X41011107Y-22392132D01*
X41032150Y-22379520D01*
X41054329Y-22369030D01*
X41077428Y-22360765D01*
X41101227Y-22354804D01*
X41125495Y-22351204D01*
X41149999Y-22350000D01*
X42050001Y-22350000D01*
X42074505Y-22351204D01*
G37*
G04 #@! TD.AperFunction*
G04 #@! TA.AperFunction,SMDPad,CuDef*
G36*
X42074505Y-20301204D02*
G01*
X42098773Y-20304804D01*
X42122572Y-20310765D01*
X42145671Y-20319030D01*
X42167850Y-20329520D01*
X42188893Y-20342132D01*
X42208599Y-20356747D01*
X42226777Y-20373223D01*
X42243253Y-20391401D01*
X42257868Y-20411107D01*
X42270480Y-20432150D01*
X42280970Y-20454329D01*
X42289235Y-20477428D01*
X42295196Y-20501227D01*
X42298796Y-20525495D01*
X42300000Y-20549999D01*
X42300000Y-21200001D01*
X42298796Y-21224505D01*
X42295196Y-21248773D01*
X42289235Y-21272572D01*
X42280970Y-21295671D01*
X42270480Y-21317850D01*
X42257868Y-21338893D01*
X42243253Y-21358599D01*
X42226777Y-21376777D01*
X42208599Y-21393253D01*
X42188893Y-21407868D01*
X42167850Y-21420480D01*
X42145671Y-21430970D01*
X42122572Y-21439235D01*
X42098773Y-21445196D01*
X42074505Y-21448796D01*
X42050001Y-21450000D01*
X41149999Y-21450000D01*
X41125495Y-21448796D01*
X41101227Y-21445196D01*
X41077428Y-21439235D01*
X41054329Y-21430970D01*
X41032150Y-21420480D01*
X41011107Y-21407868D01*
X40991401Y-21393253D01*
X40973223Y-21376777D01*
X40956747Y-21358599D01*
X40942132Y-21338893D01*
X40929520Y-21317850D01*
X40919030Y-21295671D01*
X40910765Y-21272572D01*
X40904804Y-21248773D01*
X40901204Y-21224505D01*
X40900000Y-21200001D01*
X40900000Y-20549999D01*
X40901204Y-20525495D01*
X40904804Y-20501227D01*
X40910765Y-20477428D01*
X40919030Y-20454329D01*
X40929520Y-20432150D01*
X40942132Y-20411107D01*
X40956747Y-20391401D01*
X40973223Y-20373223D01*
X40991401Y-20356747D01*
X41011107Y-20342132D01*
X41032150Y-20329520D01*
X41054329Y-20319030D01*
X41077428Y-20310765D01*
X41101227Y-20304804D01*
X41125495Y-20301204D01*
X41149999Y-20300000D01*
X42050001Y-20300000D01*
X42074505Y-20301204D01*
G37*
G04 #@! TD.AperFunction*
G04 #@! TA.AperFunction,SMDPad,CuDef*
G36*
X39949505Y-14526204D02*
G01*
X39973773Y-14529804D01*
X39997572Y-14535765D01*
X40020671Y-14544030D01*
X40042850Y-14554520D01*
X40063893Y-14567132D01*
X40083599Y-14581747D01*
X40101777Y-14598223D01*
X40118253Y-14616401D01*
X40132868Y-14636107D01*
X40145480Y-14657150D01*
X40155970Y-14679329D01*
X40164235Y-14702428D01*
X40170196Y-14726227D01*
X40173796Y-14750495D01*
X40175000Y-14774999D01*
X40175000Y-15425001D01*
X40173796Y-15449505D01*
X40170196Y-15473773D01*
X40164235Y-15497572D01*
X40155970Y-15520671D01*
X40145480Y-15542850D01*
X40132868Y-15563893D01*
X40118253Y-15583599D01*
X40101777Y-15601777D01*
X40083599Y-15618253D01*
X40063893Y-15632868D01*
X40042850Y-15645480D01*
X40020671Y-15655970D01*
X39997572Y-15664235D01*
X39973773Y-15670196D01*
X39949505Y-15673796D01*
X39925001Y-15675000D01*
X39024999Y-15675000D01*
X39000495Y-15673796D01*
X38976227Y-15670196D01*
X38952428Y-15664235D01*
X38929329Y-15655970D01*
X38907150Y-15645480D01*
X38886107Y-15632868D01*
X38866401Y-15618253D01*
X38848223Y-15601777D01*
X38831747Y-15583599D01*
X38817132Y-15563893D01*
X38804520Y-15542850D01*
X38794030Y-15520671D01*
X38785765Y-15497572D01*
X38779804Y-15473773D01*
X38776204Y-15449505D01*
X38775000Y-15425001D01*
X38775000Y-14774999D01*
X38776204Y-14750495D01*
X38779804Y-14726227D01*
X38785765Y-14702428D01*
X38794030Y-14679329D01*
X38804520Y-14657150D01*
X38817132Y-14636107D01*
X38831747Y-14616401D01*
X38848223Y-14598223D01*
X38866401Y-14581747D01*
X38886107Y-14567132D01*
X38907150Y-14554520D01*
X38929329Y-14544030D01*
X38952428Y-14535765D01*
X38976227Y-14529804D01*
X39000495Y-14526204D01*
X39024999Y-14525000D01*
X39925001Y-14525000D01*
X39949505Y-14526204D01*
G37*
G04 #@! TD.AperFunction*
G04 #@! TA.AperFunction,SMDPad,CuDef*
G36*
X39949505Y-16576204D02*
G01*
X39973773Y-16579804D01*
X39997572Y-16585765D01*
X40020671Y-16594030D01*
X40042850Y-16604520D01*
X40063893Y-16617132D01*
X40083599Y-16631747D01*
X40101777Y-16648223D01*
X40118253Y-16666401D01*
X40132868Y-16686107D01*
X40145480Y-16707150D01*
X40155970Y-16729329D01*
X40164235Y-16752428D01*
X40170196Y-16776227D01*
X40173796Y-16800495D01*
X40175000Y-16824999D01*
X40175000Y-17475001D01*
X40173796Y-17499505D01*
X40170196Y-17523773D01*
X40164235Y-17547572D01*
X40155970Y-17570671D01*
X40145480Y-17592850D01*
X40132868Y-17613893D01*
X40118253Y-17633599D01*
X40101777Y-17651777D01*
X40083599Y-17668253D01*
X40063893Y-17682868D01*
X40042850Y-17695480D01*
X40020671Y-17705970D01*
X39997572Y-17714235D01*
X39973773Y-17720196D01*
X39949505Y-17723796D01*
X39925001Y-17725000D01*
X39024999Y-17725000D01*
X39000495Y-17723796D01*
X38976227Y-17720196D01*
X38952428Y-17714235D01*
X38929329Y-17705970D01*
X38907150Y-17695480D01*
X38886107Y-17682868D01*
X38866401Y-17668253D01*
X38848223Y-17651777D01*
X38831747Y-17633599D01*
X38817132Y-17613893D01*
X38804520Y-17592850D01*
X38794030Y-17570671D01*
X38785765Y-17547572D01*
X38779804Y-17523773D01*
X38776204Y-17499505D01*
X38775000Y-17475001D01*
X38775000Y-16824999D01*
X38776204Y-16800495D01*
X38779804Y-16776227D01*
X38785765Y-16752428D01*
X38794030Y-16729329D01*
X38804520Y-16707150D01*
X38817132Y-16686107D01*
X38831747Y-16666401D01*
X38848223Y-16648223D01*
X38866401Y-16631747D01*
X38886107Y-16617132D01*
X38907150Y-16604520D01*
X38929329Y-16594030D01*
X38952428Y-16585765D01*
X38976227Y-16579804D01*
X39000495Y-16576204D01*
X39024999Y-16575000D01*
X39925001Y-16575000D01*
X39949505Y-16576204D01*
G37*
G04 #@! TD.AperFunction*
G04 #@! TA.AperFunction,SMDPad,CuDef*
G36*
X39874505Y-27526204D02*
G01*
X39898773Y-27529804D01*
X39922572Y-27535765D01*
X39945671Y-27544030D01*
X39967850Y-27554520D01*
X39988893Y-27567132D01*
X40008599Y-27581747D01*
X40026777Y-27598223D01*
X40043253Y-27616401D01*
X40057868Y-27636107D01*
X40070480Y-27657150D01*
X40080970Y-27679329D01*
X40089235Y-27702428D01*
X40095196Y-27726227D01*
X40098796Y-27750495D01*
X40100000Y-27774999D01*
X40100000Y-28425001D01*
X40098796Y-28449505D01*
X40095196Y-28473773D01*
X40089235Y-28497572D01*
X40080970Y-28520671D01*
X40070480Y-28542850D01*
X40057868Y-28563893D01*
X40043253Y-28583599D01*
X40026777Y-28601777D01*
X40008599Y-28618253D01*
X39988893Y-28632868D01*
X39967850Y-28645480D01*
X39945671Y-28655970D01*
X39922572Y-28664235D01*
X39898773Y-28670196D01*
X39874505Y-28673796D01*
X39850001Y-28675000D01*
X38949999Y-28675000D01*
X38925495Y-28673796D01*
X38901227Y-28670196D01*
X38877428Y-28664235D01*
X38854329Y-28655970D01*
X38832150Y-28645480D01*
X38811107Y-28632868D01*
X38791401Y-28618253D01*
X38773223Y-28601777D01*
X38756747Y-28583599D01*
X38742132Y-28563893D01*
X38729520Y-28542850D01*
X38719030Y-28520671D01*
X38710765Y-28497572D01*
X38704804Y-28473773D01*
X38701204Y-28449505D01*
X38700000Y-28425001D01*
X38700000Y-27774999D01*
X38701204Y-27750495D01*
X38704804Y-27726227D01*
X38710765Y-27702428D01*
X38719030Y-27679329D01*
X38729520Y-27657150D01*
X38742132Y-27636107D01*
X38756747Y-27616401D01*
X38773223Y-27598223D01*
X38791401Y-27581747D01*
X38811107Y-27567132D01*
X38832150Y-27554520D01*
X38854329Y-27544030D01*
X38877428Y-27535765D01*
X38901227Y-27529804D01*
X38925495Y-27526204D01*
X38949999Y-27525000D01*
X39850001Y-27525000D01*
X39874505Y-27526204D01*
G37*
G04 #@! TD.AperFunction*
G04 #@! TA.AperFunction,SMDPad,CuDef*
G36*
X39874505Y-25476204D02*
G01*
X39898773Y-25479804D01*
X39922572Y-25485765D01*
X39945671Y-25494030D01*
X39967850Y-25504520D01*
X39988893Y-25517132D01*
X40008599Y-25531747D01*
X40026777Y-25548223D01*
X40043253Y-25566401D01*
X40057868Y-25586107D01*
X40070480Y-25607150D01*
X40080970Y-25629329D01*
X40089235Y-25652428D01*
X40095196Y-25676227D01*
X40098796Y-25700495D01*
X40100000Y-25724999D01*
X40100000Y-26375001D01*
X40098796Y-26399505D01*
X40095196Y-26423773D01*
X40089235Y-26447572D01*
X40080970Y-26470671D01*
X40070480Y-26492850D01*
X40057868Y-26513893D01*
X40043253Y-26533599D01*
X40026777Y-26551777D01*
X40008599Y-26568253D01*
X39988893Y-26582868D01*
X39967850Y-26595480D01*
X39945671Y-26605970D01*
X39922572Y-26614235D01*
X39898773Y-26620196D01*
X39874505Y-26623796D01*
X39850001Y-26625000D01*
X38949999Y-26625000D01*
X38925495Y-26623796D01*
X38901227Y-26620196D01*
X38877428Y-26614235D01*
X38854329Y-26605970D01*
X38832150Y-26595480D01*
X38811107Y-26582868D01*
X38791401Y-26568253D01*
X38773223Y-26551777D01*
X38756747Y-26533599D01*
X38742132Y-26513893D01*
X38729520Y-26492850D01*
X38719030Y-26470671D01*
X38710765Y-26447572D01*
X38704804Y-26423773D01*
X38701204Y-26399505D01*
X38700000Y-26375001D01*
X38700000Y-25724999D01*
X38701204Y-25700495D01*
X38704804Y-25676227D01*
X38710765Y-25652428D01*
X38719030Y-25629329D01*
X38729520Y-25607150D01*
X38742132Y-25586107D01*
X38756747Y-25566401D01*
X38773223Y-25548223D01*
X38791401Y-25531747D01*
X38811107Y-25517132D01*
X38832150Y-25504520D01*
X38854329Y-25494030D01*
X38877428Y-25485765D01*
X38901227Y-25479804D01*
X38925495Y-25476204D01*
X38949999Y-25475000D01*
X39850001Y-25475000D01*
X39874505Y-25476204D01*
G37*
G04 #@! TD.AperFunction*
G04 #@! TA.AperFunction,SMDPad,CuDef*
G36*
X37749505Y-14526204D02*
G01*
X37773773Y-14529804D01*
X37797572Y-14535765D01*
X37820671Y-14544030D01*
X37842850Y-14554520D01*
X37863893Y-14567132D01*
X37883599Y-14581747D01*
X37901777Y-14598223D01*
X37918253Y-14616401D01*
X37932868Y-14636107D01*
X37945480Y-14657150D01*
X37955970Y-14679329D01*
X37964235Y-14702428D01*
X37970196Y-14726227D01*
X37973796Y-14750495D01*
X37975000Y-14774999D01*
X37975000Y-15425001D01*
X37973796Y-15449505D01*
X37970196Y-15473773D01*
X37964235Y-15497572D01*
X37955970Y-15520671D01*
X37945480Y-15542850D01*
X37932868Y-15563893D01*
X37918253Y-15583599D01*
X37901777Y-15601777D01*
X37883599Y-15618253D01*
X37863893Y-15632868D01*
X37842850Y-15645480D01*
X37820671Y-15655970D01*
X37797572Y-15664235D01*
X37773773Y-15670196D01*
X37749505Y-15673796D01*
X37725001Y-15675000D01*
X36824999Y-15675000D01*
X36800495Y-15673796D01*
X36776227Y-15670196D01*
X36752428Y-15664235D01*
X36729329Y-15655970D01*
X36707150Y-15645480D01*
X36686107Y-15632868D01*
X36666401Y-15618253D01*
X36648223Y-15601777D01*
X36631747Y-15583599D01*
X36617132Y-15563893D01*
X36604520Y-15542850D01*
X36594030Y-15520671D01*
X36585765Y-15497572D01*
X36579804Y-15473773D01*
X36576204Y-15449505D01*
X36575000Y-15425001D01*
X36575000Y-14774999D01*
X36576204Y-14750495D01*
X36579804Y-14726227D01*
X36585765Y-14702428D01*
X36594030Y-14679329D01*
X36604520Y-14657150D01*
X36617132Y-14636107D01*
X36631747Y-14616401D01*
X36648223Y-14598223D01*
X36666401Y-14581747D01*
X36686107Y-14567132D01*
X36707150Y-14554520D01*
X36729329Y-14544030D01*
X36752428Y-14535765D01*
X36776227Y-14529804D01*
X36800495Y-14526204D01*
X36824999Y-14525000D01*
X37725001Y-14525000D01*
X37749505Y-14526204D01*
G37*
G04 #@! TD.AperFunction*
G04 #@! TA.AperFunction,SMDPad,CuDef*
G36*
X37749505Y-16576204D02*
G01*
X37773773Y-16579804D01*
X37797572Y-16585765D01*
X37820671Y-16594030D01*
X37842850Y-16604520D01*
X37863893Y-16617132D01*
X37883599Y-16631747D01*
X37901777Y-16648223D01*
X37918253Y-16666401D01*
X37932868Y-16686107D01*
X37945480Y-16707150D01*
X37955970Y-16729329D01*
X37964235Y-16752428D01*
X37970196Y-16776227D01*
X37973796Y-16800495D01*
X37975000Y-16824999D01*
X37975000Y-17475001D01*
X37973796Y-17499505D01*
X37970196Y-17523773D01*
X37964235Y-17547572D01*
X37955970Y-17570671D01*
X37945480Y-17592850D01*
X37932868Y-17613893D01*
X37918253Y-17633599D01*
X37901777Y-17651777D01*
X37883599Y-17668253D01*
X37863893Y-17682868D01*
X37842850Y-17695480D01*
X37820671Y-17705970D01*
X37797572Y-17714235D01*
X37773773Y-17720196D01*
X37749505Y-17723796D01*
X37725001Y-17725000D01*
X36824999Y-17725000D01*
X36800495Y-17723796D01*
X36776227Y-17720196D01*
X36752428Y-17714235D01*
X36729329Y-17705970D01*
X36707150Y-17695480D01*
X36686107Y-17682868D01*
X36666401Y-17668253D01*
X36648223Y-17651777D01*
X36631747Y-17633599D01*
X36617132Y-17613893D01*
X36604520Y-17592850D01*
X36594030Y-17570671D01*
X36585765Y-17547572D01*
X36579804Y-17523773D01*
X36576204Y-17499505D01*
X36575000Y-17475001D01*
X36575000Y-16824999D01*
X36576204Y-16800495D01*
X36579804Y-16776227D01*
X36585765Y-16752428D01*
X36594030Y-16729329D01*
X36604520Y-16707150D01*
X36617132Y-16686107D01*
X36631747Y-16666401D01*
X36648223Y-16648223D01*
X36666401Y-16631747D01*
X36686107Y-16617132D01*
X36707150Y-16604520D01*
X36729329Y-16594030D01*
X36752428Y-16585765D01*
X36776227Y-16579804D01*
X36800495Y-16576204D01*
X36824999Y-16575000D01*
X37725001Y-16575000D01*
X37749505Y-16576204D01*
G37*
G04 #@! TD.AperFunction*
G04 #@! TA.AperFunction,SMDPad,CuDef*
G36*
X37374505Y-27526204D02*
G01*
X37398773Y-27529804D01*
X37422572Y-27535765D01*
X37445671Y-27544030D01*
X37467850Y-27554520D01*
X37488893Y-27567132D01*
X37508599Y-27581747D01*
X37526777Y-27598223D01*
X37543253Y-27616401D01*
X37557868Y-27636107D01*
X37570480Y-27657150D01*
X37580970Y-27679329D01*
X37589235Y-27702428D01*
X37595196Y-27726227D01*
X37598796Y-27750495D01*
X37600000Y-27774999D01*
X37600000Y-28425001D01*
X37598796Y-28449505D01*
X37595196Y-28473773D01*
X37589235Y-28497572D01*
X37580970Y-28520671D01*
X37570480Y-28542850D01*
X37557868Y-28563893D01*
X37543253Y-28583599D01*
X37526777Y-28601777D01*
X37508599Y-28618253D01*
X37488893Y-28632868D01*
X37467850Y-28645480D01*
X37445671Y-28655970D01*
X37422572Y-28664235D01*
X37398773Y-28670196D01*
X37374505Y-28673796D01*
X37350001Y-28675000D01*
X36449999Y-28675000D01*
X36425495Y-28673796D01*
X36401227Y-28670196D01*
X36377428Y-28664235D01*
X36354329Y-28655970D01*
X36332150Y-28645480D01*
X36311107Y-28632868D01*
X36291401Y-28618253D01*
X36273223Y-28601777D01*
X36256747Y-28583599D01*
X36242132Y-28563893D01*
X36229520Y-28542850D01*
X36219030Y-28520671D01*
X36210765Y-28497572D01*
X36204804Y-28473773D01*
X36201204Y-28449505D01*
X36200000Y-28425001D01*
X36200000Y-27774999D01*
X36201204Y-27750495D01*
X36204804Y-27726227D01*
X36210765Y-27702428D01*
X36219030Y-27679329D01*
X36229520Y-27657150D01*
X36242132Y-27636107D01*
X36256747Y-27616401D01*
X36273223Y-27598223D01*
X36291401Y-27581747D01*
X36311107Y-27567132D01*
X36332150Y-27554520D01*
X36354329Y-27544030D01*
X36377428Y-27535765D01*
X36401227Y-27529804D01*
X36425495Y-27526204D01*
X36449999Y-27525000D01*
X37350001Y-27525000D01*
X37374505Y-27526204D01*
G37*
G04 #@! TD.AperFunction*
G04 #@! TA.AperFunction,SMDPad,CuDef*
G36*
X37374505Y-25476204D02*
G01*
X37398773Y-25479804D01*
X37422572Y-25485765D01*
X37445671Y-25494030D01*
X37467850Y-25504520D01*
X37488893Y-25517132D01*
X37508599Y-25531747D01*
X37526777Y-25548223D01*
X37543253Y-25566401D01*
X37557868Y-25586107D01*
X37570480Y-25607150D01*
X37580970Y-25629329D01*
X37589235Y-25652428D01*
X37595196Y-25676227D01*
X37598796Y-25700495D01*
X37600000Y-25724999D01*
X37600000Y-26375001D01*
X37598796Y-26399505D01*
X37595196Y-26423773D01*
X37589235Y-26447572D01*
X37580970Y-26470671D01*
X37570480Y-26492850D01*
X37557868Y-26513893D01*
X37543253Y-26533599D01*
X37526777Y-26551777D01*
X37508599Y-26568253D01*
X37488893Y-26582868D01*
X37467850Y-26595480D01*
X37445671Y-26605970D01*
X37422572Y-26614235D01*
X37398773Y-26620196D01*
X37374505Y-26623796D01*
X37350001Y-26625000D01*
X36449999Y-26625000D01*
X36425495Y-26623796D01*
X36401227Y-26620196D01*
X36377428Y-26614235D01*
X36354329Y-26605970D01*
X36332150Y-26595480D01*
X36311107Y-26582868D01*
X36291401Y-26568253D01*
X36273223Y-26551777D01*
X36256747Y-26533599D01*
X36242132Y-26513893D01*
X36229520Y-26492850D01*
X36219030Y-26470671D01*
X36210765Y-26447572D01*
X36204804Y-26423773D01*
X36201204Y-26399505D01*
X36200000Y-26375001D01*
X36200000Y-25724999D01*
X36201204Y-25700495D01*
X36204804Y-25676227D01*
X36210765Y-25652428D01*
X36219030Y-25629329D01*
X36229520Y-25607150D01*
X36242132Y-25586107D01*
X36256747Y-25566401D01*
X36273223Y-25548223D01*
X36291401Y-25531747D01*
X36311107Y-25517132D01*
X36332150Y-25504520D01*
X36354329Y-25494030D01*
X36377428Y-25485765D01*
X36401227Y-25479804D01*
X36425495Y-25476204D01*
X36449999Y-25475000D01*
X37350001Y-25475000D01*
X37374505Y-25476204D01*
G37*
G04 #@! TD.AperFunction*
G04 #@! TA.AperFunction,SMDPad,CuDef*
G36*
X35374505Y-14501204D02*
G01*
X35398773Y-14504804D01*
X35422572Y-14510765D01*
X35445671Y-14519030D01*
X35467850Y-14529520D01*
X35488893Y-14542132D01*
X35508599Y-14556747D01*
X35526777Y-14573223D01*
X35543253Y-14591401D01*
X35557868Y-14611107D01*
X35570480Y-14632150D01*
X35580970Y-14654329D01*
X35589235Y-14677428D01*
X35595196Y-14701227D01*
X35598796Y-14725495D01*
X35600000Y-14749999D01*
X35600000Y-15400001D01*
X35598796Y-15424505D01*
X35595196Y-15448773D01*
X35589235Y-15472572D01*
X35580970Y-15495671D01*
X35570480Y-15517850D01*
X35557868Y-15538893D01*
X35543253Y-15558599D01*
X35526777Y-15576777D01*
X35508599Y-15593253D01*
X35488893Y-15607868D01*
X35467850Y-15620480D01*
X35445671Y-15630970D01*
X35422572Y-15639235D01*
X35398773Y-15645196D01*
X35374505Y-15648796D01*
X35350001Y-15650000D01*
X34449999Y-15650000D01*
X34425495Y-15648796D01*
X34401227Y-15645196D01*
X34377428Y-15639235D01*
X34354329Y-15630970D01*
X34332150Y-15620480D01*
X34311107Y-15607868D01*
X34291401Y-15593253D01*
X34273223Y-15576777D01*
X34256747Y-15558599D01*
X34242132Y-15538893D01*
X34229520Y-15517850D01*
X34219030Y-15495671D01*
X34210765Y-15472572D01*
X34204804Y-15448773D01*
X34201204Y-15424505D01*
X34200000Y-15400001D01*
X34200000Y-14749999D01*
X34201204Y-14725495D01*
X34204804Y-14701227D01*
X34210765Y-14677428D01*
X34219030Y-14654329D01*
X34229520Y-14632150D01*
X34242132Y-14611107D01*
X34256747Y-14591401D01*
X34273223Y-14573223D01*
X34291401Y-14556747D01*
X34311107Y-14542132D01*
X34332150Y-14529520D01*
X34354329Y-14519030D01*
X34377428Y-14510765D01*
X34401227Y-14504804D01*
X34425495Y-14501204D01*
X34449999Y-14500000D01*
X35350001Y-14500000D01*
X35374505Y-14501204D01*
G37*
G04 #@! TD.AperFunction*
G04 #@! TA.AperFunction,SMDPad,CuDef*
G36*
X35374505Y-16551204D02*
G01*
X35398773Y-16554804D01*
X35422572Y-16560765D01*
X35445671Y-16569030D01*
X35467850Y-16579520D01*
X35488893Y-16592132D01*
X35508599Y-16606747D01*
X35526777Y-16623223D01*
X35543253Y-16641401D01*
X35557868Y-16661107D01*
X35570480Y-16682150D01*
X35580970Y-16704329D01*
X35589235Y-16727428D01*
X35595196Y-16751227D01*
X35598796Y-16775495D01*
X35600000Y-16799999D01*
X35600000Y-17450001D01*
X35598796Y-17474505D01*
X35595196Y-17498773D01*
X35589235Y-17522572D01*
X35580970Y-17545671D01*
X35570480Y-17567850D01*
X35557868Y-17588893D01*
X35543253Y-17608599D01*
X35526777Y-17626777D01*
X35508599Y-17643253D01*
X35488893Y-17657868D01*
X35467850Y-17670480D01*
X35445671Y-17680970D01*
X35422572Y-17689235D01*
X35398773Y-17695196D01*
X35374505Y-17698796D01*
X35350001Y-17700000D01*
X34449999Y-17700000D01*
X34425495Y-17698796D01*
X34401227Y-17695196D01*
X34377428Y-17689235D01*
X34354329Y-17680970D01*
X34332150Y-17670480D01*
X34311107Y-17657868D01*
X34291401Y-17643253D01*
X34273223Y-17626777D01*
X34256747Y-17608599D01*
X34242132Y-17588893D01*
X34229520Y-17567850D01*
X34219030Y-17545671D01*
X34210765Y-17522572D01*
X34204804Y-17498773D01*
X34201204Y-17474505D01*
X34200000Y-17450001D01*
X34200000Y-16799999D01*
X34201204Y-16775495D01*
X34204804Y-16751227D01*
X34210765Y-16727428D01*
X34219030Y-16704329D01*
X34229520Y-16682150D01*
X34242132Y-16661107D01*
X34256747Y-16641401D01*
X34273223Y-16623223D01*
X34291401Y-16606747D01*
X34311107Y-16592132D01*
X34332150Y-16579520D01*
X34354329Y-16569030D01*
X34377428Y-16560765D01*
X34401227Y-16554804D01*
X34425495Y-16551204D01*
X34449999Y-16550000D01*
X35350001Y-16550000D01*
X35374505Y-16551204D01*
G37*
G04 #@! TD.AperFunction*
G04 #@! TA.AperFunction,SMDPad,CuDef*
G36*
X34724505Y-27526204D02*
G01*
X34748773Y-27529804D01*
X34772572Y-27535765D01*
X34795671Y-27544030D01*
X34817850Y-27554520D01*
X34838893Y-27567132D01*
X34858599Y-27581747D01*
X34876777Y-27598223D01*
X34893253Y-27616401D01*
X34907868Y-27636107D01*
X34920480Y-27657150D01*
X34930970Y-27679329D01*
X34939235Y-27702428D01*
X34945196Y-27726227D01*
X34948796Y-27750495D01*
X34950000Y-27774999D01*
X34950000Y-28425001D01*
X34948796Y-28449505D01*
X34945196Y-28473773D01*
X34939235Y-28497572D01*
X34930970Y-28520671D01*
X34920480Y-28542850D01*
X34907868Y-28563893D01*
X34893253Y-28583599D01*
X34876777Y-28601777D01*
X34858599Y-28618253D01*
X34838893Y-28632868D01*
X34817850Y-28645480D01*
X34795671Y-28655970D01*
X34772572Y-28664235D01*
X34748773Y-28670196D01*
X34724505Y-28673796D01*
X34700001Y-28675000D01*
X33799999Y-28675000D01*
X33775495Y-28673796D01*
X33751227Y-28670196D01*
X33727428Y-28664235D01*
X33704329Y-28655970D01*
X33682150Y-28645480D01*
X33661107Y-28632868D01*
X33641401Y-28618253D01*
X33623223Y-28601777D01*
X33606747Y-28583599D01*
X33592132Y-28563893D01*
X33579520Y-28542850D01*
X33569030Y-28520671D01*
X33560765Y-28497572D01*
X33554804Y-28473773D01*
X33551204Y-28449505D01*
X33550000Y-28425001D01*
X33550000Y-27774999D01*
X33551204Y-27750495D01*
X33554804Y-27726227D01*
X33560765Y-27702428D01*
X33569030Y-27679329D01*
X33579520Y-27657150D01*
X33592132Y-27636107D01*
X33606747Y-27616401D01*
X33623223Y-27598223D01*
X33641401Y-27581747D01*
X33661107Y-27567132D01*
X33682150Y-27554520D01*
X33704329Y-27544030D01*
X33727428Y-27535765D01*
X33751227Y-27529804D01*
X33775495Y-27526204D01*
X33799999Y-27525000D01*
X34700001Y-27525000D01*
X34724505Y-27526204D01*
G37*
G04 #@! TD.AperFunction*
G04 #@! TA.AperFunction,SMDPad,CuDef*
G36*
X34724505Y-25476204D02*
G01*
X34748773Y-25479804D01*
X34772572Y-25485765D01*
X34795671Y-25494030D01*
X34817850Y-25504520D01*
X34838893Y-25517132D01*
X34858599Y-25531747D01*
X34876777Y-25548223D01*
X34893253Y-25566401D01*
X34907868Y-25586107D01*
X34920480Y-25607150D01*
X34930970Y-25629329D01*
X34939235Y-25652428D01*
X34945196Y-25676227D01*
X34948796Y-25700495D01*
X34950000Y-25724999D01*
X34950000Y-26375001D01*
X34948796Y-26399505D01*
X34945196Y-26423773D01*
X34939235Y-26447572D01*
X34930970Y-26470671D01*
X34920480Y-26492850D01*
X34907868Y-26513893D01*
X34893253Y-26533599D01*
X34876777Y-26551777D01*
X34858599Y-26568253D01*
X34838893Y-26582868D01*
X34817850Y-26595480D01*
X34795671Y-26605970D01*
X34772572Y-26614235D01*
X34748773Y-26620196D01*
X34724505Y-26623796D01*
X34700001Y-26625000D01*
X33799999Y-26625000D01*
X33775495Y-26623796D01*
X33751227Y-26620196D01*
X33727428Y-26614235D01*
X33704329Y-26605970D01*
X33682150Y-26595480D01*
X33661107Y-26582868D01*
X33641401Y-26568253D01*
X33623223Y-26551777D01*
X33606747Y-26533599D01*
X33592132Y-26513893D01*
X33579520Y-26492850D01*
X33569030Y-26470671D01*
X33560765Y-26447572D01*
X33554804Y-26423773D01*
X33551204Y-26399505D01*
X33550000Y-26375001D01*
X33550000Y-25724999D01*
X33551204Y-25700495D01*
X33554804Y-25676227D01*
X33560765Y-25652428D01*
X33569030Y-25629329D01*
X33579520Y-25607150D01*
X33592132Y-25586107D01*
X33606747Y-25566401D01*
X33623223Y-25548223D01*
X33641401Y-25531747D01*
X33661107Y-25517132D01*
X33682150Y-25504520D01*
X33704329Y-25494030D01*
X33727428Y-25485765D01*
X33751227Y-25479804D01*
X33775495Y-25476204D01*
X33799999Y-25475000D01*
X34700001Y-25475000D01*
X34724505Y-25476204D01*
G37*
G04 #@! TD.AperFunction*
G04 #@! TA.AperFunction,SMDPad,CuDef*
G36*
X44574505Y-14526204D02*
G01*
X44598773Y-14529804D01*
X44622572Y-14535765D01*
X44645671Y-14544030D01*
X44667850Y-14554520D01*
X44688893Y-14567132D01*
X44708599Y-14581747D01*
X44726777Y-14598223D01*
X44743253Y-14616401D01*
X44757868Y-14636107D01*
X44770480Y-14657150D01*
X44780970Y-14679329D01*
X44789235Y-14702428D01*
X44795196Y-14726227D01*
X44798796Y-14750495D01*
X44800000Y-14774999D01*
X44800000Y-15425001D01*
X44798796Y-15449505D01*
X44795196Y-15473773D01*
X44789235Y-15497572D01*
X44780970Y-15520671D01*
X44770480Y-15542850D01*
X44757868Y-15563893D01*
X44743253Y-15583599D01*
X44726777Y-15601777D01*
X44708599Y-15618253D01*
X44688893Y-15632868D01*
X44667850Y-15645480D01*
X44645671Y-15655970D01*
X44622572Y-15664235D01*
X44598773Y-15670196D01*
X44574505Y-15673796D01*
X44550001Y-15675000D01*
X43649999Y-15675000D01*
X43625495Y-15673796D01*
X43601227Y-15670196D01*
X43577428Y-15664235D01*
X43554329Y-15655970D01*
X43532150Y-15645480D01*
X43511107Y-15632868D01*
X43491401Y-15618253D01*
X43473223Y-15601777D01*
X43456747Y-15583599D01*
X43442132Y-15563893D01*
X43429520Y-15542850D01*
X43419030Y-15520671D01*
X43410765Y-15497572D01*
X43404804Y-15473773D01*
X43401204Y-15449505D01*
X43400000Y-15425001D01*
X43400000Y-14774999D01*
X43401204Y-14750495D01*
X43404804Y-14726227D01*
X43410765Y-14702428D01*
X43419030Y-14679329D01*
X43429520Y-14657150D01*
X43442132Y-14636107D01*
X43456747Y-14616401D01*
X43473223Y-14598223D01*
X43491401Y-14581747D01*
X43511107Y-14567132D01*
X43532150Y-14554520D01*
X43554329Y-14544030D01*
X43577428Y-14535765D01*
X43601227Y-14529804D01*
X43625495Y-14526204D01*
X43649999Y-14525000D01*
X44550001Y-14525000D01*
X44574505Y-14526204D01*
G37*
G04 #@! TD.AperFunction*
G04 #@! TA.AperFunction,SMDPad,CuDef*
G36*
X44574505Y-16576204D02*
G01*
X44598773Y-16579804D01*
X44622572Y-16585765D01*
X44645671Y-16594030D01*
X44667850Y-16604520D01*
X44688893Y-16617132D01*
X44708599Y-16631747D01*
X44726777Y-16648223D01*
X44743253Y-16666401D01*
X44757868Y-16686107D01*
X44770480Y-16707150D01*
X44780970Y-16729329D01*
X44789235Y-16752428D01*
X44795196Y-16776227D01*
X44798796Y-16800495D01*
X44800000Y-16824999D01*
X44800000Y-17475001D01*
X44798796Y-17499505D01*
X44795196Y-17523773D01*
X44789235Y-17547572D01*
X44780970Y-17570671D01*
X44770480Y-17592850D01*
X44757868Y-17613893D01*
X44743253Y-17633599D01*
X44726777Y-17651777D01*
X44708599Y-17668253D01*
X44688893Y-17682868D01*
X44667850Y-17695480D01*
X44645671Y-17705970D01*
X44622572Y-17714235D01*
X44598773Y-17720196D01*
X44574505Y-17723796D01*
X44550001Y-17725000D01*
X43649999Y-17725000D01*
X43625495Y-17723796D01*
X43601227Y-17720196D01*
X43577428Y-17714235D01*
X43554329Y-17705970D01*
X43532150Y-17695480D01*
X43511107Y-17682868D01*
X43491401Y-17668253D01*
X43473223Y-17651777D01*
X43456747Y-17633599D01*
X43442132Y-17613893D01*
X43429520Y-17592850D01*
X43419030Y-17570671D01*
X43410765Y-17547572D01*
X43404804Y-17523773D01*
X43401204Y-17499505D01*
X43400000Y-17475001D01*
X43400000Y-16824999D01*
X43401204Y-16800495D01*
X43404804Y-16776227D01*
X43410765Y-16752428D01*
X43419030Y-16729329D01*
X43429520Y-16707150D01*
X43442132Y-16686107D01*
X43456747Y-16666401D01*
X43473223Y-16648223D01*
X43491401Y-16631747D01*
X43511107Y-16617132D01*
X43532150Y-16604520D01*
X43554329Y-16594030D01*
X43577428Y-16585765D01*
X43601227Y-16579804D01*
X43625495Y-16576204D01*
X43649999Y-16575000D01*
X44550001Y-16575000D01*
X44574505Y-16576204D01*
G37*
G04 #@! TD.AperFunction*
G04 #@! TA.AperFunction,SMDPad,CuDef*
G36*
X47774505Y-14451204D02*
G01*
X47798773Y-14454804D01*
X47822572Y-14460765D01*
X47845671Y-14469030D01*
X47867850Y-14479520D01*
X47888893Y-14492132D01*
X47908599Y-14506747D01*
X47926777Y-14523223D01*
X47943253Y-14541401D01*
X47957868Y-14561107D01*
X47970480Y-14582150D01*
X47980970Y-14604329D01*
X47989235Y-14627428D01*
X47995196Y-14651227D01*
X47998796Y-14675495D01*
X48000000Y-14699999D01*
X48000000Y-15350001D01*
X47998796Y-15374505D01*
X47995196Y-15398773D01*
X47989235Y-15422572D01*
X47980970Y-15445671D01*
X47970480Y-15467850D01*
X47957868Y-15488893D01*
X47943253Y-15508599D01*
X47926777Y-15526777D01*
X47908599Y-15543253D01*
X47888893Y-15557868D01*
X47867850Y-15570480D01*
X47845671Y-15580970D01*
X47822572Y-15589235D01*
X47798773Y-15595196D01*
X47774505Y-15598796D01*
X47750001Y-15600000D01*
X46849999Y-15600000D01*
X46825495Y-15598796D01*
X46801227Y-15595196D01*
X46777428Y-15589235D01*
X46754329Y-15580970D01*
X46732150Y-15570480D01*
X46711107Y-15557868D01*
X46691401Y-15543253D01*
X46673223Y-15526777D01*
X46656747Y-15508599D01*
X46642132Y-15488893D01*
X46629520Y-15467850D01*
X46619030Y-15445671D01*
X46610765Y-15422572D01*
X46604804Y-15398773D01*
X46601204Y-15374505D01*
X46600000Y-15350001D01*
X46600000Y-14699999D01*
X46601204Y-14675495D01*
X46604804Y-14651227D01*
X46610765Y-14627428D01*
X46619030Y-14604329D01*
X46629520Y-14582150D01*
X46642132Y-14561107D01*
X46656747Y-14541401D01*
X46673223Y-14523223D01*
X46691401Y-14506747D01*
X46711107Y-14492132D01*
X46732150Y-14479520D01*
X46754329Y-14469030D01*
X46777428Y-14460765D01*
X46801227Y-14454804D01*
X46825495Y-14451204D01*
X46849999Y-14450000D01*
X47750001Y-14450000D01*
X47774505Y-14451204D01*
G37*
G04 #@! TD.AperFunction*
G04 #@! TA.AperFunction,SMDPad,CuDef*
G36*
X47774505Y-16501204D02*
G01*
X47798773Y-16504804D01*
X47822572Y-16510765D01*
X47845671Y-16519030D01*
X47867850Y-16529520D01*
X47888893Y-16542132D01*
X47908599Y-16556747D01*
X47926777Y-16573223D01*
X47943253Y-16591401D01*
X47957868Y-16611107D01*
X47970480Y-16632150D01*
X47980970Y-16654329D01*
X47989235Y-16677428D01*
X47995196Y-16701227D01*
X47998796Y-16725495D01*
X48000000Y-16749999D01*
X48000000Y-17400001D01*
X47998796Y-17424505D01*
X47995196Y-17448773D01*
X47989235Y-17472572D01*
X47980970Y-17495671D01*
X47970480Y-17517850D01*
X47957868Y-17538893D01*
X47943253Y-17558599D01*
X47926777Y-17576777D01*
X47908599Y-17593253D01*
X47888893Y-17607868D01*
X47867850Y-17620480D01*
X47845671Y-17630970D01*
X47822572Y-17639235D01*
X47798773Y-17645196D01*
X47774505Y-17648796D01*
X47750001Y-17650000D01*
X46849999Y-17650000D01*
X46825495Y-17648796D01*
X46801227Y-17645196D01*
X46777428Y-17639235D01*
X46754329Y-17630970D01*
X46732150Y-17620480D01*
X46711107Y-17607868D01*
X46691401Y-17593253D01*
X46673223Y-17576777D01*
X46656747Y-17558599D01*
X46642132Y-17538893D01*
X46629520Y-17517850D01*
X46619030Y-17495671D01*
X46610765Y-17472572D01*
X46604804Y-17448773D01*
X46601204Y-17424505D01*
X46600000Y-17400001D01*
X46600000Y-16749999D01*
X46601204Y-16725495D01*
X46604804Y-16701227D01*
X46610765Y-16677428D01*
X46619030Y-16654329D01*
X46629520Y-16632150D01*
X46642132Y-16611107D01*
X46656747Y-16591401D01*
X46673223Y-16573223D01*
X46691401Y-16556747D01*
X46711107Y-16542132D01*
X46732150Y-16529520D01*
X46754329Y-16519030D01*
X46777428Y-16510765D01*
X46801227Y-16504804D01*
X46825495Y-16501204D01*
X46849999Y-16500000D01*
X47750001Y-16500000D01*
X47774505Y-16501204D01*
G37*
G04 #@! TD.AperFunction*
G04 #@! TA.AperFunction,SMDPad,CuDef*
G36*
X51274505Y-14526204D02*
G01*
X51298773Y-14529804D01*
X51322572Y-14535765D01*
X51345671Y-14544030D01*
X51367850Y-14554520D01*
X51388893Y-14567132D01*
X51408599Y-14581747D01*
X51426777Y-14598223D01*
X51443253Y-14616401D01*
X51457868Y-14636107D01*
X51470480Y-14657150D01*
X51480970Y-14679329D01*
X51489235Y-14702428D01*
X51495196Y-14726227D01*
X51498796Y-14750495D01*
X51500000Y-14774999D01*
X51500000Y-15425001D01*
X51498796Y-15449505D01*
X51495196Y-15473773D01*
X51489235Y-15497572D01*
X51480970Y-15520671D01*
X51470480Y-15542850D01*
X51457868Y-15563893D01*
X51443253Y-15583599D01*
X51426777Y-15601777D01*
X51408599Y-15618253D01*
X51388893Y-15632868D01*
X51367850Y-15645480D01*
X51345671Y-15655970D01*
X51322572Y-15664235D01*
X51298773Y-15670196D01*
X51274505Y-15673796D01*
X51250001Y-15675000D01*
X50349999Y-15675000D01*
X50325495Y-15673796D01*
X50301227Y-15670196D01*
X50277428Y-15664235D01*
X50254329Y-15655970D01*
X50232150Y-15645480D01*
X50211107Y-15632868D01*
X50191401Y-15618253D01*
X50173223Y-15601777D01*
X50156747Y-15583599D01*
X50142132Y-15563893D01*
X50129520Y-15542850D01*
X50119030Y-15520671D01*
X50110765Y-15497572D01*
X50104804Y-15473773D01*
X50101204Y-15449505D01*
X50100000Y-15425001D01*
X50100000Y-14774999D01*
X50101204Y-14750495D01*
X50104804Y-14726227D01*
X50110765Y-14702428D01*
X50119030Y-14679329D01*
X50129520Y-14657150D01*
X50142132Y-14636107D01*
X50156747Y-14616401D01*
X50173223Y-14598223D01*
X50191401Y-14581747D01*
X50211107Y-14567132D01*
X50232150Y-14554520D01*
X50254329Y-14544030D01*
X50277428Y-14535765D01*
X50301227Y-14529804D01*
X50325495Y-14526204D01*
X50349999Y-14525000D01*
X51250001Y-14525000D01*
X51274505Y-14526204D01*
G37*
G04 #@! TD.AperFunction*
G04 #@! TA.AperFunction,SMDPad,CuDef*
G36*
X51274505Y-16576204D02*
G01*
X51298773Y-16579804D01*
X51322572Y-16585765D01*
X51345671Y-16594030D01*
X51367850Y-16604520D01*
X51388893Y-16617132D01*
X51408599Y-16631747D01*
X51426777Y-16648223D01*
X51443253Y-16666401D01*
X51457868Y-16686107D01*
X51470480Y-16707150D01*
X51480970Y-16729329D01*
X51489235Y-16752428D01*
X51495196Y-16776227D01*
X51498796Y-16800495D01*
X51500000Y-16824999D01*
X51500000Y-17475001D01*
X51498796Y-17499505D01*
X51495196Y-17523773D01*
X51489235Y-17547572D01*
X51480970Y-17570671D01*
X51470480Y-17592850D01*
X51457868Y-17613893D01*
X51443253Y-17633599D01*
X51426777Y-17651777D01*
X51408599Y-17668253D01*
X51388893Y-17682868D01*
X51367850Y-17695480D01*
X51345671Y-17705970D01*
X51322572Y-17714235D01*
X51298773Y-17720196D01*
X51274505Y-17723796D01*
X51250001Y-17725000D01*
X50349999Y-17725000D01*
X50325495Y-17723796D01*
X50301227Y-17720196D01*
X50277428Y-17714235D01*
X50254329Y-17705970D01*
X50232150Y-17695480D01*
X50211107Y-17682868D01*
X50191401Y-17668253D01*
X50173223Y-17651777D01*
X50156747Y-17633599D01*
X50142132Y-17613893D01*
X50129520Y-17592850D01*
X50119030Y-17570671D01*
X50110765Y-17547572D01*
X50104804Y-17523773D01*
X50101204Y-17499505D01*
X50100000Y-17475001D01*
X50100000Y-16824999D01*
X50101204Y-16800495D01*
X50104804Y-16776227D01*
X50110765Y-16752428D01*
X50119030Y-16729329D01*
X50129520Y-16707150D01*
X50142132Y-16686107D01*
X50156747Y-16666401D01*
X50173223Y-16648223D01*
X50191401Y-16631747D01*
X50211107Y-16617132D01*
X50232150Y-16604520D01*
X50254329Y-16594030D01*
X50277428Y-16585765D01*
X50301227Y-16579804D01*
X50325495Y-16576204D01*
X50349999Y-16575000D01*
X51250001Y-16575000D01*
X51274505Y-16576204D01*
G37*
G04 #@! TD.AperFunction*
G04 #@! TA.AperFunction,SMDPad,CuDef*
G36*
X45324505Y-27501204D02*
G01*
X45348773Y-27504804D01*
X45372572Y-27510765D01*
X45395671Y-27519030D01*
X45417850Y-27529520D01*
X45438893Y-27542132D01*
X45458599Y-27556747D01*
X45476777Y-27573223D01*
X45493253Y-27591401D01*
X45507868Y-27611107D01*
X45520480Y-27632150D01*
X45530970Y-27654329D01*
X45539235Y-27677428D01*
X45545196Y-27701227D01*
X45548796Y-27725495D01*
X45550000Y-27749999D01*
X45550000Y-28400001D01*
X45548796Y-28424505D01*
X45545196Y-28448773D01*
X45539235Y-28472572D01*
X45530970Y-28495671D01*
X45520480Y-28517850D01*
X45507868Y-28538893D01*
X45493253Y-28558599D01*
X45476777Y-28576777D01*
X45458599Y-28593253D01*
X45438893Y-28607868D01*
X45417850Y-28620480D01*
X45395671Y-28630970D01*
X45372572Y-28639235D01*
X45348773Y-28645196D01*
X45324505Y-28648796D01*
X45300001Y-28650000D01*
X44399999Y-28650000D01*
X44375495Y-28648796D01*
X44351227Y-28645196D01*
X44327428Y-28639235D01*
X44304329Y-28630970D01*
X44282150Y-28620480D01*
X44261107Y-28607868D01*
X44241401Y-28593253D01*
X44223223Y-28576777D01*
X44206747Y-28558599D01*
X44192132Y-28538893D01*
X44179520Y-28517850D01*
X44169030Y-28495671D01*
X44160765Y-28472572D01*
X44154804Y-28448773D01*
X44151204Y-28424505D01*
X44150000Y-28400001D01*
X44150000Y-27749999D01*
X44151204Y-27725495D01*
X44154804Y-27701227D01*
X44160765Y-27677428D01*
X44169030Y-27654329D01*
X44179520Y-27632150D01*
X44192132Y-27611107D01*
X44206747Y-27591401D01*
X44223223Y-27573223D01*
X44241401Y-27556747D01*
X44261107Y-27542132D01*
X44282150Y-27529520D01*
X44304329Y-27519030D01*
X44327428Y-27510765D01*
X44351227Y-27504804D01*
X44375495Y-27501204D01*
X44399999Y-27500000D01*
X45300001Y-27500000D01*
X45324505Y-27501204D01*
G37*
G04 #@! TD.AperFunction*
G04 #@! TA.AperFunction,SMDPad,CuDef*
G36*
X45324505Y-25451204D02*
G01*
X45348773Y-25454804D01*
X45372572Y-25460765D01*
X45395671Y-25469030D01*
X45417850Y-25479520D01*
X45438893Y-25492132D01*
X45458599Y-25506747D01*
X45476777Y-25523223D01*
X45493253Y-25541401D01*
X45507868Y-25561107D01*
X45520480Y-25582150D01*
X45530970Y-25604329D01*
X45539235Y-25627428D01*
X45545196Y-25651227D01*
X45548796Y-25675495D01*
X45550000Y-25699999D01*
X45550000Y-26350001D01*
X45548796Y-26374505D01*
X45545196Y-26398773D01*
X45539235Y-26422572D01*
X45530970Y-26445671D01*
X45520480Y-26467850D01*
X45507868Y-26488893D01*
X45493253Y-26508599D01*
X45476777Y-26526777D01*
X45458599Y-26543253D01*
X45438893Y-26557868D01*
X45417850Y-26570480D01*
X45395671Y-26580970D01*
X45372572Y-26589235D01*
X45348773Y-26595196D01*
X45324505Y-26598796D01*
X45300001Y-26600000D01*
X44399999Y-26600000D01*
X44375495Y-26598796D01*
X44351227Y-26595196D01*
X44327428Y-26589235D01*
X44304329Y-26580970D01*
X44282150Y-26570480D01*
X44261107Y-26557868D01*
X44241401Y-26543253D01*
X44223223Y-26526777D01*
X44206747Y-26508599D01*
X44192132Y-26488893D01*
X44179520Y-26467850D01*
X44169030Y-26445671D01*
X44160765Y-26422572D01*
X44154804Y-26398773D01*
X44151204Y-26374505D01*
X44150000Y-26350001D01*
X44150000Y-25699999D01*
X44151204Y-25675495D01*
X44154804Y-25651227D01*
X44160765Y-25627428D01*
X44169030Y-25604329D01*
X44179520Y-25582150D01*
X44192132Y-25561107D01*
X44206747Y-25541401D01*
X44223223Y-25523223D01*
X44241401Y-25506747D01*
X44261107Y-25492132D01*
X44282150Y-25479520D01*
X44304329Y-25469030D01*
X44327428Y-25460765D01*
X44351227Y-25454804D01*
X44375495Y-25451204D01*
X44399999Y-25450000D01*
X45300001Y-25450000D01*
X45324505Y-25451204D01*
G37*
G04 #@! TD.AperFunction*
G04 #@! TA.AperFunction,SMDPad,CuDef*
G36*
X42874505Y-27526204D02*
G01*
X42898773Y-27529804D01*
X42922572Y-27535765D01*
X42945671Y-27544030D01*
X42967850Y-27554520D01*
X42988893Y-27567132D01*
X43008599Y-27581747D01*
X43026777Y-27598223D01*
X43043253Y-27616401D01*
X43057868Y-27636107D01*
X43070480Y-27657150D01*
X43080970Y-27679329D01*
X43089235Y-27702428D01*
X43095196Y-27726227D01*
X43098796Y-27750495D01*
X43100000Y-27774999D01*
X43100000Y-28425001D01*
X43098796Y-28449505D01*
X43095196Y-28473773D01*
X43089235Y-28497572D01*
X43080970Y-28520671D01*
X43070480Y-28542850D01*
X43057868Y-28563893D01*
X43043253Y-28583599D01*
X43026777Y-28601777D01*
X43008599Y-28618253D01*
X42988893Y-28632868D01*
X42967850Y-28645480D01*
X42945671Y-28655970D01*
X42922572Y-28664235D01*
X42898773Y-28670196D01*
X42874505Y-28673796D01*
X42850001Y-28675000D01*
X41949999Y-28675000D01*
X41925495Y-28673796D01*
X41901227Y-28670196D01*
X41877428Y-28664235D01*
X41854329Y-28655970D01*
X41832150Y-28645480D01*
X41811107Y-28632868D01*
X41791401Y-28618253D01*
X41773223Y-28601777D01*
X41756747Y-28583599D01*
X41742132Y-28563893D01*
X41729520Y-28542850D01*
X41719030Y-28520671D01*
X41710765Y-28497572D01*
X41704804Y-28473773D01*
X41701204Y-28449505D01*
X41700000Y-28425001D01*
X41700000Y-27774999D01*
X41701204Y-27750495D01*
X41704804Y-27726227D01*
X41710765Y-27702428D01*
X41719030Y-27679329D01*
X41729520Y-27657150D01*
X41742132Y-27636107D01*
X41756747Y-27616401D01*
X41773223Y-27598223D01*
X41791401Y-27581747D01*
X41811107Y-27567132D01*
X41832150Y-27554520D01*
X41854329Y-27544030D01*
X41877428Y-27535765D01*
X41901227Y-27529804D01*
X41925495Y-27526204D01*
X41949999Y-27525000D01*
X42850001Y-27525000D01*
X42874505Y-27526204D01*
G37*
G04 #@! TD.AperFunction*
G04 #@! TA.AperFunction,SMDPad,CuDef*
G36*
X42874505Y-25476204D02*
G01*
X42898773Y-25479804D01*
X42922572Y-25485765D01*
X42945671Y-25494030D01*
X42967850Y-25504520D01*
X42988893Y-25517132D01*
X43008599Y-25531747D01*
X43026777Y-25548223D01*
X43043253Y-25566401D01*
X43057868Y-25586107D01*
X43070480Y-25607150D01*
X43080970Y-25629329D01*
X43089235Y-25652428D01*
X43095196Y-25676227D01*
X43098796Y-25700495D01*
X43100000Y-25724999D01*
X43100000Y-26375001D01*
X43098796Y-26399505D01*
X43095196Y-26423773D01*
X43089235Y-26447572D01*
X43080970Y-26470671D01*
X43070480Y-26492850D01*
X43057868Y-26513893D01*
X43043253Y-26533599D01*
X43026777Y-26551777D01*
X43008599Y-26568253D01*
X42988893Y-26582868D01*
X42967850Y-26595480D01*
X42945671Y-26605970D01*
X42922572Y-26614235D01*
X42898773Y-26620196D01*
X42874505Y-26623796D01*
X42850001Y-26625000D01*
X41949999Y-26625000D01*
X41925495Y-26623796D01*
X41901227Y-26620196D01*
X41877428Y-26614235D01*
X41854329Y-26605970D01*
X41832150Y-26595480D01*
X41811107Y-26582868D01*
X41791401Y-26568253D01*
X41773223Y-26551777D01*
X41756747Y-26533599D01*
X41742132Y-26513893D01*
X41729520Y-26492850D01*
X41719030Y-26470671D01*
X41710765Y-26447572D01*
X41704804Y-26423773D01*
X41701204Y-26399505D01*
X41700000Y-26375001D01*
X41700000Y-25724999D01*
X41701204Y-25700495D01*
X41704804Y-25676227D01*
X41710765Y-25652428D01*
X41719030Y-25629329D01*
X41729520Y-25607150D01*
X41742132Y-25586107D01*
X41756747Y-25566401D01*
X41773223Y-25548223D01*
X41791401Y-25531747D01*
X41811107Y-25517132D01*
X41832150Y-25504520D01*
X41854329Y-25494030D01*
X41877428Y-25485765D01*
X41901227Y-25479804D01*
X41925495Y-25476204D01*
X41949999Y-25475000D01*
X42850001Y-25475000D01*
X42874505Y-25476204D01*
G37*
G04 #@! TD.AperFunction*
G04 #@! TA.AperFunction,SMDPad,CuDef*
G36*
X31274505Y-18751204D02*
G01*
X31298773Y-18754804D01*
X31322572Y-18760765D01*
X31345671Y-18769030D01*
X31367850Y-18779520D01*
X31388893Y-18792132D01*
X31408599Y-18806747D01*
X31426777Y-18823223D01*
X31443253Y-18841401D01*
X31457868Y-18861107D01*
X31470480Y-18882150D01*
X31480970Y-18904329D01*
X31489235Y-18927428D01*
X31495196Y-18951227D01*
X31498796Y-18975495D01*
X31500000Y-18999999D01*
X31500000Y-19650001D01*
X31498796Y-19674505D01*
X31495196Y-19698773D01*
X31489235Y-19722572D01*
X31480970Y-19745671D01*
X31470480Y-19767850D01*
X31457868Y-19788893D01*
X31443253Y-19808599D01*
X31426777Y-19826777D01*
X31408599Y-19843253D01*
X31388893Y-19857868D01*
X31367850Y-19870480D01*
X31345671Y-19880970D01*
X31322572Y-19889235D01*
X31298773Y-19895196D01*
X31274505Y-19898796D01*
X31250001Y-19900000D01*
X30349999Y-19900000D01*
X30325495Y-19898796D01*
X30301227Y-19895196D01*
X30277428Y-19889235D01*
X30254329Y-19880970D01*
X30232150Y-19870480D01*
X30211107Y-19857868D01*
X30191401Y-19843253D01*
X30173223Y-19826777D01*
X30156747Y-19808599D01*
X30142132Y-19788893D01*
X30129520Y-19767850D01*
X30119030Y-19745671D01*
X30110765Y-19722572D01*
X30104804Y-19698773D01*
X30101204Y-19674505D01*
X30100000Y-19650001D01*
X30100000Y-18999999D01*
X30101204Y-18975495D01*
X30104804Y-18951227D01*
X30110765Y-18927428D01*
X30119030Y-18904329D01*
X30129520Y-18882150D01*
X30142132Y-18861107D01*
X30156747Y-18841401D01*
X30173223Y-18823223D01*
X30191401Y-18806747D01*
X30211107Y-18792132D01*
X30232150Y-18779520D01*
X30254329Y-18769030D01*
X30277428Y-18760765D01*
X30301227Y-18754804D01*
X30325495Y-18751204D01*
X30349999Y-18750000D01*
X31250001Y-18750000D01*
X31274505Y-18751204D01*
G37*
G04 #@! TD.AperFunction*
G04 #@! TA.AperFunction,SMDPad,CuDef*
G36*
X31274505Y-20801204D02*
G01*
X31298773Y-20804804D01*
X31322572Y-20810765D01*
X31345671Y-20819030D01*
X31367850Y-20829520D01*
X31388893Y-20842132D01*
X31408599Y-20856747D01*
X31426777Y-20873223D01*
X31443253Y-20891401D01*
X31457868Y-20911107D01*
X31470480Y-20932150D01*
X31480970Y-20954329D01*
X31489235Y-20977428D01*
X31495196Y-21001227D01*
X31498796Y-21025495D01*
X31500000Y-21049999D01*
X31500000Y-21700001D01*
X31498796Y-21724505D01*
X31495196Y-21748773D01*
X31489235Y-21772572D01*
X31480970Y-21795671D01*
X31470480Y-21817850D01*
X31457868Y-21838893D01*
X31443253Y-21858599D01*
X31426777Y-21876777D01*
X31408599Y-21893253D01*
X31388893Y-21907868D01*
X31367850Y-21920480D01*
X31345671Y-21930970D01*
X31322572Y-21939235D01*
X31298773Y-21945196D01*
X31274505Y-21948796D01*
X31250001Y-21950000D01*
X30349999Y-21950000D01*
X30325495Y-21948796D01*
X30301227Y-21945196D01*
X30277428Y-21939235D01*
X30254329Y-21930970D01*
X30232150Y-21920480D01*
X30211107Y-21907868D01*
X30191401Y-21893253D01*
X30173223Y-21876777D01*
X30156747Y-21858599D01*
X30142132Y-21838893D01*
X30129520Y-21817850D01*
X30119030Y-21795671D01*
X30110765Y-21772572D01*
X30104804Y-21748773D01*
X30101204Y-21724505D01*
X30100000Y-21700001D01*
X30100000Y-21049999D01*
X30101204Y-21025495D01*
X30104804Y-21001227D01*
X30110765Y-20977428D01*
X30119030Y-20954329D01*
X30129520Y-20932150D01*
X30142132Y-20911107D01*
X30156747Y-20891401D01*
X30173223Y-20873223D01*
X30191401Y-20856747D01*
X30211107Y-20842132D01*
X30232150Y-20829520D01*
X30254329Y-20819030D01*
X30277428Y-20810765D01*
X30301227Y-20804804D01*
X30325495Y-20801204D01*
X30349999Y-20800000D01*
X31250001Y-20800000D01*
X31274505Y-20801204D01*
G37*
G04 #@! TD.AperFunction*
G04 #@! TA.AperFunction,SMDPad,CuDef*
G36*
X27124505Y-18751204D02*
G01*
X27148773Y-18754804D01*
X27172572Y-18760765D01*
X27195671Y-18769030D01*
X27217850Y-18779520D01*
X27238893Y-18792132D01*
X27258599Y-18806747D01*
X27276777Y-18823223D01*
X27293253Y-18841401D01*
X27307868Y-18861107D01*
X27320480Y-18882150D01*
X27330970Y-18904329D01*
X27339235Y-18927428D01*
X27345196Y-18951227D01*
X27348796Y-18975495D01*
X27350000Y-18999999D01*
X27350000Y-19650001D01*
X27348796Y-19674505D01*
X27345196Y-19698773D01*
X27339235Y-19722572D01*
X27330970Y-19745671D01*
X27320480Y-19767850D01*
X27307868Y-19788893D01*
X27293253Y-19808599D01*
X27276777Y-19826777D01*
X27258599Y-19843253D01*
X27238893Y-19857868D01*
X27217850Y-19870480D01*
X27195671Y-19880970D01*
X27172572Y-19889235D01*
X27148773Y-19895196D01*
X27124505Y-19898796D01*
X27100001Y-19900000D01*
X26199999Y-19900000D01*
X26175495Y-19898796D01*
X26151227Y-19895196D01*
X26127428Y-19889235D01*
X26104329Y-19880970D01*
X26082150Y-19870480D01*
X26061107Y-19857868D01*
X26041401Y-19843253D01*
X26023223Y-19826777D01*
X26006747Y-19808599D01*
X25992132Y-19788893D01*
X25979520Y-19767850D01*
X25969030Y-19745671D01*
X25960765Y-19722572D01*
X25954804Y-19698773D01*
X25951204Y-19674505D01*
X25950000Y-19650001D01*
X25950000Y-18999999D01*
X25951204Y-18975495D01*
X25954804Y-18951227D01*
X25960765Y-18927428D01*
X25969030Y-18904329D01*
X25979520Y-18882150D01*
X25992132Y-18861107D01*
X26006747Y-18841401D01*
X26023223Y-18823223D01*
X26041401Y-18806747D01*
X26061107Y-18792132D01*
X26082150Y-18779520D01*
X26104329Y-18769030D01*
X26127428Y-18760765D01*
X26151227Y-18754804D01*
X26175495Y-18751204D01*
X26199999Y-18750000D01*
X27100001Y-18750000D01*
X27124505Y-18751204D01*
G37*
G04 #@! TD.AperFunction*
G04 #@! TA.AperFunction,SMDPad,CuDef*
G36*
X27124505Y-20801204D02*
G01*
X27148773Y-20804804D01*
X27172572Y-20810765D01*
X27195671Y-20819030D01*
X27217850Y-20829520D01*
X27238893Y-20842132D01*
X27258599Y-20856747D01*
X27276777Y-20873223D01*
X27293253Y-20891401D01*
X27307868Y-20911107D01*
X27320480Y-20932150D01*
X27330970Y-20954329D01*
X27339235Y-20977428D01*
X27345196Y-21001227D01*
X27348796Y-21025495D01*
X27350000Y-21049999D01*
X27350000Y-21700001D01*
X27348796Y-21724505D01*
X27345196Y-21748773D01*
X27339235Y-21772572D01*
X27330970Y-21795671D01*
X27320480Y-21817850D01*
X27307868Y-21838893D01*
X27293253Y-21858599D01*
X27276777Y-21876777D01*
X27258599Y-21893253D01*
X27238893Y-21907868D01*
X27217850Y-21920480D01*
X27195671Y-21930970D01*
X27172572Y-21939235D01*
X27148773Y-21945196D01*
X27124505Y-21948796D01*
X27100001Y-21950000D01*
X26199999Y-21950000D01*
X26175495Y-21948796D01*
X26151227Y-21945196D01*
X26127428Y-21939235D01*
X26104329Y-21930970D01*
X26082150Y-21920480D01*
X26061107Y-21907868D01*
X26041401Y-21893253D01*
X26023223Y-21876777D01*
X26006747Y-21858599D01*
X25992132Y-21838893D01*
X25979520Y-21817850D01*
X25969030Y-21795671D01*
X25960765Y-21772572D01*
X25954804Y-21748773D01*
X25951204Y-21724505D01*
X25950000Y-21700001D01*
X25950000Y-21049999D01*
X25951204Y-21025495D01*
X25954804Y-21001227D01*
X25960765Y-20977428D01*
X25969030Y-20954329D01*
X25979520Y-20932150D01*
X25992132Y-20911107D01*
X26006747Y-20891401D01*
X26023223Y-20873223D01*
X26041401Y-20856747D01*
X26061107Y-20842132D01*
X26082150Y-20829520D01*
X26104329Y-20819030D01*
X26127428Y-20810765D01*
X26151227Y-20804804D01*
X26175495Y-20801204D01*
X26199999Y-20800000D01*
X27100001Y-20800000D01*
X27124505Y-20801204D01*
G37*
G04 #@! TD.AperFunction*
G04 #@! TA.AperFunction,SMDPad,CuDef*
G36*
X29174505Y-18751204D02*
G01*
X29198773Y-18754804D01*
X29222572Y-18760765D01*
X29245671Y-18769030D01*
X29267850Y-18779520D01*
X29288893Y-18792132D01*
X29308599Y-18806747D01*
X29326777Y-18823223D01*
X29343253Y-18841401D01*
X29357868Y-18861107D01*
X29370480Y-18882150D01*
X29380970Y-18904329D01*
X29389235Y-18927428D01*
X29395196Y-18951227D01*
X29398796Y-18975495D01*
X29400000Y-18999999D01*
X29400000Y-19650001D01*
X29398796Y-19674505D01*
X29395196Y-19698773D01*
X29389235Y-19722572D01*
X29380970Y-19745671D01*
X29370480Y-19767850D01*
X29357868Y-19788893D01*
X29343253Y-19808599D01*
X29326777Y-19826777D01*
X29308599Y-19843253D01*
X29288893Y-19857868D01*
X29267850Y-19870480D01*
X29245671Y-19880970D01*
X29222572Y-19889235D01*
X29198773Y-19895196D01*
X29174505Y-19898796D01*
X29150001Y-19900000D01*
X28249999Y-19900000D01*
X28225495Y-19898796D01*
X28201227Y-19895196D01*
X28177428Y-19889235D01*
X28154329Y-19880970D01*
X28132150Y-19870480D01*
X28111107Y-19857868D01*
X28091401Y-19843253D01*
X28073223Y-19826777D01*
X28056747Y-19808599D01*
X28042132Y-19788893D01*
X28029520Y-19767850D01*
X28019030Y-19745671D01*
X28010765Y-19722572D01*
X28004804Y-19698773D01*
X28001204Y-19674505D01*
X28000000Y-19650001D01*
X28000000Y-18999999D01*
X28001204Y-18975495D01*
X28004804Y-18951227D01*
X28010765Y-18927428D01*
X28019030Y-18904329D01*
X28029520Y-18882150D01*
X28042132Y-18861107D01*
X28056747Y-18841401D01*
X28073223Y-18823223D01*
X28091401Y-18806747D01*
X28111107Y-18792132D01*
X28132150Y-18779520D01*
X28154329Y-18769030D01*
X28177428Y-18760765D01*
X28201227Y-18754804D01*
X28225495Y-18751204D01*
X28249999Y-18750000D01*
X29150001Y-18750000D01*
X29174505Y-18751204D01*
G37*
G04 #@! TD.AperFunction*
G04 #@! TA.AperFunction,SMDPad,CuDef*
G36*
X29174505Y-20801204D02*
G01*
X29198773Y-20804804D01*
X29222572Y-20810765D01*
X29245671Y-20819030D01*
X29267850Y-20829520D01*
X29288893Y-20842132D01*
X29308599Y-20856747D01*
X29326777Y-20873223D01*
X29343253Y-20891401D01*
X29357868Y-20911107D01*
X29370480Y-20932150D01*
X29380970Y-20954329D01*
X29389235Y-20977428D01*
X29395196Y-21001227D01*
X29398796Y-21025495D01*
X29400000Y-21049999D01*
X29400000Y-21700001D01*
X29398796Y-21724505D01*
X29395196Y-21748773D01*
X29389235Y-21772572D01*
X29380970Y-21795671D01*
X29370480Y-21817850D01*
X29357868Y-21838893D01*
X29343253Y-21858599D01*
X29326777Y-21876777D01*
X29308599Y-21893253D01*
X29288893Y-21907868D01*
X29267850Y-21920480D01*
X29245671Y-21930970D01*
X29222572Y-21939235D01*
X29198773Y-21945196D01*
X29174505Y-21948796D01*
X29150001Y-21950000D01*
X28249999Y-21950000D01*
X28225495Y-21948796D01*
X28201227Y-21945196D01*
X28177428Y-21939235D01*
X28154329Y-21930970D01*
X28132150Y-21920480D01*
X28111107Y-21907868D01*
X28091401Y-21893253D01*
X28073223Y-21876777D01*
X28056747Y-21858599D01*
X28042132Y-21838893D01*
X28029520Y-21817850D01*
X28019030Y-21795671D01*
X28010765Y-21772572D01*
X28004804Y-21748773D01*
X28001204Y-21724505D01*
X28000000Y-21700001D01*
X28000000Y-21049999D01*
X28001204Y-21025495D01*
X28004804Y-21001227D01*
X28010765Y-20977428D01*
X28019030Y-20954329D01*
X28029520Y-20932150D01*
X28042132Y-20911107D01*
X28056747Y-20891401D01*
X28073223Y-20873223D01*
X28091401Y-20856747D01*
X28111107Y-20842132D01*
X28132150Y-20829520D01*
X28154329Y-20819030D01*
X28177428Y-20810765D01*
X28201227Y-20804804D01*
X28225495Y-20801204D01*
X28249999Y-20800000D01*
X29150001Y-20800000D01*
X29174505Y-20801204D01*
G37*
G04 #@! TD.AperFunction*
G04 #@! TA.AperFunction,SMDPad,CuDef*
G36*
X25349505Y-22801204D02*
G01*
X25373773Y-22804804D01*
X25397572Y-22810765D01*
X25420671Y-22819030D01*
X25442850Y-22829520D01*
X25463893Y-22842132D01*
X25483599Y-22856747D01*
X25501777Y-22873223D01*
X25518253Y-22891401D01*
X25532868Y-22911107D01*
X25545480Y-22932150D01*
X25555970Y-22954329D01*
X25564235Y-22977428D01*
X25570196Y-23001227D01*
X25573796Y-23025495D01*
X25575000Y-23049999D01*
X25575000Y-23950001D01*
X25573796Y-23974505D01*
X25570196Y-23998773D01*
X25564235Y-24022572D01*
X25555970Y-24045671D01*
X25545480Y-24067850D01*
X25532868Y-24088893D01*
X25518253Y-24108599D01*
X25501777Y-24126777D01*
X25483599Y-24143253D01*
X25463893Y-24157868D01*
X25442850Y-24170480D01*
X25420671Y-24180970D01*
X25397572Y-24189235D01*
X25373773Y-24195196D01*
X25349505Y-24198796D01*
X25325001Y-24200000D01*
X24674999Y-24200000D01*
X24650495Y-24198796D01*
X24626227Y-24195196D01*
X24602428Y-24189235D01*
X24579329Y-24180970D01*
X24557150Y-24170480D01*
X24536107Y-24157868D01*
X24516401Y-24143253D01*
X24498223Y-24126777D01*
X24481747Y-24108599D01*
X24467132Y-24088893D01*
X24454520Y-24067850D01*
X24444030Y-24045671D01*
X24435765Y-24022572D01*
X24429804Y-23998773D01*
X24426204Y-23974505D01*
X24425000Y-23950001D01*
X24425000Y-23049999D01*
X24426204Y-23025495D01*
X24429804Y-23001227D01*
X24435765Y-22977428D01*
X24444030Y-22954329D01*
X24454520Y-22932150D01*
X24467132Y-22911107D01*
X24481747Y-22891401D01*
X24498223Y-22873223D01*
X24516401Y-22856747D01*
X24536107Y-22842132D01*
X24557150Y-22829520D01*
X24579329Y-22819030D01*
X24602428Y-22810765D01*
X24626227Y-22804804D01*
X24650495Y-22801204D01*
X24674999Y-22800000D01*
X25325001Y-22800000D01*
X25349505Y-22801204D01*
G37*
G04 #@! TD.AperFunction*
G04 #@! TA.AperFunction,SMDPad,CuDef*
G36*
X27399505Y-22801204D02*
G01*
X27423773Y-22804804D01*
X27447572Y-22810765D01*
X27470671Y-22819030D01*
X27492850Y-22829520D01*
X27513893Y-22842132D01*
X27533599Y-22856747D01*
X27551777Y-22873223D01*
X27568253Y-22891401D01*
X27582868Y-22911107D01*
X27595480Y-22932150D01*
X27605970Y-22954329D01*
X27614235Y-22977428D01*
X27620196Y-23001227D01*
X27623796Y-23025495D01*
X27625000Y-23049999D01*
X27625000Y-23950001D01*
X27623796Y-23974505D01*
X27620196Y-23998773D01*
X27614235Y-24022572D01*
X27605970Y-24045671D01*
X27595480Y-24067850D01*
X27582868Y-24088893D01*
X27568253Y-24108599D01*
X27551777Y-24126777D01*
X27533599Y-24143253D01*
X27513893Y-24157868D01*
X27492850Y-24170480D01*
X27470671Y-24180970D01*
X27447572Y-24189235D01*
X27423773Y-24195196D01*
X27399505Y-24198796D01*
X27375001Y-24200000D01*
X26724999Y-24200000D01*
X26700495Y-24198796D01*
X26676227Y-24195196D01*
X26652428Y-24189235D01*
X26629329Y-24180970D01*
X26607150Y-24170480D01*
X26586107Y-24157868D01*
X26566401Y-24143253D01*
X26548223Y-24126777D01*
X26531747Y-24108599D01*
X26517132Y-24088893D01*
X26504520Y-24067850D01*
X26494030Y-24045671D01*
X26485765Y-24022572D01*
X26479804Y-23998773D01*
X26476204Y-23974505D01*
X26475000Y-23950001D01*
X26475000Y-23049999D01*
X26476204Y-23025495D01*
X26479804Y-23001227D01*
X26485765Y-22977428D01*
X26494030Y-22954329D01*
X26504520Y-22932150D01*
X26517132Y-22911107D01*
X26531747Y-22891401D01*
X26548223Y-22873223D01*
X26566401Y-22856747D01*
X26586107Y-22842132D01*
X26607150Y-22829520D01*
X26629329Y-22819030D01*
X26652428Y-22810765D01*
X26676227Y-22804804D01*
X26700495Y-22801204D01*
X26724999Y-22800000D01*
X27375001Y-22800000D01*
X27399505Y-22801204D01*
G37*
G04 #@! TD.AperFunction*
G04 #@! TA.AperFunction,SMDPad,CuDef*
G36*
X25274505Y-24951204D02*
G01*
X25298773Y-24954804D01*
X25322572Y-24960765D01*
X25345671Y-24969030D01*
X25367850Y-24979520D01*
X25388893Y-24992132D01*
X25408599Y-25006747D01*
X25426777Y-25023223D01*
X25443253Y-25041401D01*
X25457868Y-25061107D01*
X25470480Y-25082150D01*
X25480970Y-25104329D01*
X25489235Y-25127428D01*
X25495196Y-25151227D01*
X25498796Y-25175495D01*
X25500000Y-25199999D01*
X25500000Y-26100001D01*
X25498796Y-26124505D01*
X25495196Y-26148773D01*
X25489235Y-26172572D01*
X25480970Y-26195671D01*
X25470480Y-26217850D01*
X25457868Y-26238893D01*
X25443253Y-26258599D01*
X25426777Y-26276777D01*
X25408599Y-26293253D01*
X25388893Y-26307868D01*
X25367850Y-26320480D01*
X25345671Y-26330970D01*
X25322572Y-26339235D01*
X25298773Y-26345196D01*
X25274505Y-26348796D01*
X25250001Y-26350000D01*
X24599999Y-26350000D01*
X24575495Y-26348796D01*
X24551227Y-26345196D01*
X24527428Y-26339235D01*
X24504329Y-26330970D01*
X24482150Y-26320480D01*
X24461107Y-26307868D01*
X24441401Y-26293253D01*
X24423223Y-26276777D01*
X24406747Y-26258599D01*
X24392132Y-26238893D01*
X24379520Y-26217850D01*
X24369030Y-26195671D01*
X24360765Y-26172572D01*
X24354804Y-26148773D01*
X24351204Y-26124505D01*
X24350000Y-26100001D01*
X24350000Y-25199999D01*
X24351204Y-25175495D01*
X24354804Y-25151227D01*
X24360765Y-25127428D01*
X24369030Y-25104329D01*
X24379520Y-25082150D01*
X24392132Y-25061107D01*
X24406747Y-25041401D01*
X24423223Y-25023223D01*
X24441401Y-25006747D01*
X24461107Y-24992132D01*
X24482150Y-24979520D01*
X24504329Y-24969030D01*
X24527428Y-24960765D01*
X24551227Y-24954804D01*
X24575495Y-24951204D01*
X24599999Y-24950000D01*
X25250001Y-24950000D01*
X25274505Y-24951204D01*
G37*
G04 #@! TD.AperFunction*
G04 #@! TA.AperFunction,SMDPad,CuDef*
G36*
X27324505Y-24951204D02*
G01*
X27348773Y-24954804D01*
X27372572Y-24960765D01*
X27395671Y-24969030D01*
X27417850Y-24979520D01*
X27438893Y-24992132D01*
X27458599Y-25006747D01*
X27476777Y-25023223D01*
X27493253Y-25041401D01*
X27507868Y-25061107D01*
X27520480Y-25082150D01*
X27530970Y-25104329D01*
X27539235Y-25127428D01*
X27545196Y-25151227D01*
X27548796Y-25175495D01*
X27550000Y-25199999D01*
X27550000Y-26100001D01*
X27548796Y-26124505D01*
X27545196Y-26148773D01*
X27539235Y-26172572D01*
X27530970Y-26195671D01*
X27520480Y-26217850D01*
X27507868Y-26238893D01*
X27493253Y-26258599D01*
X27476777Y-26276777D01*
X27458599Y-26293253D01*
X27438893Y-26307868D01*
X27417850Y-26320480D01*
X27395671Y-26330970D01*
X27372572Y-26339235D01*
X27348773Y-26345196D01*
X27324505Y-26348796D01*
X27300001Y-26350000D01*
X26649999Y-26350000D01*
X26625495Y-26348796D01*
X26601227Y-26345196D01*
X26577428Y-26339235D01*
X26554329Y-26330970D01*
X26532150Y-26320480D01*
X26511107Y-26307868D01*
X26491401Y-26293253D01*
X26473223Y-26276777D01*
X26456747Y-26258599D01*
X26442132Y-26238893D01*
X26429520Y-26217850D01*
X26419030Y-26195671D01*
X26410765Y-26172572D01*
X26404804Y-26148773D01*
X26401204Y-26124505D01*
X26400000Y-26100001D01*
X26400000Y-25199999D01*
X26401204Y-25175495D01*
X26404804Y-25151227D01*
X26410765Y-25127428D01*
X26419030Y-25104329D01*
X26429520Y-25082150D01*
X26442132Y-25061107D01*
X26456747Y-25041401D01*
X26473223Y-25023223D01*
X26491401Y-25006747D01*
X26511107Y-24992132D01*
X26532150Y-24979520D01*
X26554329Y-24969030D01*
X26577428Y-24960765D01*
X26601227Y-24954804D01*
X26625495Y-24951204D01*
X26649999Y-24950000D01*
X27300001Y-24950000D01*
X27324505Y-24951204D01*
G37*
G04 #@! TD.AperFunction*
G04 #@! TA.AperFunction,SMDPad,CuDef*
G36*
X25324505Y-27151204D02*
G01*
X25348773Y-27154804D01*
X25372572Y-27160765D01*
X25395671Y-27169030D01*
X25417850Y-27179520D01*
X25438893Y-27192132D01*
X25458599Y-27206747D01*
X25476777Y-27223223D01*
X25493253Y-27241401D01*
X25507868Y-27261107D01*
X25520480Y-27282150D01*
X25530970Y-27304329D01*
X25539235Y-27327428D01*
X25545196Y-27351227D01*
X25548796Y-27375495D01*
X25550000Y-27399999D01*
X25550000Y-28300001D01*
X25548796Y-28324505D01*
X25545196Y-28348773D01*
X25539235Y-28372572D01*
X25530970Y-28395671D01*
X25520480Y-28417850D01*
X25507868Y-28438893D01*
X25493253Y-28458599D01*
X25476777Y-28476777D01*
X25458599Y-28493253D01*
X25438893Y-28507868D01*
X25417850Y-28520480D01*
X25395671Y-28530970D01*
X25372572Y-28539235D01*
X25348773Y-28545196D01*
X25324505Y-28548796D01*
X25300001Y-28550000D01*
X24649999Y-28550000D01*
X24625495Y-28548796D01*
X24601227Y-28545196D01*
X24577428Y-28539235D01*
X24554329Y-28530970D01*
X24532150Y-28520480D01*
X24511107Y-28507868D01*
X24491401Y-28493253D01*
X24473223Y-28476777D01*
X24456747Y-28458599D01*
X24442132Y-28438893D01*
X24429520Y-28417850D01*
X24419030Y-28395671D01*
X24410765Y-28372572D01*
X24404804Y-28348773D01*
X24401204Y-28324505D01*
X24400000Y-28300001D01*
X24400000Y-27399999D01*
X24401204Y-27375495D01*
X24404804Y-27351227D01*
X24410765Y-27327428D01*
X24419030Y-27304329D01*
X24429520Y-27282150D01*
X24442132Y-27261107D01*
X24456747Y-27241401D01*
X24473223Y-27223223D01*
X24491401Y-27206747D01*
X24511107Y-27192132D01*
X24532150Y-27179520D01*
X24554329Y-27169030D01*
X24577428Y-27160765D01*
X24601227Y-27154804D01*
X24625495Y-27151204D01*
X24649999Y-27150000D01*
X25300001Y-27150000D01*
X25324505Y-27151204D01*
G37*
G04 #@! TD.AperFunction*
G04 #@! TA.AperFunction,SMDPad,CuDef*
G36*
X27374505Y-27151204D02*
G01*
X27398773Y-27154804D01*
X27422572Y-27160765D01*
X27445671Y-27169030D01*
X27467850Y-27179520D01*
X27488893Y-27192132D01*
X27508599Y-27206747D01*
X27526777Y-27223223D01*
X27543253Y-27241401D01*
X27557868Y-27261107D01*
X27570480Y-27282150D01*
X27580970Y-27304329D01*
X27589235Y-27327428D01*
X27595196Y-27351227D01*
X27598796Y-27375495D01*
X27600000Y-27399999D01*
X27600000Y-28300001D01*
X27598796Y-28324505D01*
X27595196Y-28348773D01*
X27589235Y-28372572D01*
X27580970Y-28395671D01*
X27570480Y-28417850D01*
X27557868Y-28438893D01*
X27543253Y-28458599D01*
X27526777Y-28476777D01*
X27508599Y-28493253D01*
X27488893Y-28507868D01*
X27467850Y-28520480D01*
X27445671Y-28530970D01*
X27422572Y-28539235D01*
X27398773Y-28545196D01*
X27374505Y-28548796D01*
X27350001Y-28550000D01*
X26699999Y-28550000D01*
X26675495Y-28548796D01*
X26651227Y-28545196D01*
X26627428Y-28539235D01*
X26604329Y-28530970D01*
X26582150Y-28520480D01*
X26561107Y-28507868D01*
X26541401Y-28493253D01*
X26523223Y-28476777D01*
X26506747Y-28458599D01*
X26492132Y-28438893D01*
X26479520Y-28417850D01*
X26469030Y-28395671D01*
X26460765Y-28372572D01*
X26454804Y-28348773D01*
X26451204Y-28324505D01*
X26450000Y-28300001D01*
X26450000Y-27399999D01*
X26451204Y-27375495D01*
X26454804Y-27351227D01*
X26460765Y-27327428D01*
X26469030Y-27304329D01*
X26479520Y-27282150D01*
X26492132Y-27261107D01*
X26506747Y-27241401D01*
X26523223Y-27223223D01*
X26541401Y-27206747D01*
X26561107Y-27192132D01*
X26582150Y-27179520D01*
X26604329Y-27169030D01*
X26627428Y-27160765D01*
X26651227Y-27154804D01*
X26675495Y-27151204D01*
X26699999Y-27150000D01*
X27350001Y-27150000D01*
X27374505Y-27151204D01*
G37*
G04 #@! TD.AperFunction*
G04 #@! TA.AperFunction,SMDPad,CuDef*
G36*
X52399505Y-27151204D02*
G01*
X52423773Y-27154804D01*
X52447572Y-27160765D01*
X52470671Y-27169030D01*
X52492850Y-27179520D01*
X52513893Y-27192132D01*
X52533599Y-27206747D01*
X52551777Y-27223223D01*
X52568253Y-27241401D01*
X52582868Y-27261107D01*
X52595480Y-27282150D01*
X52605970Y-27304329D01*
X52614235Y-27327428D01*
X52620196Y-27351227D01*
X52623796Y-27375495D01*
X52625000Y-27399999D01*
X52625000Y-28300001D01*
X52623796Y-28324505D01*
X52620196Y-28348773D01*
X52614235Y-28372572D01*
X52605970Y-28395671D01*
X52595480Y-28417850D01*
X52582868Y-28438893D01*
X52568253Y-28458599D01*
X52551777Y-28476777D01*
X52533599Y-28493253D01*
X52513893Y-28507868D01*
X52492850Y-28520480D01*
X52470671Y-28530970D01*
X52447572Y-28539235D01*
X52423773Y-28545196D01*
X52399505Y-28548796D01*
X52375001Y-28550000D01*
X51724999Y-28550000D01*
X51700495Y-28548796D01*
X51676227Y-28545196D01*
X51652428Y-28539235D01*
X51629329Y-28530970D01*
X51607150Y-28520480D01*
X51586107Y-28507868D01*
X51566401Y-28493253D01*
X51548223Y-28476777D01*
X51531747Y-28458599D01*
X51517132Y-28438893D01*
X51504520Y-28417850D01*
X51494030Y-28395671D01*
X51485765Y-28372572D01*
X51479804Y-28348773D01*
X51476204Y-28324505D01*
X51475000Y-28300001D01*
X51475000Y-27399999D01*
X51476204Y-27375495D01*
X51479804Y-27351227D01*
X51485765Y-27327428D01*
X51494030Y-27304329D01*
X51504520Y-27282150D01*
X51517132Y-27261107D01*
X51531747Y-27241401D01*
X51548223Y-27223223D01*
X51566401Y-27206747D01*
X51586107Y-27192132D01*
X51607150Y-27179520D01*
X51629329Y-27169030D01*
X51652428Y-27160765D01*
X51676227Y-27154804D01*
X51700495Y-27151204D01*
X51724999Y-27150000D01*
X52375001Y-27150000D01*
X52399505Y-27151204D01*
G37*
G04 #@! TD.AperFunction*
G04 #@! TA.AperFunction,SMDPad,CuDef*
G36*
X54449505Y-27151204D02*
G01*
X54473773Y-27154804D01*
X54497572Y-27160765D01*
X54520671Y-27169030D01*
X54542850Y-27179520D01*
X54563893Y-27192132D01*
X54583599Y-27206747D01*
X54601777Y-27223223D01*
X54618253Y-27241401D01*
X54632868Y-27261107D01*
X54645480Y-27282150D01*
X54655970Y-27304329D01*
X54664235Y-27327428D01*
X54670196Y-27351227D01*
X54673796Y-27375495D01*
X54675000Y-27399999D01*
X54675000Y-28300001D01*
X54673796Y-28324505D01*
X54670196Y-28348773D01*
X54664235Y-28372572D01*
X54655970Y-28395671D01*
X54645480Y-28417850D01*
X54632868Y-28438893D01*
X54618253Y-28458599D01*
X54601777Y-28476777D01*
X54583599Y-28493253D01*
X54563893Y-28507868D01*
X54542850Y-28520480D01*
X54520671Y-28530970D01*
X54497572Y-28539235D01*
X54473773Y-28545196D01*
X54449505Y-28548796D01*
X54425001Y-28550000D01*
X53774999Y-28550000D01*
X53750495Y-28548796D01*
X53726227Y-28545196D01*
X53702428Y-28539235D01*
X53679329Y-28530970D01*
X53657150Y-28520480D01*
X53636107Y-28507868D01*
X53616401Y-28493253D01*
X53598223Y-28476777D01*
X53581747Y-28458599D01*
X53567132Y-28438893D01*
X53554520Y-28417850D01*
X53544030Y-28395671D01*
X53535765Y-28372572D01*
X53529804Y-28348773D01*
X53526204Y-28324505D01*
X53525000Y-28300001D01*
X53525000Y-27399999D01*
X53526204Y-27375495D01*
X53529804Y-27351227D01*
X53535765Y-27327428D01*
X53544030Y-27304329D01*
X53554520Y-27282150D01*
X53567132Y-27261107D01*
X53581747Y-27241401D01*
X53598223Y-27223223D01*
X53616401Y-27206747D01*
X53636107Y-27192132D01*
X53657150Y-27179520D01*
X53679329Y-27169030D01*
X53702428Y-27160765D01*
X53726227Y-27154804D01*
X53750495Y-27151204D01*
X53774999Y-27150000D01*
X54425001Y-27150000D01*
X54449505Y-27151204D01*
G37*
G04 #@! TD.AperFunction*
D11*
X39000000Y-24200000D03*
X56000000Y-14900000D03*
D12*
X53100000Y-23590000D03*
D13*
X53100000Y-21050000D03*
D14*
X34025000Y-21950000D03*
X37475000Y-21950000D03*
D15*
X37837500Y-21675000D03*
D16*
X33500000Y-21200000D03*
D17*
X34000000Y-20200000D03*
X34500000Y-20200000D03*
X35000000Y-20200000D03*
X35500000Y-20200000D03*
X36000000Y-20200000D03*
X36500000Y-20200000D03*
X37000000Y-20200000D03*
X37500000Y-20200000D03*
D16*
X38000000Y-21200000D03*
X38000000Y-22700000D03*
D17*
X37500000Y-23700000D03*
X37000000Y-23700000D03*
X36500000Y-23700000D03*
X36000000Y-23700000D03*
X35500000Y-23700000D03*
X35000000Y-23700000D03*
X34500000Y-23700000D03*
X34000000Y-23700000D03*
D16*
X33500000Y-22700000D03*
D15*
X37837500Y-21675000D03*
X37837500Y-22225000D03*
X33662500Y-22225000D03*
D18*
X34987500Y-22462500D03*
X36512500Y-21437500D03*
X34987500Y-21437500D03*
X36512500Y-22462500D03*
D15*
X33662500Y-21675000D03*
D19*
X22100000Y-17950000D03*
X22100000Y-25700000D03*
D20*
X32400000Y-21350000D03*
X45750000Y-18350000D03*
X39100000Y-21350000D03*
X39100000Y-22550000D03*
X43100000Y-22799996D03*
X46700000Y-22900002D03*
X42800000Y-25000000D03*
X43700000Y-25000002D03*
X49400000Y-15150000D03*
X46000000Y-15050000D03*
X42700000Y-15150000D03*
X32450002Y-22300000D03*
X48050000Y-18450000D03*
X47500000Y-25000002D03*
X51200000Y-20000000D03*
X54400000Y-19700000D03*
X54400000Y-26200000D03*
X39700000Y-21900000D03*
X52700000Y-14850000D03*
X33900000Y-18600000D03*
X42600000Y-17250002D03*
D21*
X33500000Y-21200000D02*
X33250000Y-21200000D01*
X33500000Y-21200000D02*
X33500000Y-22700000D01*
X33662500Y-21675000D02*
X37837500Y-21675000D01*
X33662500Y-22225000D02*
X37837500Y-22225000D01*
X37837500Y-21362500D02*
X38000000Y-21200000D01*
X37837500Y-21675000D02*
X37837500Y-21362500D01*
X37837500Y-22537500D02*
X38000000Y-22700000D01*
X37837500Y-22225000D02*
X37837500Y-22537500D01*
X37837500Y-21675000D02*
X37837500Y-22225000D01*
X37750000Y-21675000D02*
X37475000Y-21950000D01*
X37837500Y-21675000D02*
X37750000Y-21675000D01*
X33937500Y-21950000D02*
X33662500Y-21675000D01*
X35750000Y-21950000D02*
X33937500Y-21950000D01*
X35750000Y-21950000D02*
X37475000Y-21950000D01*
X33500000Y-21512500D02*
X33662500Y-21675000D01*
X33500000Y-21200000D02*
X33500000Y-21512500D01*
X38000000Y-23200000D02*
X37500000Y-23700000D01*
X38000000Y-22700000D02*
X38000000Y-23200000D01*
X38950000Y-21200000D02*
X39100000Y-21350000D01*
X38000000Y-21200000D02*
X38950000Y-21200000D01*
X38150000Y-22550000D02*
X38000000Y-22700000D01*
X39100000Y-22550000D02*
X38150000Y-22550000D01*
X38775000Y-21675000D02*
X39100000Y-21350000D01*
X37837500Y-21675000D02*
X38775000Y-21675000D01*
X38775000Y-22225000D02*
X39100000Y-22550000D01*
X37837500Y-22225000D02*
X38775000Y-22225000D01*
X44800000Y-22799996D02*
X43665685Y-22799996D01*
X43665685Y-22799996D02*
X43100000Y-22799996D01*
X44800000Y-22525000D02*
X44800000Y-22799996D01*
X47265685Y-22900002D02*
X46700000Y-22900002D01*
X48375002Y-22900002D02*
X47265685Y-22900002D01*
X48400000Y-22925000D02*
X48375002Y-22900002D01*
X42400001Y-25399999D02*
X42800000Y-25000000D01*
X42400000Y-26050000D02*
X42400001Y-25399999D01*
X44850000Y-26025000D02*
X44850000Y-25450000D01*
X44850000Y-25450000D02*
X44400002Y-25000002D01*
X44400002Y-25000002D02*
X44265685Y-25000002D01*
X44265685Y-25000002D02*
X43700000Y-25000002D01*
X46250000Y-14900000D02*
X46300000Y-14950000D01*
X46000000Y-15050000D02*
X47350000Y-15050000D01*
X49400000Y-15150000D02*
X50800000Y-15150000D01*
X32825000Y-21200000D02*
X32450002Y-21574998D01*
X33500000Y-21200000D02*
X32825000Y-21200000D01*
X32450002Y-21574998D02*
X32450002Y-22300000D01*
X42700000Y-15150000D02*
X43150000Y-15150000D01*
X43150000Y-15150000D02*
X44050000Y-15150000D01*
X34500000Y-19200000D02*
X33900000Y-18600000D01*
X34500000Y-20200000D02*
X34500000Y-19200000D01*
X47225000Y-17150000D02*
X47300000Y-17075000D01*
X44100000Y-17150000D02*
X47225000Y-17150000D01*
X50800000Y-17150000D02*
X51800000Y-17150000D01*
X52850000Y-16100000D02*
X53900000Y-16100000D01*
X51800000Y-17150000D02*
X52850000Y-16100000D01*
X47375000Y-17150000D02*
X50800000Y-17150000D01*
X47300000Y-17075000D02*
X47375000Y-17150000D01*
X42700002Y-17150000D02*
X44100000Y-17150000D01*
X42600000Y-17250002D02*
X42700002Y-17150000D01*
X54800000Y-16100000D02*
X56000000Y-14900000D01*
X53900000Y-16100000D02*
X54800000Y-16100000D01*
X34500000Y-25800000D02*
X34250000Y-26050000D01*
X34500000Y-23700000D02*
X34500000Y-25800000D01*
X35500000Y-24575000D02*
X37200000Y-26275000D01*
X35500000Y-23700000D02*
X35500000Y-24575000D01*
X35500000Y-19525000D02*
X35500000Y-20200000D01*
X35500000Y-18950000D02*
X35500000Y-19100000D01*
X35500000Y-19100000D02*
X35500000Y-19525000D01*
X37275000Y-17175000D02*
X37275000Y-17150000D01*
X35500000Y-18950000D02*
X37275000Y-17175000D01*
X37600000Y-24950000D02*
X38700000Y-26050000D01*
X36600000Y-24950000D02*
X37600000Y-24950000D01*
X36000000Y-24350000D02*
X36600000Y-24950000D01*
X38700000Y-26050000D02*
X39400000Y-26050000D01*
X36000000Y-23700000D02*
X36000000Y-24350000D01*
X38800000Y-18400000D02*
X39475000Y-17725000D01*
X39475000Y-17725000D02*
X39475000Y-17150000D01*
X37035000Y-18400000D02*
X38800000Y-18400000D01*
X36000000Y-19435000D02*
X37035000Y-18400000D01*
X36000000Y-20200000D02*
X36000000Y-19435000D01*
X41925000Y-23850000D02*
X40900000Y-22825000D01*
X49400000Y-23850000D02*
X41925000Y-23850000D01*
X50200000Y-23050000D02*
X49400000Y-23850000D01*
X48400000Y-19525000D02*
X48400000Y-20712500D01*
X48925020Y-18999980D02*
X48400000Y-19525000D01*
X48400000Y-20712500D02*
X49862500Y-20712500D01*
X50200000Y-21050000D02*
X50200000Y-23050000D01*
X49862500Y-20712500D02*
X50200000Y-21050000D01*
X48525000Y-19400000D02*
X48925020Y-18999980D01*
X37879013Y-18999979D02*
X38279034Y-19400000D01*
X38279034Y-19400000D02*
X48525000Y-19400000D01*
X37120987Y-18999979D02*
X37879013Y-18999979D01*
X36500000Y-19620967D02*
X37120987Y-18999979D01*
X36500000Y-20200000D02*
X36500000Y-19620967D01*
X53262500Y-18787500D02*
X53900000Y-18150000D01*
X49137500Y-18787500D02*
X53262500Y-18787500D01*
X48925020Y-18999980D02*
X49137500Y-18787500D01*
X44314473Y-20164473D02*
X44800000Y-20650000D01*
X44050000Y-19900000D02*
X44314473Y-20164473D01*
X37692613Y-19449990D02*
X38142623Y-19900000D01*
X37307387Y-19449990D02*
X37692613Y-19449990D01*
X37000000Y-19757377D02*
X37307387Y-19449990D01*
X38142623Y-19900000D02*
X44050000Y-19900000D01*
X37000000Y-20200000D02*
X37000000Y-19757377D01*
X40300011Y-20350011D02*
X40900000Y-20950000D01*
X37500000Y-20200000D02*
X37650011Y-20350011D01*
X37650011Y-20350011D02*
X40300011Y-20350011D01*
X38850000Y-24500000D02*
X39000000Y-24350000D01*
X36857377Y-24500000D02*
X38850000Y-24500000D01*
X36500000Y-24142623D02*
X36857377Y-24500000D01*
X36500000Y-23700000D02*
X36500000Y-24142623D01*
X49612500Y-25500000D02*
X51100000Y-25500000D01*
X53010000Y-23590000D02*
X53100000Y-23590000D01*
X41300000Y-28100000D02*
X47012500Y-28100000D01*
X35900000Y-27150000D02*
X40350000Y-27150000D01*
X35500000Y-26750000D02*
X35900000Y-27150000D01*
X35500000Y-25454490D02*
X35500000Y-26750000D01*
X47012500Y-28100000D02*
X49612500Y-25500000D01*
X40350000Y-27150000D02*
X41300000Y-28100000D01*
X35000000Y-24954490D02*
X35500000Y-25454490D01*
X51100000Y-25500000D02*
X53010000Y-23590000D01*
X35000000Y-23700000D02*
X35000000Y-24954490D01*
X35000000Y-17225000D02*
X34900000Y-17125000D01*
X35000000Y-20200000D02*
X35000000Y-17225000D01*
X25025000Y-27850000D02*
X24250000Y-27850000D01*
X25150000Y-27725000D02*
X25025000Y-27850000D01*
X25150000Y-23500000D02*
X25150000Y-27725000D01*
X22500000Y-27850000D02*
X24400000Y-27850000D01*
X24400000Y-27850000D02*
X24975000Y-27850000D01*
X22100000Y-27450000D02*
X22500000Y-27850000D01*
X22100000Y-25700000D02*
X22100000Y-27450000D01*
X28700000Y-23450000D02*
X28850000Y-23600000D01*
X28700000Y-21225000D02*
X28700000Y-23450000D01*
X26900000Y-27725000D02*
X26775000Y-27850000D01*
X26900000Y-23500000D02*
X26900000Y-27725000D01*
X28750000Y-23500000D02*
X26900000Y-23500000D01*
X28850000Y-23600000D02*
X28750000Y-23500000D01*
X29900000Y-23650000D02*
X28850000Y-23600000D01*
X27050000Y-21775000D02*
X26650000Y-21375000D01*
X27050000Y-23500000D02*
X27050000Y-21775000D01*
X30500000Y-23600000D02*
X29900000Y-23650000D01*
X30800000Y-23600000D02*
X30800000Y-21375000D01*
X30795715Y-23604285D02*
X30800000Y-23600000D01*
X30795715Y-23604285D02*
X30500000Y-23600000D01*
X34000000Y-24350000D02*
X34000000Y-23700000D01*
X31550000Y-24350000D02*
X34000000Y-24350000D01*
X30804285Y-23604285D02*
X31550000Y-24350000D01*
X30795715Y-23604285D02*
X30804285Y-23604285D01*
X28700000Y-17850000D02*
X28700000Y-19475000D01*
X30100000Y-17850000D02*
X28700000Y-17850000D01*
X30400000Y-17950000D02*
X30400000Y-19475000D01*
X30500000Y-17850000D02*
X30400000Y-17950000D01*
X30500000Y-17850000D02*
X30100000Y-17850000D01*
X26650000Y-18300000D02*
X26650000Y-19325000D01*
X27100000Y-17850000D02*
X26650000Y-18300000D01*
X28700000Y-17850000D02*
X27100000Y-17850000D01*
X31700000Y-17850000D02*
X30500000Y-17850000D01*
X34000000Y-20150000D02*
X31700000Y-17850000D01*
X34000000Y-20200000D02*
X34000000Y-20150000D01*
X49225000Y-27850000D02*
X52050000Y-27850000D01*
D22*
G36*
X31323022Y-23397649D02*
G01*
X31325003Y-23422466D01*
X31331788Y-23446420D01*
X31343115Y-23468590D01*
X31358550Y-23488124D01*
X31377500Y-23504272D01*
X31399235Y-23516413D01*
X31422922Y-23524080D01*
X31450000Y-23527000D01*
X33725000Y-23527000D01*
X33725000Y-24023065D01*
X33736214Y-24136926D01*
X33740000Y-24149407D01*
X33740001Y-24577893D01*
X32884659Y-25091098D01*
X32864669Y-25105938D01*
X32847958Y-25124393D01*
X32835168Y-25145753D01*
X32826792Y-25169198D01*
X32823000Y-25200000D01*
X32823000Y-26850000D01*
X32825440Y-26874776D01*
X32832667Y-26898601D01*
X32844403Y-26920557D01*
X32856680Y-26936142D01*
X33456680Y-27586142D01*
X33475278Y-27602692D01*
X33496748Y-27615296D01*
X33520265Y-27623470D01*
X33550977Y-27626996D01*
X35288826Y-27613628D01*
X35336200Y-27661002D01*
X35359999Y-27690001D01*
X35475724Y-27784974D01*
X35607753Y-27855546D01*
X35751014Y-27899003D01*
X35862667Y-27910000D01*
X35862676Y-27910000D01*
X35899999Y-27913676D01*
X35937322Y-27910000D01*
X39923000Y-27910000D01*
X39923000Y-29373461D01*
X26425560Y-29422543D01*
X26328438Y-20875794D01*
X31370604Y-20828226D01*
X31323022Y-23397649D01*
G37*
X31323022Y-23397649D02*
X31325003Y-23422466D01*
X31331788Y-23446420D01*
X31343115Y-23468590D01*
X31358550Y-23488124D01*
X31377500Y-23504272D01*
X31399235Y-23516413D01*
X31422922Y-23524080D01*
X31450000Y-23527000D01*
X33725000Y-23527000D01*
X33725000Y-24023065D01*
X33736214Y-24136926D01*
X33740000Y-24149407D01*
X33740001Y-24577893D01*
X32884659Y-25091098D01*
X32864669Y-25105938D01*
X32847958Y-25124393D01*
X32835168Y-25145753D01*
X32826792Y-25169198D01*
X32823000Y-25200000D01*
X32823000Y-26850000D01*
X32825440Y-26874776D01*
X32832667Y-26898601D01*
X32844403Y-26920557D01*
X32856680Y-26936142D01*
X33456680Y-27586142D01*
X33475278Y-27602692D01*
X33496748Y-27615296D01*
X33520265Y-27623470D01*
X33550977Y-27626996D01*
X35288826Y-27613628D01*
X35336200Y-27661002D01*
X35359999Y-27690001D01*
X35475724Y-27784974D01*
X35607753Y-27855546D01*
X35751014Y-27899003D01*
X35862667Y-27910000D01*
X35862676Y-27910000D01*
X35899999Y-27913676D01*
X35937322Y-27910000D01*
X39923000Y-27910000D01*
X39923000Y-29373461D01*
X26425560Y-29422543D01*
X26328438Y-20875794D01*
X31370604Y-20828226D01*
X31323022Y-23397649D01*
G36*
X40273000Y-15573000D02*
G01*
X33400000Y-15573000D01*
X33375224Y-15575440D01*
X33351399Y-15582667D01*
X33329443Y-15594403D01*
X33310197Y-15610197D01*
X33290091Y-15636368D01*
X32740091Y-16586368D01*
X32729789Y-16609033D01*
X32724106Y-16633272D01*
X32723049Y-16646474D01*
X32673049Y-18446474D01*
X32674800Y-18471308D01*
X32681363Y-18495324D01*
X32692485Y-18517598D01*
X32711975Y-18541546D01*
X32865000Y-18688685D01*
X32865000Y-18701939D01*
X32904774Y-18901898D01*
X32982795Y-19090256D01*
X33096063Y-19259774D01*
X33240226Y-19403937D01*
X33409744Y-19517205D01*
X33598102Y-19595226D01*
X33740001Y-19623451D01*
X33740000Y-19750592D01*
X33736214Y-19763074D01*
X33725000Y-19876935D01*
X33725000Y-19975244D01*
X20685000Y-19925607D01*
X20685000Y-13685000D01*
X40273000Y-13685000D01*
X40273000Y-15573000D01*
G37*
X40273000Y-15573000D02*
X33400000Y-15573000D01*
X33375224Y-15575440D01*
X33351399Y-15582667D01*
X33329443Y-15594403D01*
X33310197Y-15610197D01*
X33290091Y-15636368D01*
X32740091Y-16586368D01*
X32729789Y-16609033D01*
X32724106Y-16633272D01*
X32723049Y-16646474D01*
X32673049Y-18446474D01*
X32674800Y-18471308D01*
X32681363Y-18495324D01*
X32692485Y-18517598D01*
X32711975Y-18541546D01*
X32865000Y-18688685D01*
X32865000Y-18701939D01*
X32904774Y-18901898D01*
X32982795Y-19090256D01*
X33096063Y-19259774D01*
X33240226Y-19403937D01*
X33409744Y-19517205D01*
X33598102Y-19595226D01*
X33740001Y-19623451D01*
X33740000Y-19750592D01*
X33736214Y-19763074D01*
X33725000Y-19876935D01*
X33725000Y-19975244D01*
X20685000Y-19925607D01*
X20685000Y-13685000D01*
X40273000Y-13685000D01*
X40273000Y-15573000D01*
G36*
X25277129Y-28673000D02*
G01*
X20685000Y-28673000D01*
X20685000Y-22877000D01*
X25468732Y-22877000D01*
X25277129Y-28673000D01*
G37*
X25277129Y-28673000D02*
X20685000Y-28673000D01*
X20685000Y-22877000D01*
X25468732Y-22877000D01*
X25277129Y-28673000D01*
G36*
X33567350Y-21132506D02*
G01*
X33701986Y-21204470D01*
X33848074Y-21248786D01*
X34000000Y-21263749D01*
X34151925Y-21248786D01*
X34250000Y-21219035D01*
X34348074Y-21248786D01*
X34500000Y-21263749D01*
X34651925Y-21248786D01*
X34750000Y-21219035D01*
X34848074Y-21248786D01*
X35000000Y-21263749D01*
X35151925Y-21248786D01*
X35250000Y-21219035D01*
X35348074Y-21248786D01*
X35500000Y-21263749D01*
X35651925Y-21248786D01*
X35750000Y-21219035D01*
X35848074Y-21248786D01*
X36000000Y-21263749D01*
X36151925Y-21248786D01*
X36250000Y-21219035D01*
X36348074Y-21248786D01*
X36500000Y-21263749D01*
X36651925Y-21248786D01*
X36750000Y-21219035D01*
X36848074Y-21248786D01*
X37000000Y-21263749D01*
X37151925Y-21248786D01*
X37250000Y-21219035D01*
X37348074Y-21248786D01*
X37500000Y-21263749D01*
X37651925Y-21248786D01*
X37798013Y-21204470D01*
X37932649Y-21132506D01*
X37960060Y-21110011D01*
X39973000Y-21110011D01*
X39973000Y-22723000D01*
X37349406Y-22723000D01*
X37298013Y-22695530D01*
X37151925Y-22651214D01*
X37000000Y-22636251D01*
X36848074Y-22651214D01*
X36750000Y-22680965D01*
X36651925Y-22651214D01*
X36500000Y-22636251D01*
X36348074Y-22651214D01*
X36250000Y-22680965D01*
X36151925Y-22651214D01*
X36000000Y-22636251D01*
X35848074Y-22651214D01*
X35750000Y-22680965D01*
X35651925Y-22651214D01*
X35500000Y-22636251D01*
X35348074Y-22651214D01*
X35250000Y-22680965D01*
X35151925Y-22651214D01*
X35000000Y-22636251D01*
X34848074Y-22651214D01*
X34750000Y-22680965D01*
X34651925Y-22651214D01*
X34500000Y-22636251D01*
X34348074Y-22651214D01*
X34250000Y-22680965D01*
X34151925Y-22651214D01*
X34000000Y-22636251D01*
X33848074Y-22651214D01*
X33701986Y-22695530D01*
X33650593Y-22723000D01*
X32783727Y-22723000D01*
X32179480Y-22377716D01*
X32222838Y-21077000D01*
X33499715Y-21077000D01*
X33567350Y-21132506D01*
G37*
X33567350Y-21132506D02*
X33701986Y-21204470D01*
X33848074Y-21248786D01*
X34000000Y-21263749D01*
X34151925Y-21248786D01*
X34250000Y-21219035D01*
X34348074Y-21248786D01*
X34500000Y-21263749D01*
X34651925Y-21248786D01*
X34750000Y-21219035D01*
X34848074Y-21248786D01*
X35000000Y-21263749D01*
X35151925Y-21248786D01*
X35250000Y-21219035D01*
X35348074Y-21248786D01*
X35500000Y-21263749D01*
X35651925Y-21248786D01*
X35750000Y-21219035D01*
X35848074Y-21248786D01*
X36000000Y-21263749D01*
X36151925Y-21248786D01*
X36250000Y-21219035D01*
X36348074Y-21248786D01*
X36500000Y-21263749D01*
X36651925Y-21248786D01*
X36750000Y-21219035D01*
X36848074Y-21248786D01*
X37000000Y-21263749D01*
X37151925Y-21248786D01*
X37250000Y-21219035D01*
X37348074Y-21248786D01*
X37500000Y-21263749D01*
X37651925Y-21248786D01*
X37798013Y-21204470D01*
X37932649Y-21132506D01*
X37960060Y-21110011D01*
X39973000Y-21110011D01*
X39973000Y-22723000D01*
X37349406Y-22723000D01*
X37298013Y-22695530D01*
X37151925Y-22651214D01*
X37000000Y-22636251D01*
X36848074Y-22651214D01*
X36750000Y-22680965D01*
X36651925Y-22651214D01*
X36500000Y-22636251D01*
X36348074Y-22651214D01*
X36250000Y-22680965D01*
X36151925Y-22651214D01*
X36000000Y-22636251D01*
X35848074Y-22651214D01*
X35750000Y-22680965D01*
X35651925Y-22651214D01*
X35500000Y-22636251D01*
X35348074Y-22651214D01*
X35250000Y-22680965D01*
X35151925Y-22651214D01*
X35000000Y-22636251D01*
X34848074Y-22651214D01*
X34750000Y-22680965D01*
X34651925Y-22651214D01*
X34500000Y-22636251D01*
X34348074Y-22651214D01*
X34250000Y-22680965D01*
X34151925Y-22651214D01*
X34000000Y-22636251D01*
X33848074Y-22651214D01*
X33701986Y-22695530D01*
X33650593Y-22723000D01*
X32783727Y-22723000D01*
X32179480Y-22377716D01*
X32222838Y-21077000D01*
X33499715Y-21077000D01*
X33567350Y-21132506D01*
G36*
X54824311Y-14576547D02*
G01*
X54828686Y-14996512D01*
X54807686Y-15017512D01*
X54689851Y-14954528D01*
X54523255Y-14903992D01*
X54350001Y-14886928D01*
X53449999Y-14886928D01*
X53276745Y-14903992D01*
X53110149Y-14954528D01*
X52956613Y-15036595D01*
X52822038Y-15147038D01*
X52711595Y-15281613D01*
X52669379Y-15360593D01*
X52557753Y-15394454D01*
X52425724Y-15465026D01*
X52309999Y-15559999D01*
X52286201Y-15588997D01*
X51768222Y-16106977D01*
X51743387Y-16086595D01*
X51589851Y-16004528D01*
X51423255Y-15953992D01*
X51250001Y-15936928D01*
X50349999Y-15936928D01*
X50176745Y-15953992D01*
X50010149Y-16004528D01*
X49856613Y-16086595D01*
X49722038Y-16197038D01*
X49611595Y-16331613D01*
X49580386Y-16390000D01*
X48559702Y-16390000D01*
X48488405Y-16256613D01*
X48377962Y-16122038D01*
X48243387Y-16011595D01*
X48089851Y-15929528D01*
X47923255Y-15878992D01*
X47750001Y-15861928D01*
X46849999Y-15861928D01*
X46676745Y-15878992D01*
X46510149Y-15929528D01*
X46356613Y-16011595D01*
X46222038Y-16122038D01*
X46111595Y-16256613D01*
X46040298Y-16390000D01*
X45319614Y-16390000D01*
X45288405Y-16331613D01*
X45177962Y-16197038D01*
X45043387Y-16086595D01*
X44889851Y-16004528D01*
X44723255Y-15953992D01*
X44550001Y-15936928D01*
X43649999Y-15936928D01*
X43476745Y-15953992D01*
X43310149Y-16004528D01*
X43156613Y-16086595D01*
X43022038Y-16197038D01*
X42956196Y-16277267D01*
X42901898Y-16254776D01*
X42701939Y-16215002D01*
X42498061Y-16215002D01*
X42298102Y-16254776D01*
X42109744Y-16332797D01*
X41940226Y-16446065D01*
X41796063Y-16590228D01*
X41682795Y-16759746D01*
X41604774Y-16948104D01*
X41565000Y-17148063D01*
X41565000Y-17351941D01*
X41604774Y-17551900D01*
X41682795Y-17740258D01*
X41796063Y-17909776D01*
X41940226Y-18053939D01*
X42109744Y-18167207D01*
X42298102Y-18245228D01*
X42498061Y-18285002D01*
X42701939Y-18285002D01*
X42901898Y-18245228D01*
X43090256Y-18167207D01*
X43095804Y-18163500D01*
X43156613Y-18213405D01*
X43310149Y-18295472D01*
X43476745Y-18346008D01*
X43649999Y-18363072D01*
X44550001Y-18363072D01*
X44723255Y-18346008D01*
X44889851Y-18295472D01*
X45043387Y-18213405D01*
X45177962Y-18102962D01*
X45288405Y-17968387D01*
X45319614Y-17910000D01*
X46125229Y-17910000D01*
X46222038Y-18027962D01*
X46356613Y-18138405D01*
X46510149Y-18220472D01*
X46676745Y-18271008D01*
X46849999Y-18288072D01*
X47750001Y-18288072D01*
X47923255Y-18271008D01*
X48089851Y-18220472D01*
X48243387Y-18138405D01*
X48377962Y-18027962D01*
X48474771Y-17910000D01*
X49580386Y-17910000D01*
X49611595Y-17968387D01*
X49660108Y-18027500D01*
X49174822Y-18027500D01*
X49137499Y-18023824D01*
X49100176Y-18027500D01*
X49100167Y-18027500D01*
X48988514Y-18038497D01*
X48845253Y-18081954D01*
X48713224Y-18152526D01*
X48597499Y-18247499D01*
X48573696Y-18276503D01*
X48414027Y-18436172D01*
X48414016Y-18436181D01*
X48210198Y-18640000D01*
X39634801Y-18640000D01*
X39911730Y-18363072D01*
X39925001Y-18363072D01*
X40098255Y-18346008D01*
X40160916Y-18327000D01*
X41100000Y-18327000D01*
X41124776Y-18324560D01*
X41148601Y-18317333D01*
X41170557Y-18305597D01*
X41189803Y-18289803D01*
X41205597Y-18270557D01*
X41217333Y-18248601D01*
X41224560Y-18224776D01*
X41227000Y-18200000D01*
X41227000Y-14527459D01*
X54824311Y-14576547D01*
G37*
X54824311Y-14576547D02*
X54828686Y-14996512D01*
X54807686Y-15017512D01*
X54689851Y-14954528D01*
X54523255Y-14903992D01*
X54350001Y-14886928D01*
X53449999Y-14886928D01*
X53276745Y-14903992D01*
X53110149Y-14954528D01*
X52956613Y-15036595D01*
X52822038Y-15147038D01*
X52711595Y-15281613D01*
X52669379Y-15360593D01*
X52557753Y-15394454D01*
X52425724Y-15465026D01*
X52309999Y-15559999D01*
X52286201Y-15588997D01*
X51768222Y-16106977D01*
X51743387Y-16086595D01*
X51589851Y-16004528D01*
X51423255Y-15953992D01*
X51250001Y-15936928D01*
X50349999Y-15936928D01*
X50176745Y-15953992D01*
X50010149Y-16004528D01*
X49856613Y-16086595D01*
X49722038Y-16197038D01*
X49611595Y-16331613D01*
X49580386Y-16390000D01*
X48559702Y-16390000D01*
X48488405Y-16256613D01*
X48377962Y-16122038D01*
X48243387Y-16011595D01*
X48089851Y-15929528D01*
X47923255Y-15878992D01*
X47750001Y-15861928D01*
X46849999Y-15861928D01*
X46676745Y-15878992D01*
X46510149Y-15929528D01*
X46356613Y-16011595D01*
X46222038Y-16122038D01*
X46111595Y-16256613D01*
X46040298Y-16390000D01*
X45319614Y-16390000D01*
X45288405Y-16331613D01*
X45177962Y-16197038D01*
X45043387Y-16086595D01*
X44889851Y-16004528D01*
X44723255Y-15953992D01*
X44550001Y-15936928D01*
X43649999Y-15936928D01*
X43476745Y-15953992D01*
X43310149Y-16004528D01*
X43156613Y-16086595D01*
X43022038Y-16197038D01*
X42956196Y-16277267D01*
X42901898Y-16254776D01*
X42701939Y-16215002D01*
X42498061Y-16215002D01*
X42298102Y-16254776D01*
X42109744Y-16332797D01*
X41940226Y-16446065D01*
X41796063Y-16590228D01*
X41682795Y-16759746D01*
X41604774Y-16948104D01*
X41565000Y-17148063D01*
X41565000Y-17351941D01*
X41604774Y-17551900D01*
X41682795Y-17740258D01*
X41796063Y-17909776D01*
X41940226Y-18053939D01*
X42109744Y-18167207D01*
X42298102Y-18245228D01*
X42498061Y-18285002D01*
X42701939Y-18285002D01*
X42901898Y-18245228D01*
X43090256Y-18167207D01*
X43095804Y-18163500D01*
X43156613Y-18213405D01*
X43310149Y-18295472D01*
X43476745Y-18346008D01*
X43649999Y-18363072D01*
X44550001Y-18363072D01*
X44723255Y-18346008D01*
X44889851Y-18295472D01*
X45043387Y-18213405D01*
X45177962Y-18102962D01*
X45288405Y-17968387D01*
X45319614Y-17910000D01*
X46125229Y-17910000D01*
X46222038Y-18027962D01*
X46356613Y-18138405D01*
X46510149Y-18220472D01*
X46676745Y-18271008D01*
X46849999Y-18288072D01*
X47750001Y-18288072D01*
X47923255Y-18271008D01*
X48089851Y-18220472D01*
X48243387Y-18138405D01*
X48377962Y-18027962D01*
X48474771Y-17910000D01*
X49580386Y-17910000D01*
X49611595Y-17968387D01*
X49660108Y-18027500D01*
X49174822Y-18027500D01*
X49137499Y-18023824D01*
X49100176Y-18027500D01*
X49100167Y-18027500D01*
X48988514Y-18038497D01*
X48845253Y-18081954D01*
X48713224Y-18152526D01*
X48597499Y-18247499D01*
X48573696Y-18276503D01*
X48414027Y-18436172D01*
X48414016Y-18436181D01*
X48210198Y-18640000D01*
X39634801Y-18640000D01*
X39911730Y-18363072D01*
X39925001Y-18363072D01*
X40098255Y-18346008D01*
X40160916Y-18327000D01*
X41100000Y-18327000D01*
X41124776Y-18324560D01*
X41148601Y-18317333D01*
X41170557Y-18305597D01*
X41189803Y-18289803D01*
X41205597Y-18270557D01*
X41217333Y-18248601D01*
X41224560Y-18224776D01*
X41227000Y-18200000D01*
X41227000Y-14527459D01*
X54824311Y-14576547D01*
G36*
X54873000Y-28723444D02*
G01*
X53147566Y-28729477D01*
X53195472Y-28639851D01*
X53246008Y-28473255D01*
X53263072Y-28300001D01*
X53263072Y-27399999D01*
X53246008Y-27226745D01*
X53195472Y-27060149D01*
X53113405Y-26906613D01*
X53002962Y-26772038D01*
X52868387Y-26661595D01*
X52714851Y-26579528D01*
X52548255Y-26528992D01*
X52375001Y-26511928D01*
X51724999Y-26511928D01*
X51551745Y-26528992D01*
X51385149Y-26579528D01*
X51231613Y-26661595D01*
X51097038Y-26772038D01*
X50986595Y-26906613D01*
X50904528Y-27060149D01*
X50895473Y-27090000D01*
X50467027Y-27090000D01*
X50457972Y-27060149D01*
X50375905Y-26906613D01*
X50265462Y-26772038D01*
X50130887Y-26661595D01*
X49977351Y-26579528D01*
X49810755Y-26528992D01*
X49671978Y-26515324D01*
X49927302Y-26260000D01*
X51062678Y-26260000D01*
X51100000Y-26263676D01*
X51137322Y-26260000D01*
X51137333Y-26260000D01*
X51248986Y-26249003D01*
X51392247Y-26205546D01*
X51524276Y-26134974D01*
X51640001Y-26040001D01*
X51663804Y-26010997D01*
X52659790Y-25015011D01*
X52666842Y-25017932D01*
X52953740Y-25075000D01*
X53246260Y-25075000D01*
X53533158Y-25017932D01*
X53803411Y-24905990D01*
X54046632Y-24743475D01*
X54253475Y-24536632D01*
X54415990Y-24293411D01*
X54527932Y-24023158D01*
X54585000Y-23736260D01*
X54585000Y-23443740D01*
X54527932Y-23156842D01*
X54415990Y-22886589D01*
X54253475Y-22643368D01*
X54046632Y-22436525D01*
X53803411Y-22274010D01*
X53533158Y-22162068D01*
X53246260Y-22105000D01*
X52953740Y-22105000D01*
X52666842Y-22162068D01*
X52396589Y-22274010D01*
X52153368Y-22436525D01*
X51946525Y-22643368D01*
X51784010Y-22886589D01*
X51672068Y-23156842D01*
X51615000Y-23443740D01*
X51615000Y-23736260D01*
X51643858Y-23881340D01*
X50785199Y-24740000D01*
X49649822Y-24740000D01*
X49612499Y-24736324D01*
X49575176Y-24740000D01*
X49575167Y-24740000D01*
X49463514Y-24750997D01*
X49320253Y-24794454D01*
X49188224Y-24865026D01*
X49072499Y-24959999D01*
X49048701Y-24988997D01*
X47525771Y-26511928D01*
X46937499Y-26511928D01*
X46764245Y-26528992D01*
X46597649Y-26579528D01*
X46444113Y-26661595D01*
X46309538Y-26772038D01*
X46199095Y-26906613D01*
X46117028Y-27060149D01*
X46066492Y-27226745D01*
X46059638Y-27296337D01*
X46038405Y-27256613D01*
X45927962Y-27122038D01*
X45793387Y-27011595D01*
X45639851Y-26929528D01*
X45473255Y-26878992D01*
X45300001Y-26861928D01*
X44399999Y-26861928D01*
X44226745Y-26878992D01*
X44060149Y-26929528D01*
X43906613Y-27011595D01*
X43772038Y-27122038D01*
X43661595Y-27256613D01*
X43618319Y-27337577D01*
X43588405Y-27281613D01*
X43477962Y-27147038D01*
X43343387Y-27036595D01*
X43189851Y-26954528D01*
X43023255Y-26903992D01*
X42850001Y-26886928D01*
X41949999Y-26886928D01*
X41776745Y-26903992D01*
X41610149Y-26954528D01*
X41456613Y-27036595D01*
X41376854Y-27102052D01*
X40913804Y-26639002D01*
X40890001Y-26609999D01*
X40827000Y-26558295D01*
X40827000Y-24477000D01*
X41491007Y-24477000D01*
X41500723Y-24484974D01*
X41597368Y-24536632D01*
X41632753Y-24555546D01*
X41776014Y-24599003D01*
X41887667Y-24610000D01*
X41887677Y-24610000D01*
X41925000Y-24613676D01*
X41962323Y-24610000D01*
X49362678Y-24610000D01*
X49400000Y-24613676D01*
X49437322Y-24610000D01*
X49437333Y-24610000D01*
X49548986Y-24599003D01*
X49692247Y-24555546D01*
X49824276Y-24484974D01*
X49940001Y-24390001D01*
X49963803Y-24360998D01*
X50711002Y-23613799D01*
X50740001Y-23590001D01*
X50834974Y-23474276D01*
X50905546Y-23342247D01*
X50949003Y-23198986D01*
X50960000Y-23087333D01*
X50960000Y-23087323D01*
X50963676Y-23050000D01*
X50960000Y-23012677D01*
X50960000Y-21087322D01*
X50963676Y-21049999D01*
X50960000Y-21012676D01*
X50960000Y-21012667D01*
X50949003Y-20901014D01*
X50905546Y-20757753D01*
X50834974Y-20625724D01*
X50740001Y-20509999D01*
X50710998Y-20486197D01*
X50426304Y-20201503D01*
X50402501Y-20172499D01*
X50286776Y-20077526D01*
X50154747Y-20006954D01*
X50011486Y-19963497D01*
X49899833Y-19952500D01*
X49899822Y-19952500D01*
X49862500Y-19948824D01*
X49825178Y-19952500D01*
X49502962Y-19952500D01*
X49477962Y-19922038D01*
X49343387Y-19811595D01*
X49242261Y-19757542D01*
X49452303Y-19547500D01*
X53225178Y-19547500D01*
X53262500Y-19551176D01*
X53299822Y-19547500D01*
X53299833Y-19547500D01*
X53411486Y-19536503D01*
X53554747Y-19493046D01*
X53686776Y-19422474D01*
X53742187Y-19377000D01*
X54873000Y-19377000D01*
X54873000Y-28723444D01*
G37*
X54873000Y-28723444D02*
X53147566Y-28729477D01*
X53195472Y-28639851D01*
X53246008Y-28473255D01*
X53263072Y-28300001D01*
X53263072Y-27399999D01*
X53246008Y-27226745D01*
X53195472Y-27060149D01*
X53113405Y-26906613D01*
X53002962Y-26772038D01*
X52868387Y-26661595D01*
X52714851Y-26579528D01*
X52548255Y-26528992D01*
X52375001Y-26511928D01*
X51724999Y-26511928D01*
X51551745Y-26528992D01*
X51385149Y-26579528D01*
X51231613Y-26661595D01*
X51097038Y-26772038D01*
X50986595Y-26906613D01*
X50904528Y-27060149D01*
X50895473Y-27090000D01*
X50467027Y-27090000D01*
X50457972Y-27060149D01*
X50375905Y-26906613D01*
X50265462Y-26772038D01*
X50130887Y-26661595D01*
X49977351Y-26579528D01*
X49810755Y-26528992D01*
X49671978Y-26515324D01*
X49927302Y-26260000D01*
X51062678Y-26260000D01*
X51100000Y-26263676D01*
X51137322Y-26260000D01*
X51137333Y-26260000D01*
X51248986Y-26249003D01*
X51392247Y-26205546D01*
X51524276Y-26134974D01*
X51640001Y-26040001D01*
X51663804Y-26010997D01*
X52659790Y-25015011D01*
X52666842Y-25017932D01*
X52953740Y-25075000D01*
X53246260Y-25075000D01*
X53533158Y-25017932D01*
X53803411Y-24905990D01*
X54046632Y-24743475D01*
X54253475Y-24536632D01*
X54415990Y-24293411D01*
X54527932Y-24023158D01*
X54585000Y-23736260D01*
X54585000Y-23443740D01*
X54527932Y-23156842D01*
X54415990Y-22886589D01*
X54253475Y-22643368D01*
X54046632Y-22436525D01*
X53803411Y-22274010D01*
X53533158Y-22162068D01*
X53246260Y-22105000D01*
X52953740Y-22105000D01*
X52666842Y-22162068D01*
X52396589Y-22274010D01*
X52153368Y-22436525D01*
X51946525Y-22643368D01*
X51784010Y-22886589D01*
X51672068Y-23156842D01*
X51615000Y-23443740D01*
X51615000Y-23736260D01*
X51643858Y-23881340D01*
X50785199Y-24740000D01*
X49649822Y-24740000D01*
X49612499Y-24736324D01*
X49575176Y-24740000D01*
X49575167Y-24740000D01*
X49463514Y-24750997D01*
X49320253Y-24794454D01*
X49188224Y-24865026D01*
X49072499Y-24959999D01*
X49048701Y-24988997D01*
X47525771Y-26511928D01*
X46937499Y-26511928D01*
X46764245Y-26528992D01*
X46597649Y-26579528D01*
X46444113Y-26661595D01*
X46309538Y-26772038D01*
X46199095Y-26906613D01*
X46117028Y-27060149D01*
X46066492Y-27226745D01*
X46059638Y-27296337D01*
X46038405Y-27256613D01*
X45927962Y-27122038D01*
X45793387Y-27011595D01*
X45639851Y-26929528D01*
X45473255Y-26878992D01*
X45300001Y-26861928D01*
X44399999Y-26861928D01*
X44226745Y-26878992D01*
X44060149Y-26929528D01*
X43906613Y-27011595D01*
X43772038Y-27122038D01*
X43661595Y-27256613D01*
X43618319Y-27337577D01*
X43588405Y-27281613D01*
X43477962Y-27147038D01*
X43343387Y-27036595D01*
X43189851Y-26954528D01*
X43023255Y-26903992D01*
X42850001Y-26886928D01*
X41949999Y-26886928D01*
X41776745Y-26903992D01*
X41610149Y-26954528D01*
X41456613Y-27036595D01*
X41376854Y-27102052D01*
X40913804Y-26639002D01*
X40890001Y-26609999D01*
X40827000Y-26558295D01*
X40827000Y-24477000D01*
X41491007Y-24477000D01*
X41500723Y-24484974D01*
X41597368Y-24536632D01*
X41632753Y-24555546D01*
X41776014Y-24599003D01*
X41887667Y-24610000D01*
X41887677Y-24610000D01*
X41925000Y-24613676D01*
X41962323Y-24610000D01*
X49362678Y-24610000D01*
X49400000Y-24613676D01*
X49437322Y-24610000D01*
X49437333Y-24610000D01*
X49548986Y-24599003D01*
X49692247Y-24555546D01*
X49824276Y-24484974D01*
X49940001Y-24390001D01*
X49963803Y-24360998D01*
X50711002Y-23613799D01*
X50740001Y-23590001D01*
X50834974Y-23474276D01*
X50905546Y-23342247D01*
X50949003Y-23198986D01*
X50960000Y-23087333D01*
X50960000Y-23087323D01*
X50963676Y-23050000D01*
X50960000Y-23012677D01*
X50960000Y-21087322D01*
X50963676Y-21049999D01*
X50960000Y-21012676D01*
X50960000Y-21012667D01*
X50949003Y-20901014D01*
X50905546Y-20757753D01*
X50834974Y-20625724D01*
X50740001Y-20509999D01*
X50710998Y-20486197D01*
X50426304Y-20201503D01*
X50402501Y-20172499D01*
X50286776Y-20077526D01*
X50154747Y-20006954D01*
X50011486Y-19963497D01*
X49899833Y-19952500D01*
X49899822Y-19952500D01*
X49862500Y-19948824D01*
X49825178Y-19952500D01*
X49502962Y-19952500D01*
X49477962Y-19922038D01*
X49343387Y-19811595D01*
X49242261Y-19757542D01*
X49452303Y-19547500D01*
X53225178Y-19547500D01*
X53262500Y-19551176D01*
X53299822Y-19547500D01*
X53299833Y-19547500D01*
X53411486Y-19536503D01*
X53554747Y-19493046D01*
X53686776Y-19422474D01*
X53742187Y-19377000D01*
X54873000Y-19377000D01*
X54873000Y-28723444D01*
M02*
