G04 #@! TF.GenerationSoftware,KiCad,Pcbnew,(5.1.5-0-10_14)*
G04 #@! TF.CreationDate,2020-05-14T00:27:54+02:00*
G04 #@! TF.ProjectId,final,66696e61-6c2e-46b6-9963-61645f706362,rev?*
G04 #@! TF.SameCoordinates,Original*
G04 #@! TF.FileFunction,Soldermask,Top*
G04 #@! TF.FilePolarity,Negative*
%FSLAX46Y46*%
G04 Gerber Fmt 4.6, Leading zero omitted, Abs format (unit mm)*
G04 Created by KiCad (PCBNEW (5.1.5-0-10_14)) date 2020-05-14 00:27:54*
%MOMM*%
%LPD*%
G04 APERTURE LIST*
%ADD10C,0.100000*%
G04 APERTURE END LIST*
D10*
G36*
X58632321Y-30885047D02*
G01*
X58692889Y-30897095D01*
X58749943Y-30920728D01*
X58806997Y-30944360D01*
X58909687Y-31012975D01*
X58997025Y-31100313D01*
X59065640Y-31203003D01*
X59112905Y-31317112D01*
X59137000Y-31438245D01*
X59137000Y-31561755D01*
X59112905Y-31682888D01*
X59065640Y-31796997D01*
X58997025Y-31899687D01*
X58909687Y-31987025D01*
X58806997Y-32055640D01*
X58749942Y-32079273D01*
X58692889Y-32102905D01*
X58632321Y-32114953D01*
X58571755Y-32127000D01*
X58448245Y-32127000D01*
X58387679Y-32114953D01*
X58327111Y-32102905D01*
X58270058Y-32079273D01*
X58213003Y-32055640D01*
X58110313Y-31987025D01*
X58022975Y-31899687D01*
X57954360Y-31796997D01*
X57907095Y-31682888D01*
X57883000Y-31561755D01*
X57883000Y-31438245D01*
X57907095Y-31317112D01*
X57954360Y-31203003D01*
X58022975Y-31100313D01*
X58110313Y-31012975D01*
X58213003Y-30944360D01*
X58270057Y-30920728D01*
X58327111Y-30897095D01*
X58387679Y-30885047D01*
X58448245Y-30873000D01*
X58571755Y-30873000D01*
X58632321Y-30885047D01*
G37*
G36*
X21712321Y-30885047D02*
G01*
X21772889Y-30897095D01*
X21829943Y-30920728D01*
X21886997Y-30944360D01*
X21989687Y-31012975D01*
X22077025Y-31100313D01*
X22145640Y-31203003D01*
X22192905Y-31317112D01*
X22217000Y-31438245D01*
X22217000Y-31561755D01*
X22192905Y-31682888D01*
X22145640Y-31796997D01*
X22077025Y-31899687D01*
X21989687Y-31987025D01*
X21886997Y-32055640D01*
X21829942Y-32079273D01*
X21772889Y-32102905D01*
X21712321Y-32114953D01*
X21651755Y-32127000D01*
X21528245Y-32127000D01*
X21467679Y-32114953D01*
X21407111Y-32102905D01*
X21350058Y-32079273D01*
X21293003Y-32055640D01*
X21190313Y-31987025D01*
X21102975Y-31899687D01*
X21034360Y-31796997D01*
X20987095Y-31682888D01*
X20963000Y-31561755D01*
X20963000Y-31438245D01*
X20987095Y-31317112D01*
X21034360Y-31203003D01*
X21102975Y-31100313D01*
X21190313Y-31012975D01*
X21293003Y-30944360D01*
X21350057Y-30920728D01*
X21407111Y-30897095D01*
X21467679Y-30885047D01*
X21528245Y-30873000D01*
X21651755Y-30873000D01*
X21712321Y-30885047D01*
G37*
G36*
X42988674Y-27478465D02*
G01*
X43026367Y-27489899D01*
X43061103Y-27508466D01*
X43091548Y-27533452D01*
X43116534Y-27563897D01*
X43135101Y-27598633D01*
X43146535Y-27636326D01*
X43151000Y-27681661D01*
X43151000Y-28518339D01*
X43146535Y-28563674D01*
X43135101Y-28601367D01*
X43116534Y-28636103D01*
X43091548Y-28666548D01*
X43061103Y-28691534D01*
X43026367Y-28710101D01*
X42988674Y-28721535D01*
X42943339Y-28726000D01*
X41856661Y-28726000D01*
X41811326Y-28721535D01*
X41773633Y-28710101D01*
X41738897Y-28691534D01*
X41708452Y-28666548D01*
X41683466Y-28636103D01*
X41664899Y-28601367D01*
X41653465Y-28563674D01*
X41649000Y-28518339D01*
X41649000Y-27681661D01*
X41653465Y-27636326D01*
X41664899Y-27598633D01*
X41683466Y-27563897D01*
X41708452Y-27533452D01*
X41738897Y-27508466D01*
X41773633Y-27489899D01*
X41811326Y-27478465D01*
X41856661Y-27474000D01*
X42943339Y-27474000D01*
X42988674Y-27478465D01*
G37*
G36*
X39988674Y-27478465D02*
G01*
X40026367Y-27489899D01*
X40061103Y-27508466D01*
X40091548Y-27533452D01*
X40116534Y-27563897D01*
X40135101Y-27598633D01*
X40146535Y-27636326D01*
X40151000Y-27681661D01*
X40151000Y-28518339D01*
X40146535Y-28563674D01*
X40135101Y-28601367D01*
X40116534Y-28636103D01*
X40091548Y-28666548D01*
X40061103Y-28691534D01*
X40026367Y-28710101D01*
X39988674Y-28721535D01*
X39943339Y-28726000D01*
X38856661Y-28726000D01*
X38811326Y-28721535D01*
X38773633Y-28710101D01*
X38738897Y-28691534D01*
X38708452Y-28666548D01*
X38683466Y-28636103D01*
X38664899Y-28601367D01*
X38653465Y-28563674D01*
X38649000Y-28518339D01*
X38649000Y-27681661D01*
X38653465Y-27636326D01*
X38664899Y-27598633D01*
X38683466Y-27563897D01*
X38708452Y-27533452D01*
X38738897Y-27508466D01*
X38773633Y-27489899D01*
X38811326Y-27478465D01*
X38856661Y-27474000D01*
X39943339Y-27474000D01*
X39988674Y-27478465D01*
G37*
G36*
X37488674Y-27478465D02*
G01*
X37526367Y-27489899D01*
X37561103Y-27508466D01*
X37591548Y-27533452D01*
X37616534Y-27563897D01*
X37635101Y-27598633D01*
X37646535Y-27636326D01*
X37651000Y-27681661D01*
X37651000Y-28518339D01*
X37646535Y-28563674D01*
X37635101Y-28601367D01*
X37616534Y-28636103D01*
X37591548Y-28666548D01*
X37561103Y-28691534D01*
X37526367Y-28710101D01*
X37488674Y-28721535D01*
X37443339Y-28726000D01*
X36356661Y-28726000D01*
X36311326Y-28721535D01*
X36273633Y-28710101D01*
X36238897Y-28691534D01*
X36208452Y-28666548D01*
X36183466Y-28636103D01*
X36164899Y-28601367D01*
X36153465Y-28563674D01*
X36149000Y-28518339D01*
X36149000Y-27681661D01*
X36153465Y-27636326D01*
X36164899Y-27598633D01*
X36183466Y-27563897D01*
X36208452Y-27533452D01*
X36238897Y-27508466D01*
X36273633Y-27489899D01*
X36311326Y-27478465D01*
X36356661Y-27474000D01*
X37443339Y-27474000D01*
X37488674Y-27478465D01*
G37*
G36*
X34838674Y-27478465D02*
G01*
X34876367Y-27489899D01*
X34911103Y-27508466D01*
X34941548Y-27533452D01*
X34966534Y-27563897D01*
X34985101Y-27598633D01*
X34996535Y-27636326D01*
X35001000Y-27681661D01*
X35001000Y-28518339D01*
X34996535Y-28563674D01*
X34985101Y-28601367D01*
X34966534Y-28636103D01*
X34941548Y-28666548D01*
X34911103Y-28691534D01*
X34876367Y-28710101D01*
X34838674Y-28721535D01*
X34793339Y-28726000D01*
X33706661Y-28726000D01*
X33661326Y-28721535D01*
X33623633Y-28710101D01*
X33588897Y-28691534D01*
X33558452Y-28666548D01*
X33533466Y-28636103D01*
X33514899Y-28601367D01*
X33503465Y-28563674D01*
X33499000Y-28518339D01*
X33499000Y-27681661D01*
X33503465Y-27636326D01*
X33514899Y-27598633D01*
X33533466Y-27563897D01*
X33558452Y-27533452D01*
X33588897Y-27508466D01*
X33623633Y-27489899D01*
X33661326Y-27478465D01*
X33706661Y-27474000D01*
X34793339Y-27474000D01*
X34838674Y-27478465D01*
G37*
G36*
X45438674Y-27453465D02*
G01*
X45476367Y-27464899D01*
X45511103Y-27483466D01*
X45541548Y-27508452D01*
X45566534Y-27538897D01*
X45585101Y-27573633D01*
X45596535Y-27611326D01*
X45601000Y-27656661D01*
X45601000Y-28493339D01*
X45596535Y-28538674D01*
X45585101Y-28576367D01*
X45566534Y-28611103D01*
X45541548Y-28641548D01*
X45511103Y-28666534D01*
X45476367Y-28685101D01*
X45438674Y-28696535D01*
X45393339Y-28701000D01*
X44306661Y-28701000D01*
X44261326Y-28696535D01*
X44223633Y-28685101D01*
X44188897Y-28666534D01*
X44158452Y-28641548D01*
X44133466Y-28611103D01*
X44114899Y-28576367D01*
X44103465Y-28538674D01*
X44099000Y-28493339D01*
X44099000Y-27656661D01*
X44103465Y-27611326D01*
X44114899Y-27573633D01*
X44133466Y-27538897D01*
X44158452Y-27508452D01*
X44188897Y-27483466D01*
X44223633Y-27464899D01*
X44261326Y-27453465D01*
X44306661Y-27449000D01*
X45393339Y-27449000D01*
X45438674Y-27453465D01*
G37*
G36*
X54563674Y-27103465D02*
G01*
X54601367Y-27114899D01*
X54636103Y-27133466D01*
X54666548Y-27158452D01*
X54691534Y-27188897D01*
X54710101Y-27223633D01*
X54721535Y-27261326D01*
X54726000Y-27306661D01*
X54726000Y-28393339D01*
X54721535Y-28438674D01*
X54710101Y-28476367D01*
X54691534Y-28511103D01*
X54666548Y-28541548D01*
X54636103Y-28566534D01*
X54601367Y-28585101D01*
X54563674Y-28596535D01*
X54518339Y-28601000D01*
X53681661Y-28601000D01*
X53636326Y-28596535D01*
X53598633Y-28585101D01*
X53563897Y-28566534D01*
X53533452Y-28541548D01*
X53508466Y-28511103D01*
X53489899Y-28476367D01*
X53478465Y-28438674D01*
X53474000Y-28393339D01*
X53474000Y-27306661D01*
X53478465Y-27261326D01*
X53489899Y-27223633D01*
X53508466Y-27188897D01*
X53533452Y-27158452D01*
X53563897Y-27133466D01*
X53598633Y-27114899D01*
X53636326Y-27103465D01*
X53681661Y-27099000D01*
X54518339Y-27099000D01*
X54563674Y-27103465D01*
G37*
G36*
X52513674Y-27103465D02*
G01*
X52551367Y-27114899D01*
X52586103Y-27133466D01*
X52616548Y-27158452D01*
X52641534Y-27188897D01*
X52660101Y-27223633D01*
X52671535Y-27261326D01*
X52676000Y-27306661D01*
X52676000Y-28393339D01*
X52671535Y-28438674D01*
X52660101Y-28476367D01*
X52641534Y-28511103D01*
X52616548Y-28541548D01*
X52586103Y-28566534D01*
X52551367Y-28585101D01*
X52513674Y-28596535D01*
X52468339Y-28601000D01*
X51631661Y-28601000D01*
X51586326Y-28596535D01*
X51548633Y-28585101D01*
X51513897Y-28566534D01*
X51483452Y-28541548D01*
X51458466Y-28511103D01*
X51439899Y-28476367D01*
X51428465Y-28438674D01*
X51424000Y-28393339D01*
X51424000Y-27306661D01*
X51428465Y-27261326D01*
X51439899Y-27223633D01*
X51458466Y-27188897D01*
X51483452Y-27158452D01*
X51513897Y-27133466D01*
X51548633Y-27114899D01*
X51586326Y-27103465D01*
X51631661Y-27099000D01*
X52468339Y-27099000D01*
X52513674Y-27103465D01*
G37*
G36*
X49776174Y-27103465D02*
G01*
X49813867Y-27114899D01*
X49848603Y-27133466D01*
X49879048Y-27158452D01*
X49904034Y-27188897D01*
X49922601Y-27223633D01*
X49934035Y-27261326D01*
X49938500Y-27306661D01*
X49938500Y-28393339D01*
X49934035Y-28438674D01*
X49922601Y-28476367D01*
X49904034Y-28511103D01*
X49879048Y-28541548D01*
X49848603Y-28566534D01*
X49813867Y-28585101D01*
X49776174Y-28596535D01*
X49730839Y-28601000D01*
X48894161Y-28601000D01*
X48848826Y-28596535D01*
X48811133Y-28585101D01*
X48776397Y-28566534D01*
X48745952Y-28541548D01*
X48720966Y-28511103D01*
X48702399Y-28476367D01*
X48690965Y-28438674D01*
X48686500Y-28393339D01*
X48686500Y-27306661D01*
X48690965Y-27261326D01*
X48702399Y-27223633D01*
X48720966Y-27188897D01*
X48745952Y-27158452D01*
X48776397Y-27133466D01*
X48811133Y-27114899D01*
X48848826Y-27103465D01*
X48894161Y-27099000D01*
X49730839Y-27099000D01*
X49776174Y-27103465D01*
G37*
G36*
X47726174Y-27103465D02*
G01*
X47763867Y-27114899D01*
X47798603Y-27133466D01*
X47829048Y-27158452D01*
X47854034Y-27188897D01*
X47872601Y-27223633D01*
X47884035Y-27261326D01*
X47888500Y-27306661D01*
X47888500Y-28393339D01*
X47884035Y-28438674D01*
X47872601Y-28476367D01*
X47854034Y-28511103D01*
X47829048Y-28541548D01*
X47798603Y-28566534D01*
X47763867Y-28585101D01*
X47726174Y-28596535D01*
X47680839Y-28601000D01*
X46844161Y-28601000D01*
X46798826Y-28596535D01*
X46761133Y-28585101D01*
X46726397Y-28566534D01*
X46695952Y-28541548D01*
X46670966Y-28511103D01*
X46652399Y-28476367D01*
X46640965Y-28438674D01*
X46636500Y-28393339D01*
X46636500Y-27306661D01*
X46640965Y-27261326D01*
X46652399Y-27223633D01*
X46670966Y-27188897D01*
X46695952Y-27158452D01*
X46726397Y-27133466D01*
X46761133Y-27114899D01*
X46798826Y-27103465D01*
X46844161Y-27099000D01*
X47680839Y-27099000D01*
X47726174Y-27103465D01*
G37*
G36*
X27488674Y-27103465D02*
G01*
X27526367Y-27114899D01*
X27561103Y-27133466D01*
X27591548Y-27158452D01*
X27616534Y-27188897D01*
X27635101Y-27223633D01*
X27646535Y-27261326D01*
X27651000Y-27306661D01*
X27651000Y-28393339D01*
X27646535Y-28438674D01*
X27635101Y-28476367D01*
X27616534Y-28511103D01*
X27591548Y-28541548D01*
X27561103Y-28566534D01*
X27526367Y-28585101D01*
X27488674Y-28596535D01*
X27443339Y-28601000D01*
X26606661Y-28601000D01*
X26561326Y-28596535D01*
X26523633Y-28585101D01*
X26488897Y-28566534D01*
X26458452Y-28541548D01*
X26433466Y-28511103D01*
X26414899Y-28476367D01*
X26403465Y-28438674D01*
X26399000Y-28393339D01*
X26399000Y-27306661D01*
X26403465Y-27261326D01*
X26414899Y-27223633D01*
X26433466Y-27188897D01*
X26458452Y-27158452D01*
X26488897Y-27133466D01*
X26523633Y-27114899D01*
X26561326Y-27103465D01*
X26606661Y-27099000D01*
X27443339Y-27099000D01*
X27488674Y-27103465D01*
G37*
G36*
X25438674Y-27103465D02*
G01*
X25476367Y-27114899D01*
X25511103Y-27133466D01*
X25541548Y-27158452D01*
X25566534Y-27188897D01*
X25585101Y-27223633D01*
X25596535Y-27261326D01*
X25601000Y-27306661D01*
X25601000Y-28393339D01*
X25596535Y-28438674D01*
X25585101Y-28476367D01*
X25566534Y-28511103D01*
X25541548Y-28541548D01*
X25511103Y-28566534D01*
X25476367Y-28585101D01*
X25438674Y-28596535D01*
X25393339Y-28601000D01*
X24556661Y-28601000D01*
X24511326Y-28596535D01*
X24473633Y-28585101D01*
X24438897Y-28566534D01*
X24408452Y-28541548D01*
X24383466Y-28511103D01*
X24364899Y-28476367D01*
X24353465Y-28438674D01*
X24349000Y-28393339D01*
X24349000Y-27306661D01*
X24353465Y-27261326D01*
X24364899Y-27223633D01*
X24383466Y-27188897D01*
X24408452Y-27158452D01*
X24438897Y-27133466D01*
X24473633Y-27114899D01*
X24511326Y-27103465D01*
X24556661Y-27099000D01*
X25393339Y-27099000D01*
X25438674Y-27103465D01*
G37*
G36*
X23651000Y-27251000D02*
G01*
X20549000Y-27251000D01*
X20549000Y-24149000D01*
X23651000Y-24149000D01*
X23651000Y-27251000D01*
G37*
G36*
X34838674Y-25428465D02*
G01*
X34876367Y-25439899D01*
X34911103Y-25458466D01*
X34941548Y-25483452D01*
X34966534Y-25513897D01*
X34985101Y-25548633D01*
X34996535Y-25586326D01*
X35001000Y-25631661D01*
X35001000Y-26468339D01*
X34996535Y-26513674D01*
X34985101Y-26551367D01*
X34966534Y-26586103D01*
X34941548Y-26616548D01*
X34911103Y-26641534D01*
X34876367Y-26660101D01*
X34838674Y-26671535D01*
X34793339Y-26676000D01*
X33706661Y-26676000D01*
X33661326Y-26671535D01*
X33623633Y-26660101D01*
X33588897Y-26641534D01*
X33558452Y-26616548D01*
X33533466Y-26586103D01*
X33514899Y-26551367D01*
X33503465Y-26513674D01*
X33499000Y-26468339D01*
X33499000Y-25631661D01*
X33503465Y-25586326D01*
X33514899Y-25548633D01*
X33533466Y-25513897D01*
X33558452Y-25483452D01*
X33588897Y-25458466D01*
X33623633Y-25439899D01*
X33661326Y-25428465D01*
X33706661Y-25424000D01*
X34793339Y-25424000D01*
X34838674Y-25428465D01*
G37*
G36*
X37488674Y-25428465D02*
G01*
X37526367Y-25439899D01*
X37561103Y-25458466D01*
X37591548Y-25483452D01*
X37616534Y-25513897D01*
X37635101Y-25548633D01*
X37646535Y-25586326D01*
X37651000Y-25631661D01*
X37651000Y-26468339D01*
X37646535Y-26513674D01*
X37635101Y-26551367D01*
X37616534Y-26586103D01*
X37591548Y-26616548D01*
X37561103Y-26641534D01*
X37526367Y-26660101D01*
X37488674Y-26671535D01*
X37443339Y-26676000D01*
X36356661Y-26676000D01*
X36311326Y-26671535D01*
X36273633Y-26660101D01*
X36238897Y-26641534D01*
X36208452Y-26616548D01*
X36183466Y-26586103D01*
X36164899Y-26551367D01*
X36153465Y-26513674D01*
X36149000Y-26468339D01*
X36149000Y-25631661D01*
X36153465Y-25586326D01*
X36164899Y-25548633D01*
X36183466Y-25513897D01*
X36208452Y-25483452D01*
X36238897Y-25458466D01*
X36273633Y-25439899D01*
X36311326Y-25428465D01*
X36356661Y-25424000D01*
X37443339Y-25424000D01*
X37488674Y-25428465D01*
G37*
G36*
X42988674Y-25428465D02*
G01*
X43026367Y-25439899D01*
X43061103Y-25458466D01*
X43091548Y-25483452D01*
X43116534Y-25513897D01*
X43135101Y-25548633D01*
X43146535Y-25586326D01*
X43151000Y-25631661D01*
X43151000Y-26468339D01*
X43146535Y-26513674D01*
X43135101Y-26551367D01*
X43116534Y-26586103D01*
X43091548Y-26616548D01*
X43061103Y-26641534D01*
X43026367Y-26660101D01*
X42988674Y-26671535D01*
X42943339Y-26676000D01*
X41856661Y-26676000D01*
X41811326Y-26671535D01*
X41773633Y-26660101D01*
X41738897Y-26641534D01*
X41708452Y-26616548D01*
X41683466Y-26586103D01*
X41664899Y-26551367D01*
X41653465Y-26513674D01*
X41649000Y-26468339D01*
X41649000Y-25631661D01*
X41653465Y-25586326D01*
X41664899Y-25548633D01*
X41683466Y-25513897D01*
X41708452Y-25483452D01*
X41738897Y-25458466D01*
X41773633Y-25439899D01*
X41811326Y-25428465D01*
X41856661Y-25424000D01*
X42943339Y-25424000D01*
X42988674Y-25428465D01*
G37*
G36*
X39988674Y-25428465D02*
G01*
X40026367Y-25439899D01*
X40061103Y-25458466D01*
X40091548Y-25483452D01*
X40116534Y-25513897D01*
X40135101Y-25548633D01*
X40146535Y-25586326D01*
X40151000Y-25631661D01*
X40151000Y-26468339D01*
X40146535Y-26513674D01*
X40135101Y-26551367D01*
X40116534Y-26586103D01*
X40091548Y-26616548D01*
X40061103Y-26641534D01*
X40026367Y-26660101D01*
X39988674Y-26671535D01*
X39943339Y-26676000D01*
X38856661Y-26676000D01*
X38811326Y-26671535D01*
X38773633Y-26660101D01*
X38738897Y-26641534D01*
X38708452Y-26616548D01*
X38683466Y-26586103D01*
X38664899Y-26551367D01*
X38653465Y-26513674D01*
X38649000Y-26468339D01*
X38649000Y-25631661D01*
X38653465Y-25586326D01*
X38664899Y-25548633D01*
X38683466Y-25513897D01*
X38708452Y-25483452D01*
X38738897Y-25458466D01*
X38773633Y-25439899D01*
X38811326Y-25428465D01*
X38856661Y-25424000D01*
X39943339Y-25424000D01*
X39988674Y-25428465D01*
G37*
G36*
X45438674Y-25403465D02*
G01*
X45476367Y-25414899D01*
X45511103Y-25433466D01*
X45541548Y-25458452D01*
X45566534Y-25488897D01*
X45585101Y-25523633D01*
X45596535Y-25561326D01*
X45601000Y-25606661D01*
X45601000Y-26443339D01*
X45596535Y-26488674D01*
X45585101Y-26526367D01*
X45566534Y-26561103D01*
X45541548Y-26591548D01*
X45511103Y-26616534D01*
X45476367Y-26635101D01*
X45438674Y-26646535D01*
X45393339Y-26651000D01*
X44306661Y-26651000D01*
X44261326Y-26646535D01*
X44223633Y-26635101D01*
X44188897Y-26616534D01*
X44158452Y-26591548D01*
X44133466Y-26561103D01*
X44114899Y-26526367D01*
X44103465Y-26488674D01*
X44099000Y-26443339D01*
X44099000Y-25606661D01*
X44103465Y-25561326D01*
X44114899Y-25523633D01*
X44133466Y-25488897D01*
X44158452Y-25458452D01*
X44188897Y-25433466D01*
X44223633Y-25414899D01*
X44261326Y-25403465D01*
X44306661Y-25399000D01*
X45393339Y-25399000D01*
X45438674Y-25403465D01*
G37*
G36*
X25388674Y-24903465D02*
G01*
X25426367Y-24914899D01*
X25461103Y-24933466D01*
X25491548Y-24958452D01*
X25516534Y-24988897D01*
X25535101Y-25023633D01*
X25546535Y-25061326D01*
X25551000Y-25106661D01*
X25551000Y-26193339D01*
X25546535Y-26238674D01*
X25535101Y-26276367D01*
X25516534Y-26311103D01*
X25491548Y-26341548D01*
X25461103Y-26366534D01*
X25426367Y-26385101D01*
X25388674Y-26396535D01*
X25343339Y-26401000D01*
X24506661Y-26401000D01*
X24461326Y-26396535D01*
X24423633Y-26385101D01*
X24388897Y-26366534D01*
X24358452Y-26341548D01*
X24333466Y-26311103D01*
X24314899Y-26276367D01*
X24303465Y-26238674D01*
X24299000Y-26193339D01*
X24299000Y-25106661D01*
X24303465Y-25061326D01*
X24314899Y-25023633D01*
X24333466Y-24988897D01*
X24358452Y-24958452D01*
X24388897Y-24933466D01*
X24423633Y-24914899D01*
X24461326Y-24903465D01*
X24506661Y-24899000D01*
X25343339Y-24899000D01*
X25388674Y-24903465D01*
G37*
G36*
X27438674Y-24903465D02*
G01*
X27476367Y-24914899D01*
X27511103Y-24933466D01*
X27541548Y-24958452D01*
X27566534Y-24988897D01*
X27585101Y-25023633D01*
X27596535Y-25061326D01*
X27601000Y-25106661D01*
X27601000Y-26193339D01*
X27596535Y-26238674D01*
X27585101Y-26276367D01*
X27566534Y-26311103D01*
X27541548Y-26341548D01*
X27511103Y-26366534D01*
X27476367Y-26385101D01*
X27438674Y-26396535D01*
X27393339Y-26401000D01*
X26556661Y-26401000D01*
X26511326Y-26396535D01*
X26473633Y-26385101D01*
X26438897Y-26366534D01*
X26408452Y-26341548D01*
X26383466Y-26311103D01*
X26364899Y-26276367D01*
X26353465Y-26238674D01*
X26349000Y-26193339D01*
X26349000Y-25106661D01*
X26353465Y-25061326D01*
X26364899Y-25023633D01*
X26383466Y-24988897D01*
X26408452Y-24958452D01*
X26438897Y-24933466D01*
X26473633Y-24914899D01*
X26511326Y-24903465D01*
X26556661Y-24899000D01*
X27393339Y-24899000D01*
X27438674Y-24903465D01*
G37*
G36*
X39160721Y-23670174D02*
G01*
X39260995Y-23711709D01*
X39260996Y-23711710D01*
X39351242Y-23772010D01*
X39427990Y-23848758D01*
X39458345Y-23894188D01*
X39488291Y-23939005D01*
X39529826Y-24039279D01*
X39551000Y-24145730D01*
X39551000Y-24254270D01*
X39529826Y-24360721D01*
X39488291Y-24460995D01*
X39488290Y-24460996D01*
X39427990Y-24551242D01*
X39351242Y-24627990D01*
X39305812Y-24658345D01*
X39260995Y-24688291D01*
X39160721Y-24729826D01*
X39054270Y-24751000D01*
X38945730Y-24751000D01*
X38839279Y-24729826D01*
X38739005Y-24688291D01*
X38694188Y-24658345D01*
X38648758Y-24627990D01*
X38572010Y-24551242D01*
X38511710Y-24460996D01*
X38511709Y-24460995D01*
X38470174Y-24360721D01*
X38449000Y-24254270D01*
X38449000Y-24145730D01*
X38470174Y-24039279D01*
X38511709Y-23939005D01*
X38541655Y-23894188D01*
X38572010Y-23848758D01*
X38648758Y-23772010D01*
X38739004Y-23711710D01*
X38739005Y-23711709D01*
X38839279Y-23670174D01*
X38945730Y-23649000D01*
X39054270Y-23649000D01*
X39160721Y-23670174D01*
G37*
G36*
X53213512Y-22693927D02*
G01*
X53362812Y-22723624D01*
X53526784Y-22791544D01*
X53674354Y-22890147D01*
X53799853Y-23015646D01*
X53898456Y-23163216D01*
X53966376Y-23327188D01*
X53995037Y-23471282D01*
X53999069Y-23491548D01*
X54001000Y-23501259D01*
X54001000Y-23678741D01*
X53966376Y-23852812D01*
X53898456Y-24016784D01*
X53799853Y-24164354D01*
X53674354Y-24289853D01*
X53526784Y-24388456D01*
X53362812Y-24456376D01*
X53213512Y-24486073D01*
X53188742Y-24491000D01*
X53011258Y-24491000D01*
X52986488Y-24486073D01*
X52837188Y-24456376D01*
X52673216Y-24388456D01*
X52525646Y-24289853D01*
X52400147Y-24164354D01*
X52301544Y-24016784D01*
X52233624Y-23852812D01*
X52199000Y-23678741D01*
X52199000Y-23501259D01*
X52200932Y-23491548D01*
X52204963Y-23471282D01*
X52233624Y-23327188D01*
X52301544Y-23163216D01*
X52400147Y-23015646D01*
X52525646Y-22890147D01*
X52673216Y-22791544D01*
X52837188Y-22723624D01*
X52986488Y-22693927D01*
X53011258Y-22689000D01*
X53188742Y-22689000D01*
X53213512Y-22693927D01*
G37*
G36*
X25463674Y-22753465D02*
G01*
X25501367Y-22764899D01*
X25536103Y-22783466D01*
X25566548Y-22808452D01*
X25591534Y-22838897D01*
X25610101Y-22873633D01*
X25621535Y-22911326D01*
X25626000Y-22956661D01*
X25626000Y-24043339D01*
X25621535Y-24088674D01*
X25610101Y-24126367D01*
X25591534Y-24161103D01*
X25566548Y-24191548D01*
X25536103Y-24216534D01*
X25501367Y-24235101D01*
X25463674Y-24246535D01*
X25418339Y-24251000D01*
X24581661Y-24251000D01*
X24536326Y-24246535D01*
X24498633Y-24235101D01*
X24463897Y-24216534D01*
X24433452Y-24191548D01*
X24408466Y-24161103D01*
X24389899Y-24126367D01*
X24378465Y-24088674D01*
X24374000Y-24043339D01*
X24374000Y-22956661D01*
X24378465Y-22911326D01*
X24389899Y-22873633D01*
X24408466Y-22838897D01*
X24433452Y-22808452D01*
X24463897Y-22783466D01*
X24498633Y-22764899D01*
X24536326Y-22753465D01*
X24581661Y-22749000D01*
X25418339Y-22749000D01*
X25463674Y-22753465D01*
G37*
G36*
X27513674Y-22753465D02*
G01*
X27551367Y-22764899D01*
X27586103Y-22783466D01*
X27616548Y-22808452D01*
X27641534Y-22838897D01*
X27660101Y-22873633D01*
X27671535Y-22911326D01*
X27676000Y-22956661D01*
X27676000Y-24043339D01*
X27671535Y-24088674D01*
X27660101Y-24126367D01*
X27641534Y-24161103D01*
X27616548Y-24191548D01*
X27586103Y-24216534D01*
X27551367Y-24235101D01*
X27513674Y-24246535D01*
X27468339Y-24251000D01*
X26631661Y-24251000D01*
X26586326Y-24246535D01*
X26548633Y-24235101D01*
X26513897Y-24216534D01*
X26483452Y-24191548D01*
X26458466Y-24161103D01*
X26439899Y-24126367D01*
X26428465Y-24088674D01*
X26424000Y-24043339D01*
X26424000Y-22956661D01*
X26428465Y-22911326D01*
X26439899Y-22873633D01*
X26458466Y-22838897D01*
X26483452Y-22808452D01*
X26513897Y-22783466D01*
X26548633Y-22764899D01*
X26586326Y-22753465D01*
X26631661Y-22749000D01*
X27468339Y-22749000D01*
X27513674Y-22753465D01*
G37*
G36*
X37537477Y-19707675D02*
G01*
X37541168Y-19708039D01*
X37580749Y-19720046D01*
X37580752Y-19720047D01*
X37617234Y-19739547D01*
X37649211Y-19765789D01*
X37675453Y-19797766D01*
X37694953Y-19834248D01*
X37694954Y-19834251D01*
X37703100Y-19861103D01*
X37706961Y-19873833D01*
X37710000Y-19904685D01*
X37710000Y-20495315D01*
X37706961Y-20526167D01*
X37694953Y-20565752D01*
X37675453Y-20602234D01*
X37649211Y-20634211D01*
X37617233Y-20660453D01*
X37580751Y-20679953D01*
X37580748Y-20679954D01*
X37541167Y-20691961D01*
X37537112Y-20692360D01*
X37500000Y-20696016D01*
X37482244Y-20694267D01*
X37457748Y-20694267D01*
X37433714Y-20699047D01*
X37411075Y-20708424D01*
X37394442Y-20719538D01*
X37393071Y-20705615D01*
X37385958Y-20682166D01*
X37374407Y-20660555D01*
X37353281Y-20637247D01*
X37350791Y-20634213D01*
X37350789Y-20634211D01*
X37346621Y-20629132D01*
X37329301Y-20611810D01*
X37308926Y-20598196D01*
X37286288Y-20588818D01*
X37262255Y-20584037D01*
X37237751Y-20584037D01*
X37213717Y-20588817D01*
X37191078Y-20598193D01*
X37170704Y-20611807D01*
X37153384Y-20629126D01*
X37149211Y-20634211D01*
X37149205Y-20634216D01*
X37148372Y-20635231D01*
X37132900Y-20650703D01*
X37119287Y-20671077D01*
X37109909Y-20693716D01*
X37105129Y-20717749D01*
X37105129Y-20742253D01*
X37109910Y-20766287D01*
X37119287Y-20788926D01*
X37132901Y-20809300D01*
X37150228Y-20826627D01*
X37170602Y-20840240D01*
X37193241Y-20849618D01*
X37229526Y-20855000D01*
X37270474Y-20855000D01*
X37294860Y-20852598D01*
X37318309Y-20845485D01*
X37339920Y-20833934D01*
X37345000Y-20829765D01*
X37345000Y-20970473D01*
X37347402Y-20994859D01*
X37354515Y-21018308D01*
X37366066Y-21039919D01*
X37381611Y-21058861D01*
X37400553Y-21074406D01*
X37422164Y-21085957D01*
X37445613Y-21093070D01*
X37469999Y-21095472D01*
X37494385Y-21093070D01*
X37517834Y-21085957D01*
X37539445Y-21074406D01*
X37562741Y-21053292D01*
X37565785Y-21050794D01*
X37565789Y-21050789D01*
X37597766Y-21024547D01*
X37634248Y-21005047D01*
X37634251Y-21005046D01*
X37673832Y-20993039D01*
X37677689Y-20992659D01*
X37704685Y-20990000D01*
X38295315Y-20990000D01*
X38322311Y-20992659D01*
X38326168Y-20993039D01*
X38365749Y-21005046D01*
X38365752Y-21005047D01*
X38402234Y-21024547D01*
X38434211Y-21050789D01*
X38460453Y-21082766D01*
X38479953Y-21119248D01*
X38479954Y-21119251D01*
X38490443Y-21153827D01*
X38491961Y-21158833D01*
X38496016Y-21200000D01*
X38491961Y-21241167D01*
X38479953Y-21280752D01*
X38466412Y-21306085D01*
X38457039Y-21328715D01*
X38452258Y-21352748D01*
X38452258Y-21377252D01*
X38457038Y-21401285D01*
X38466415Y-21423924D01*
X38470000Y-21429289D01*
X38470000Y-22470646D01*
X38461171Y-22487164D01*
X38454058Y-22510613D01*
X38451656Y-22534999D01*
X38454058Y-22559385D01*
X38461171Y-22582834D01*
X38466408Y-22593907D01*
X38479953Y-22619248D01*
X38491961Y-22658833D01*
X38496016Y-22700000D01*
X38493689Y-22723624D01*
X38491961Y-22741168D01*
X38484762Y-22764899D01*
X38479953Y-22780752D01*
X38460453Y-22817234D01*
X38434211Y-22849211D01*
X38402234Y-22875453D01*
X38365752Y-22894953D01*
X38365749Y-22894954D01*
X38326168Y-22906961D01*
X38322311Y-22907341D01*
X38295315Y-22910000D01*
X37704685Y-22910000D01*
X37677690Y-22907341D01*
X37673832Y-22906961D01*
X37634251Y-22894954D01*
X37634248Y-22894953D01*
X37597766Y-22875453D01*
X37565789Y-22849211D01*
X37565786Y-22849208D01*
X37564768Y-22848372D01*
X37549297Y-22832901D01*
X37528923Y-22819288D01*
X37506284Y-22809910D01*
X37482251Y-22805130D01*
X37457747Y-22805130D01*
X37433713Y-22809911D01*
X37411074Y-22819288D01*
X37390700Y-22832902D01*
X37373373Y-22850229D01*
X37359760Y-22870603D01*
X37350382Y-22893242D01*
X37345000Y-22929527D01*
X37345000Y-23070184D01*
X37329396Y-23059759D01*
X37306757Y-23050382D01*
X37270474Y-23045000D01*
X37229526Y-23045000D01*
X37205140Y-23047402D01*
X37181691Y-23054515D01*
X37160080Y-23066066D01*
X37141138Y-23081611D01*
X37125593Y-23100553D01*
X37114042Y-23122164D01*
X37106929Y-23145613D01*
X37104527Y-23169999D01*
X37106929Y-23194385D01*
X37114042Y-23217834D01*
X37125593Y-23239445D01*
X37146708Y-23262741D01*
X37149206Y-23265785D01*
X37149211Y-23265789D01*
X37153384Y-23270874D01*
X37170700Y-23288190D01*
X37191074Y-23301804D01*
X37213713Y-23311182D01*
X37237746Y-23315963D01*
X37262250Y-23315963D01*
X37286284Y-23311183D01*
X37308923Y-23301806D01*
X37329297Y-23288193D01*
X37346621Y-23270868D01*
X37350789Y-23265789D01*
X37350792Y-23265786D01*
X37351623Y-23264774D01*
X37367101Y-23249296D01*
X37380714Y-23228921D01*
X37390091Y-23206282D01*
X37394871Y-23182249D01*
X37394871Y-23180606D01*
X37400553Y-23185269D01*
X37422164Y-23196820D01*
X37445613Y-23203933D01*
X37469999Y-23206335D01*
X37482236Y-23205734D01*
X37500000Y-23203984D01*
X37537112Y-23207640D01*
X37541167Y-23208039D01*
X37573456Y-23217834D01*
X37580751Y-23220047D01*
X37617233Y-23239547D01*
X37649211Y-23265789D01*
X37675453Y-23297766D01*
X37694953Y-23334248D01*
X37706961Y-23373833D01*
X37710000Y-23404685D01*
X37710000Y-23995315D01*
X37707885Y-24016782D01*
X37706961Y-24026168D01*
X37702984Y-24039279D01*
X37694953Y-24065752D01*
X37675453Y-24102234D01*
X37649211Y-24134211D01*
X37617234Y-24160453D01*
X37580752Y-24179953D01*
X37580749Y-24179954D01*
X37541168Y-24191961D01*
X37537477Y-24192325D01*
X37500000Y-24196016D01*
X37462524Y-24192325D01*
X37458833Y-24191961D01*
X37419252Y-24179954D01*
X37419249Y-24179953D01*
X37382767Y-24160453D01*
X37350790Y-24134211D01*
X37346621Y-24129131D01*
X37329305Y-24111813D01*
X37308931Y-24098198D01*
X37286293Y-24088819D01*
X37262260Y-24084038D01*
X37237756Y-24084036D01*
X37213722Y-24088815D01*
X37191083Y-24098191D01*
X37170708Y-24111804D01*
X37153380Y-24129131D01*
X37149211Y-24134211D01*
X37117234Y-24160453D01*
X37080752Y-24179953D01*
X37080749Y-24179954D01*
X37041168Y-24191961D01*
X37037477Y-24192325D01*
X37000000Y-24196016D01*
X36962524Y-24192325D01*
X36958833Y-24191961D01*
X36919252Y-24179954D01*
X36919249Y-24179953D01*
X36882767Y-24160453D01*
X36850790Y-24134211D01*
X36846621Y-24129131D01*
X36829305Y-24111813D01*
X36808931Y-24098198D01*
X36786293Y-24088819D01*
X36762260Y-24084038D01*
X36737756Y-24084036D01*
X36713722Y-24088815D01*
X36691083Y-24098191D01*
X36670708Y-24111804D01*
X36653380Y-24129131D01*
X36649211Y-24134211D01*
X36617234Y-24160453D01*
X36580752Y-24179953D01*
X36580749Y-24179954D01*
X36541168Y-24191961D01*
X36537477Y-24192325D01*
X36500000Y-24196016D01*
X36462524Y-24192325D01*
X36458833Y-24191961D01*
X36419252Y-24179954D01*
X36419249Y-24179953D01*
X36382767Y-24160453D01*
X36350790Y-24134211D01*
X36346621Y-24129131D01*
X36329305Y-24111813D01*
X36308931Y-24098198D01*
X36286293Y-24088819D01*
X36262260Y-24084038D01*
X36237756Y-24084036D01*
X36213722Y-24088815D01*
X36191083Y-24098191D01*
X36170708Y-24111804D01*
X36153380Y-24129131D01*
X36149211Y-24134211D01*
X36117234Y-24160453D01*
X36080752Y-24179953D01*
X36080749Y-24179954D01*
X36041168Y-24191961D01*
X36037477Y-24192325D01*
X36000000Y-24196016D01*
X35962524Y-24192325D01*
X35958833Y-24191961D01*
X35919252Y-24179954D01*
X35919249Y-24179953D01*
X35882767Y-24160453D01*
X35850790Y-24134211D01*
X35846621Y-24129131D01*
X35829305Y-24111813D01*
X35808931Y-24098198D01*
X35786293Y-24088819D01*
X35762260Y-24084038D01*
X35737756Y-24084036D01*
X35713722Y-24088815D01*
X35691083Y-24098191D01*
X35670708Y-24111804D01*
X35653380Y-24129131D01*
X35649211Y-24134211D01*
X35617234Y-24160453D01*
X35580752Y-24179953D01*
X35580749Y-24179954D01*
X35541168Y-24191961D01*
X35537477Y-24192325D01*
X35500000Y-24196016D01*
X35462524Y-24192325D01*
X35458833Y-24191961D01*
X35419252Y-24179954D01*
X35419249Y-24179953D01*
X35382767Y-24160453D01*
X35350790Y-24134211D01*
X35346621Y-24129131D01*
X35329305Y-24111813D01*
X35308931Y-24098198D01*
X35286293Y-24088819D01*
X35262260Y-24084038D01*
X35237756Y-24084036D01*
X35213722Y-24088815D01*
X35191083Y-24098191D01*
X35170708Y-24111804D01*
X35153380Y-24129131D01*
X35149211Y-24134211D01*
X35117234Y-24160453D01*
X35080752Y-24179953D01*
X35080749Y-24179954D01*
X35041168Y-24191961D01*
X35037477Y-24192325D01*
X35000000Y-24196016D01*
X34962524Y-24192325D01*
X34958833Y-24191961D01*
X34919252Y-24179954D01*
X34919249Y-24179953D01*
X34882767Y-24160453D01*
X34850790Y-24134211D01*
X34846621Y-24129131D01*
X34829305Y-24111813D01*
X34808931Y-24098198D01*
X34786293Y-24088819D01*
X34762260Y-24084038D01*
X34737756Y-24084036D01*
X34713722Y-24088815D01*
X34691083Y-24098191D01*
X34670708Y-24111804D01*
X34653380Y-24129131D01*
X34649211Y-24134211D01*
X34617234Y-24160453D01*
X34580752Y-24179953D01*
X34580749Y-24179954D01*
X34541168Y-24191961D01*
X34537477Y-24192325D01*
X34500000Y-24196016D01*
X34462524Y-24192325D01*
X34458833Y-24191961D01*
X34419252Y-24179954D01*
X34419249Y-24179953D01*
X34382767Y-24160453D01*
X34350790Y-24134211D01*
X34346621Y-24129131D01*
X34329305Y-24111813D01*
X34308931Y-24098198D01*
X34286293Y-24088819D01*
X34262260Y-24084038D01*
X34237756Y-24084036D01*
X34213722Y-24088815D01*
X34191083Y-24098191D01*
X34170708Y-24111804D01*
X34153380Y-24129131D01*
X34149211Y-24134211D01*
X34117234Y-24160453D01*
X34080752Y-24179953D01*
X34080749Y-24179954D01*
X34041168Y-24191961D01*
X34037477Y-24192325D01*
X34000000Y-24196016D01*
X33962524Y-24192325D01*
X33958833Y-24191961D01*
X33919252Y-24179954D01*
X33919249Y-24179953D01*
X33882767Y-24160453D01*
X33850790Y-24134211D01*
X33824548Y-24102234D01*
X33805048Y-24065752D01*
X33797017Y-24039279D01*
X33793040Y-24026168D01*
X33792116Y-24016782D01*
X33790001Y-23995315D01*
X33790000Y-23404686D01*
X33793039Y-23373834D01*
X33793040Y-23373832D01*
X33805046Y-23334252D01*
X33805047Y-23334249D01*
X33824547Y-23297767D01*
X33850789Y-23265789D01*
X33882766Y-23239547D01*
X33919248Y-23220047D01*
X33926543Y-23217834D01*
X33958832Y-23208039D01*
X33962887Y-23207640D01*
X34000000Y-23203984D01*
X34017756Y-23205733D01*
X34042252Y-23205733D01*
X34066286Y-23200953D01*
X34088925Y-23191576D01*
X34105558Y-23180462D01*
X34106929Y-23194385D01*
X34114042Y-23217834D01*
X34125593Y-23239445D01*
X34146708Y-23262741D01*
X34149206Y-23265785D01*
X34149211Y-23265789D01*
X34153384Y-23270874D01*
X34170700Y-23288190D01*
X34191074Y-23301804D01*
X34213713Y-23311182D01*
X34237746Y-23315963D01*
X34262250Y-23315963D01*
X34286284Y-23311183D01*
X34308923Y-23301806D01*
X34329297Y-23288193D01*
X34346621Y-23270868D01*
X34350789Y-23265789D01*
X34350792Y-23265786D01*
X34351623Y-23264774D01*
X34367101Y-23249296D01*
X34380714Y-23228921D01*
X34390091Y-23206282D01*
X34394871Y-23182249D01*
X34394871Y-23169999D01*
X34604527Y-23169999D01*
X34606929Y-23194385D01*
X34614042Y-23217834D01*
X34625593Y-23239445D01*
X34646708Y-23262741D01*
X34649206Y-23265785D01*
X34649211Y-23265789D01*
X34653384Y-23270874D01*
X34670700Y-23288190D01*
X34691074Y-23301804D01*
X34713713Y-23311182D01*
X34737746Y-23315963D01*
X34762250Y-23315963D01*
X34786284Y-23311183D01*
X34808923Y-23301806D01*
X34829297Y-23288193D01*
X34846621Y-23270868D01*
X34850789Y-23265789D01*
X34850792Y-23265786D01*
X34851623Y-23264774D01*
X34867101Y-23249296D01*
X34880714Y-23228921D01*
X34890091Y-23206282D01*
X34894871Y-23182249D01*
X34894871Y-23169999D01*
X35104527Y-23169999D01*
X35106929Y-23194385D01*
X35114042Y-23217834D01*
X35125593Y-23239445D01*
X35146708Y-23262741D01*
X35149206Y-23265785D01*
X35149211Y-23265789D01*
X35153384Y-23270874D01*
X35170700Y-23288190D01*
X35191074Y-23301804D01*
X35213713Y-23311182D01*
X35237746Y-23315963D01*
X35262250Y-23315963D01*
X35286284Y-23311183D01*
X35308923Y-23301806D01*
X35329297Y-23288193D01*
X35346621Y-23270868D01*
X35350789Y-23265789D01*
X35350792Y-23265786D01*
X35351623Y-23264774D01*
X35367101Y-23249296D01*
X35380714Y-23228921D01*
X35390091Y-23206282D01*
X35394871Y-23182249D01*
X35394871Y-23169999D01*
X35604527Y-23169999D01*
X35606929Y-23194385D01*
X35614042Y-23217834D01*
X35625593Y-23239445D01*
X35646708Y-23262741D01*
X35649206Y-23265785D01*
X35649211Y-23265789D01*
X35653384Y-23270874D01*
X35670700Y-23288190D01*
X35691074Y-23301804D01*
X35713713Y-23311182D01*
X35737746Y-23315963D01*
X35762250Y-23315963D01*
X35786284Y-23311183D01*
X35808923Y-23301806D01*
X35829297Y-23288193D01*
X35846621Y-23270868D01*
X35850789Y-23265789D01*
X35850792Y-23265786D01*
X35851623Y-23264774D01*
X35867101Y-23249296D01*
X35880714Y-23228921D01*
X35890091Y-23206282D01*
X35894871Y-23182249D01*
X35894871Y-23169999D01*
X36104527Y-23169999D01*
X36106929Y-23194385D01*
X36114042Y-23217834D01*
X36125593Y-23239445D01*
X36146708Y-23262741D01*
X36149206Y-23265785D01*
X36149211Y-23265789D01*
X36153384Y-23270874D01*
X36170700Y-23288190D01*
X36191074Y-23301804D01*
X36213713Y-23311182D01*
X36237746Y-23315963D01*
X36262250Y-23315963D01*
X36286284Y-23311183D01*
X36308923Y-23301806D01*
X36329297Y-23288193D01*
X36346621Y-23270868D01*
X36350789Y-23265789D01*
X36350792Y-23265786D01*
X36351623Y-23264774D01*
X36367101Y-23249296D01*
X36380714Y-23228921D01*
X36390091Y-23206282D01*
X36394871Y-23182249D01*
X36394871Y-23169999D01*
X36604527Y-23169999D01*
X36606929Y-23194385D01*
X36614042Y-23217834D01*
X36625593Y-23239445D01*
X36646708Y-23262741D01*
X36649206Y-23265785D01*
X36649211Y-23265789D01*
X36653384Y-23270874D01*
X36670700Y-23288190D01*
X36691074Y-23301804D01*
X36713713Y-23311182D01*
X36737746Y-23315963D01*
X36762250Y-23315963D01*
X36786284Y-23311183D01*
X36808923Y-23301806D01*
X36829297Y-23288193D01*
X36846621Y-23270868D01*
X36850789Y-23265789D01*
X36850792Y-23265786D01*
X36851623Y-23264774D01*
X36867101Y-23249296D01*
X36880714Y-23228921D01*
X36890091Y-23206282D01*
X36894871Y-23182249D01*
X36894871Y-23157745D01*
X36890090Y-23133712D01*
X36880712Y-23111073D01*
X36867098Y-23090699D01*
X36849771Y-23073372D01*
X36829396Y-23059759D01*
X36806757Y-23050382D01*
X36770474Y-23045000D01*
X36729526Y-23045000D01*
X36705140Y-23047402D01*
X36681691Y-23054515D01*
X36660080Y-23066066D01*
X36641138Y-23081611D01*
X36625593Y-23100553D01*
X36614042Y-23122164D01*
X36606929Y-23145613D01*
X36604527Y-23169999D01*
X36394871Y-23169999D01*
X36394871Y-23157745D01*
X36390090Y-23133712D01*
X36380712Y-23111073D01*
X36367098Y-23090699D01*
X36349771Y-23073372D01*
X36329396Y-23059759D01*
X36306757Y-23050382D01*
X36270474Y-23045000D01*
X36229526Y-23045000D01*
X36205140Y-23047402D01*
X36181691Y-23054515D01*
X36160080Y-23066066D01*
X36141138Y-23081611D01*
X36125593Y-23100553D01*
X36114042Y-23122164D01*
X36106929Y-23145613D01*
X36104527Y-23169999D01*
X35894871Y-23169999D01*
X35894871Y-23157745D01*
X35890090Y-23133712D01*
X35880712Y-23111073D01*
X35867098Y-23090699D01*
X35849771Y-23073372D01*
X35829396Y-23059759D01*
X35806757Y-23050382D01*
X35770474Y-23045000D01*
X35729526Y-23045000D01*
X35705140Y-23047402D01*
X35681691Y-23054515D01*
X35660080Y-23066066D01*
X35641138Y-23081611D01*
X35625593Y-23100553D01*
X35614042Y-23122164D01*
X35606929Y-23145613D01*
X35604527Y-23169999D01*
X35394871Y-23169999D01*
X35394871Y-23157745D01*
X35390090Y-23133712D01*
X35380712Y-23111073D01*
X35367098Y-23090699D01*
X35349771Y-23073372D01*
X35329396Y-23059759D01*
X35306757Y-23050382D01*
X35270474Y-23045000D01*
X35229526Y-23045000D01*
X35205140Y-23047402D01*
X35181691Y-23054515D01*
X35160080Y-23066066D01*
X35141138Y-23081611D01*
X35125593Y-23100553D01*
X35114042Y-23122164D01*
X35106929Y-23145613D01*
X35104527Y-23169999D01*
X34894871Y-23169999D01*
X34894871Y-23157745D01*
X34890090Y-23133712D01*
X34880712Y-23111073D01*
X34867098Y-23090699D01*
X34849771Y-23073372D01*
X34829396Y-23059759D01*
X34806757Y-23050382D01*
X34770474Y-23045000D01*
X34729526Y-23045000D01*
X34705140Y-23047402D01*
X34681691Y-23054515D01*
X34660080Y-23066066D01*
X34641138Y-23081611D01*
X34625593Y-23100553D01*
X34614042Y-23122164D01*
X34606929Y-23145613D01*
X34604527Y-23169999D01*
X34394871Y-23169999D01*
X34394871Y-23157745D01*
X34390090Y-23133712D01*
X34380712Y-23111073D01*
X34367098Y-23090699D01*
X34349771Y-23073372D01*
X34329396Y-23059759D01*
X34306757Y-23050382D01*
X34270474Y-23045000D01*
X34229526Y-23045000D01*
X34205140Y-23047402D01*
X34181691Y-23054515D01*
X34160080Y-23066066D01*
X34155000Y-23070235D01*
X34155000Y-22929527D01*
X34152598Y-22905141D01*
X34145485Y-22881692D01*
X34133934Y-22860081D01*
X34118389Y-22841139D01*
X34099447Y-22825594D01*
X34077836Y-22814043D01*
X34054387Y-22806930D01*
X34030001Y-22804528D01*
X34005615Y-22806930D01*
X33982166Y-22814043D01*
X33960555Y-22825594D01*
X33937259Y-22846708D01*
X33934215Y-22849206D01*
X33934211Y-22849211D01*
X33902234Y-22875453D01*
X33865752Y-22894953D01*
X33865749Y-22894954D01*
X33826168Y-22906961D01*
X33822310Y-22907341D01*
X33795315Y-22910000D01*
X33204685Y-22910000D01*
X33177690Y-22907341D01*
X33173832Y-22906961D01*
X33134251Y-22894954D01*
X33134248Y-22894953D01*
X33097766Y-22875453D01*
X33065789Y-22849211D01*
X33039547Y-22817234D01*
X33020047Y-22780752D01*
X33015238Y-22764899D01*
X33008039Y-22741168D01*
X33006311Y-22723624D01*
X33003984Y-22700000D01*
X33008039Y-22658833D01*
X33020047Y-22619248D01*
X33033588Y-22593915D01*
X33042961Y-22571285D01*
X33047742Y-22547252D01*
X33047742Y-22522748D01*
X33042962Y-22498715D01*
X33033585Y-22476076D01*
X33030000Y-22470711D01*
X33030000Y-21429354D01*
X33038829Y-21412836D01*
X33045942Y-21389387D01*
X33048344Y-21365001D01*
X33045942Y-21340615D01*
X33038829Y-21317166D01*
X33033592Y-21306093D01*
X33020047Y-21280752D01*
X33008039Y-21241167D01*
X33003984Y-21200000D01*
X33008039Y-21158833D01*
X33009558Y-21153827D01*
X33020046Y-21119251D01*
X33020047Y-21119248D01*
X33039547Y-21082766D01*
X33065789Y-21050789D01*
X33097766Y-21024547D01*
X33134248Y-21005047D01*
X33134251Y-21005046D01*
X33173832Y-20993039D01*
X33177689Y-20992659D01*
X33204685Y-20990000D01*
X33795315Y-20990000D01*
X33822311Y-20992659D01*
X33826168Y-20993039D01*
X33865749Y-21005046D01*
X33865752Y-21005047D01*
X33902234Y-21024547D01*
X33934211Y-21050789D01*
X33934214Y-21050792D01*
X33935232Y-21051628D01*
X33950703Y-21067099D01*
X33971077Y-21080712D01*
X33993716Y-21090090D01*
X34017749Y-21094870D01*
X34042253Y-21094870D01*
X34066287Y-21090089D01*
X34088926Y-21080712D01*
X34109300Y-21067098D01*
X34126627Y-21049771D01*
X34140240Y-21029397D01*
X34149618Y-21006758D01*
X34155000Y-20970473D01*
X34155000Y-20829815D01*
X34170602Y-20840240D01*
X34193241Y-20849618D01*
X34229526Y-20855000D01*
X34270474Y-20855000D01*
X34294860Y-20852598D01*
X34318309Y-20845485D01*
X34339920Y-20833934D01*
X34358862Y-20818389D01*
X34374407Y-20799447D01*
X34385958Y-20777836D01*
X34393071Y-20754387D01*
X34395473Y-20730001D01*
X34394267Y-20717749D01*
X34605129Y-20717749D01*
X34605129Y-20742253D01*
X34609910Y-20766287D01*
X34619287Y-20788926D01*
X34632901Y-20809300D01*
X34650228Y-20826627D01*
X34670602Y-20840240D01*
X34693241Y-20849618D01*
X34729526Y-20855000D01*
X34770474Y-20855000D01*
X34794860Y-20852598D01*
X34818309Y-20845485D01*
X34839920Y-20833934D01*
X34858862Y-20818389D01*
X34874407Y-20799447D01*
X34885958Y-20777836D01*
X34893071Y-20754387D01*
X34895473Y-20730001D01*
X34894267Y-20717749D01*
X35105129Y-20717749D01*
X35105129Y-20742253D01*
X35109910Y-20766287D01*
X35119287Y-20788926D01*
X35132901Y-20809300D01*
X35150228Y-20826627D01*
X35170602Y-20840240D01*
X35193241Y-20849618D01*
X35229526Y-20855000D01*
X35270474Y-20855000D01*
X35294860Y-20852598D01*
X35318309Y-20845485D01*
X35339920Y-20833934D01*
X35358862Y-20818389D01*
X35374407Y-20799447D01*
X35385958Y-20777836D01*
X35393071Y-20754387D01*
X35395473Y-20730001D01*
X35394267Y-20717749D01*
X35605129Y-20717749D01*
X35605129Y-20742253D01*
X35609910Y-20766287D01*
X35619287Y-20788926D01*
X35632901Y-20809300D01*
X35650228Y-20826627D01*
X35670602Y-20840240D01*
X35693241Y-20849618D01*
X35729526Y-20855000D01*
X35770474Y-20855000D01*
X35794860Y-20852598D01*
X35818309Y-20845485D01*
X35839920Y-20833934D01*
X35858862Y-20818389D01*
X35874407Y-20799447D01*
X35885958Y-20777836D01*
X35893071Y-20754387D01*
X35895473Y-20730001D01*
X35894267Y-20717749D01*
X36105129Y-20717749D01*
X36105129Y-20742253D01*
X36109910Y-20766287D01*
X36119287Y-20788926D01*
X36132901Y-20809300D01*
X36150228Y-20826627D01*
X36170602Y-20840240D01*
X36193241Y-20849618D01*
X36229526Y-20855000D01*
X36270474Y-20855000D01*
X36294860Y-20852598D01*
X36318309Y-20845485D01*
X36339920Y-20833934D01*
X36358862Y-20818389D01*
X36374407Y-20799447D01*
X36385958Y-20777836D01*
X36393071Y-20754387D01*
X36395473Y-20730001D01*
X36394267Y-20717749D01*
X36605129Y-20717749D01*
X36605129Y-20742253D01*
X36609910Y-20766287D01*
X36619287Y-20788926D01*
X36632901Y-20809300D01*
X36650228Y-20826627D01*
X36670602Y-20840240D01*
X36693241Y-20849618D01*
X36729526Y-20855000D01*
X36770474Y-20855000D01*
X36794860Y-20852598D01*
X36818309Y-20845485D01*
X36839920Y-20833934D01*
X36858862Y-20818389D01*
X36874407Y-20799447D01*
X36885958Y-20777836D01*
X36893071Y-20754387D01*
X36895473Y-20730001D01*
X36893071Y-20705615D01*
X36885958Y-20682166D01*
X36874407Y-20660555D01*
X36853281Y-20637247D01*
X36850791Y-20634213D01*
X36850789Y-20634211D01*
X36846621Y-20629132D01*
X36829301Y-20611810D01*
X36808926Y-20598196D01*
X36786288Y-20588818D01*
X36762255Y-20584037D01*
X36737751Y-20584037D01*
X36713717Y-20588817D01*
X36691078Y-20598193D01*
X36670704Y-20611807D01*
X36653384Y-20629126D01*
X36649211Y-20634211D01*
X36649205Y-20634216D01*
X36648372Y-20635231D01*
X36632900Y-20650703D01*
X36619287Y-20671077D01*
X36609909Y-20693716D01*
X36605129Y-20717749D01*
X36394267Y-20717749D01*
X36393071Y-20705615D01*
X36385958Y-20682166D01*
X36374407Y-20660555D01*
X36353281Y-20637247D01*
X36350791Y-20634213D01*
X36350789Y-20634211D01*
X36346621Y-20629132D01*
X36329301Y-20611810D01*
X36308926Y-20598196D01*
X36286288Y-20588818D01*
X36262255Y-20584037D01*
X36237751Y-20584037D01*
X36213717Y-20588817D01*
X36191078Y-20598193D01*
X36170704Y-20611807D01*
X36153384Y-20629126D01*
X36149211Y-20634211D01*
X36149205Y-20634216D01*
X36148372Y-20635231D01*
X36132900Y-20650703D01*
X36119287Y-20671077D01*
X36109909Y-20693716D01*
X36105129Y-20717749D01*
X35894267Y-20717749D01*
X35893071Y-20705615D01*
X35885958Y-20682166D01*
X35874407Y-20660555D01*
X35853281Y-20637247D01*
X35850791Y-20634213D01*
X35850789Y-20634211D01*
X35846621Y-20629132D01*
X35829301Y-20611810D01*
X35808926Y-20598196D01*
X35786288Y-20588818D01*
X35762255Y-20584037D01*
X35737751Y-20584037D01*
X35713717Y-20588817D01*
X35691078Y-20598193D01*
X35670704Y-20611807D01*
X35653384Y-20629126D01*
X35649211Y-20634211D01*
X35649205Y-20634216D01*
X35648372Y-20635231D01*
X35632900Y-20650703D01*
X35619287Y-20671077D01*
X35609909Y-20693716D01*
X35605129Y-20717749D01*
X35394267Y-20717749D01*
X35393071Y-20705615D01*
X35385958Y-20682166D01*
X35374407Y-20660555D01*
X35353281Y-20637247D01*
X35350791Y-20634213D01*
X35350789Y-20634211D01*
X35346621Y-20629132D01*
X35329301Y-20611810D01*
X35308926Y-20598196D01*
X35286288Y-20588818D01*
X35262255Y-20584037D01*
X35237751Y-20584037D01*
X35213717Y-20588817D01*
X35191078Y-20598193D01*
X35170704Y-20611807D01*
X35153384Y-20629126D01*
X35149211Y-20634211D01*
X35149205Y-20634216D01*
X35148372Y-20635231D01*
X35132900Y-20650703D01*
X35119287Y-20671077D01*
X35109909Y-20693716D01*
X35105129Y-20717749D01*
X34894267Y-20717749D01*
X34893071Y-20705615D01*
X34885958Y-20682166D01*
X34874407Y-20660555D01*
X34853281Y-20637247D01*
X34850791Y-20634213D01*
X34850789Y-20634211D01*
X34846621Y-20629132D01*
X34829301Y-20611810D01*
X34808926Y-20598196D01*
X34786288Y-20588818D01*
X34762255Y-20584037D01*
X34737751Y-20584037D01*
X34713717Y-20588817D01*
X34691078Y-20598193D01*
X34670704Y-20611807D01*
X34653384Y-20629126D01*
X34649211Y-20634211D01*
X34649205Y-20634216D01*
X34648372Y-20635231D01*
X34632900Y-20650703D01*
X34619287Y-20671077D01*
X34609909Y-20693716D01*
X34605129Y-20717749D01*
X34394267Y-20717749D01*
X34393071Y-20705615D01*
X34385958Y-20682166D01*
X34374407Y-20660555D01*
X34353281Y-20637247D01*
X34350791Y-20634213D01*
X34350789Y-20634211D01*
X34346621Y-20629132D01*
X34329301Y-20611810D01*
X34308926Y-20598196D01*
X34286288Y-20588818D01*
X34262255Y-20584037D01*
X34237751Y-20584037D01*
X34213717Y-20588817D01*
X34191078Y-20598193D01*
X34170704Y-20611807D01*
X34153384Y-20629126D01*
X34149211Y-20634211D01*
X34149205Y-20634216D01*
X34148372Y-20635231D01*
X34132900Y-20650703D01*
X34119287Y-20671077D01*
X34109909Y-20693716D01*
X34105129Y-20717749D01*
X34105129Y-20719394D01*
X34099447Y-20714731D01*
X34077836Y-20703180D01*
X34054387Y-20696067D01*
X34030001Y-20693665D01*
X34017763Y-20694266D01*
X34000000Y-20696016D01*
X33962887Y-20692360D01*
X33958832Y-20691961D01*
X33919251Y-20679954D01*
X33919248Y-20679953D01*
X33882766Y-20660453D01*
X33850789Y-20634211D01*
X33824547Y-20602233D01*
X33805047Y-20565751D01*
X33805046Y-20565748D01*
X33793039Y-20526167D01*
X33792547Y-20521173D01*
X33790000Y-20495314D01*
X33790001Y-19904685D01*
X33793040Y-19873833D01*
X33796902Y-19861103D01*
X33805047Y-19834251D01*
X33805048Y-19834248D01*
X33824548Y-19797766D01*
X33850790Y-19765789D01*
X33882767Y-19739547D01*
X33919249Y-19720047D01*
X33919252Y-19720046D01*
X33958833Y-19708039D01*
X33962524Y-19707675D01*
X34000000Y-19703984D01*
X34037477Y-19707675D01*
X34041168Y-19708039D01*
X34080749Y-19720046D01*
X34080752Y-19720047D01*
X34117234Y-19739547D01*
X34149211Y-19765789D01*
X34153380Y-19770869D01*
X34170701Y-19788190D01*
X34191075Y-19801804D01*
X34213714Y-19811182D01*
X34237747Y-19815963D01*
X34262251Y-19815963D01*
X34286285Y-19811183D01*
X34308924Y-19801806D01*
X34329298Y-19788193D01*
X34346621Y-19770869D01*
X34350790Y-19765789D01*
X34382767Y-19739547D01*
X34419249Y-19720047D01*
X34419252Y-19720046D01*
X34458833Y-19708039D01*
X34462524Y-19707675D01*
X34500000Y-19703984D01*
X34537477Y-19707675D01*
X34541168Y-19708039D01*
X34580749Y-19720046D01*
X34580752Y-19720047D01*
X34617234Y-19739547D01*
X34649211Y-19765789D01*
X34653380Y-19770869D01*
X34670701Y-19788190D01*
X34691075Y-19801804D01*
X34713714Y-19811182D01*
X34737747Y-19815963D01*
X34762251Y-19815963D01*
X34786285Y-19811183D01*
X34808924Y-19801806D01*
X34829298Y-19788193D01*
X34846621Y-19770869D01*
X34850790Y-19765789D01*
X34882767Y-19739547D01*
X34919249Y-19720047D01*
X34919252Y-19720046D01*
X34958833Y-19708039D01*
X34962524Y-19707675D01*
X35000000Y-19703984D01*
X35037477Y-19707675D01*
X35041168Y-19708039D01*
X35080749Y-19720046D01*
X35080752Y-19720047D01*
X35117234Y-19739547D01*
X35149211Y-19765789D01*
X35153380Y-19770869D01*
X35170701Y-19788190D01*
X35191075Y-19801804D01*
X35213714Y-19811182D01*
X35237747Y-19815963D01*
X35262251Y-19815963D01*
X35286285Y-19811183D01*
X35308924Y-19801806D01*
X35329298Y-19788193D01*
X35346621Y-19770869D01*
X35350790Y-19765789D01*
X35382767Y-19739547D01*
X35419249Y-19720047D01*
X35419252Y-19720046D01*
X35458833Y-19708039D01*
X35462524Y-19707675D01*
X35500000Y-19703984D01*
X35537477Y-19707675D01*
X35541168Y-19708039D01*
X35580749Y-19720046D01*
X35580752Y-19720047D01*
X35617234Y-19739547D01*
X35649211Y-19765789D01*
X35653380Y-19770869D01*
X35670701Y-19788190D01*
X35691075Y-19801804D01*
X35713714Y-19811182D01*
X35737747Y-19815963D01*
X35762251Y-19815963D01*
X35786285Y-19811183D01*
X35808924Y-19801806D01*
X35829298Y-19788193D01*
X35846621Y-19770869D01*
X35850790Y-19765789D01*
X35882767Y-19739547D01*
X35919249Y-19720047D01*
X35919252Y-19720046D01*
X35958833Y-19708039D01*
X35962524Y-19707675D01*
X36000000Y-19703984D01*
X36037477Y-19707675D01*
X36041168Y-19708039D01*
X36080749Y-19720046D01*
X36080752Y-19720047D01*
X36117234Y-19739547D01*
X36149211Y-19765789D01*
X36153380Y-19770869D01*
X36170701Y-19788190D01*
X36191075Y-19801804D01*
X36213714Y-19811182D01*
X36237747Y-19815963D01*
X36262251Y-19815963D01*
X36286285Y-19811183D01*
X36308924Y-19801806D01*
X36329298Y-19788193D01*
X36346621Y-19770869D01*
X36350790Y-19765789D01*
X36382767Y-19739547D01*
X36419249Y-19720047D01*
X36419252Y-19720046D01*
X36458833Y-19708039D01*
X36462524Y-19707675D01*
X36500000Y-19703984D01*
X36537477Y-19707675D01*
X36541168Y-19708039D01*
X36580749Y-19720046D01*
X36580752Y-19720047D01*
X36617234Y-19739547D01*
X36649211Y-19765789D01*
X36653380Y-19770869D01*
X36670701Y-19788190D01*
X36691075Y-19801804D01*
X36713714Y-19811182D01*
X36737747Y-19815963D01*
X36762251Y-19815963D01*
X36786285Y-19811183D01*
X36808924Y-19801806D01*
X36829298Y-19788193D01*
X36846621Y-19770869D01*
X36850790Y-19765789D01*
X36882767Y-19739547D01*
X36919249Y-19720047D01*
X36919252Y-19720046D01*
X36958833Y-19708039D01*
X36962524Y-19707675D01*
X37000000Y-19703984D01*
X37037477Y-19707675D01*
X37041168Y-19708039D01*
X37080749Y-19720046D01*
X37080752Y-19720047D01*
X37117234Y-19739547D01*
X37149211Y-19765789D01*
X37153380Y-19770869D01*
X37170701Y-19788190D01*
X37191075Y-19801804D01*
X37213714Y-19811182D01*
X37237747Y-19815963D01*
X37262251Y-19815963D01*
X37286285Y-19811183D01*
X37308924Y-19801806D01*
X37329298Y-19788193D01*
X37346621Y-19770869D01*
X37350790Y-19765789D01*
X37382767Y-19739547D01*
X37419249Y-19720047D01*
X37419252Y-19720046D01*
X37458833Y-19708039D01*
X37462524Y-19707675D01*
X37500000Y-19703984D01*
X37537477Y-19707675D01*
G37*
G36*
X42188674Y-22303465D02*
G01*
X42226367Y-22314899D01*
X42261103Y-22333466D01*
X42291548Y-22358452D01*
X42316534Y-22388897D01*
X42335101Y-22423633D01*
X42346535Y-22461326D01*
X42351000Y-22506661D01*
X42351000Y-23343339D01*
X42346535Y-23388674D01*
X42335101Y-23426367D01*
X42316534Y-23461103D01*
X42291548Y-23491548D01*
X42261103Y-23516534D01*
X42226367Y-23535101D01*
X42188674Y-23546535D01*
X42143339Y-23551000D01*
X41056661Y-23551000D01*
X41011326Y-23546535D01*
X40973633Y-23535101D01*
X40938897Y-23516534D01*
X40908452Y-23491548D01*
X40883466Y-23461103D01*
X40864899Y-23426367D01*
X40853465Y-23388674D01*
X40849000Y-23343339D01*
X40849000Y-22506661D01*
X40853465Y-22461326D01*
X40864899Y-22423633D01*
X40883466Y-22388897D01*
X40908452Y-22358452D01*
X40938897Y-22333466D01*
X40973633Y-22314899D01*
X41011326Y-22303465D01*
X41056661Y-22299000D01*
X42143339Y-22299000D01*
X42188674Y-22303465D01*
G37*
G36*
X48988674Y-22303465D02*
G01*
X49026367Y-22314899D01*
X49061103Y-22333466D01*
X49091548Y-22358452D01*
X49116534Y-22388897D01*
X49135101Y-22423633D01*
X49146535Y-22461326D01*
X49151000Y-22506661D01*
X49151000Y-23343339D01*
X49146535Y-23388674D01*
X49135101Y-23426367D01*
X49116534Y-23461103D01*
X49091548Y-23491548D01*
X49061103Y-23516534D01*
X49026367Y-23535101D01*
X48988674Y-23546535D01*
X48943339Y-23551000D01*
X47856661Y-23551000D01*
X47811326Y-23546535D01*
X47773633Y-23535101D01*
X47738897Y-23516534D01*
X47708452Y-23491548D01*
X47683466Y-23461103D01*
X47664899Y-23426367D01*
X47653465Y-23388674D01*
X47649000Y-23343339D01*
X47649000Y-22506661D01*
X47653465Y-22461326D01*
X47664899Y-22423633D01*
X47683466Y-22388897D01*
X47708452Y-22358452D01*
X47738897Y-22333466D01*
X47773633Y-22314899D01*
X47811326Y-22303465D01*
X47856661Y-22299000D01*
X48943339Y-22299000D01*
X48988674Y-22303465D01*
G37*
G36*
X45388674Y-22228465D02*
G01*
X45426367Y-22239899D01*
X45461103Y-22258466D01*
X45491548Y-22283452D01*
X45516534Y-22313897D01*
X45535101Y-22348633D01*
X45546535Y-22386326D01*
X45551000Y-22431661D01*
X45551000Y-23268339D01*
X45546535Y-23313674D01*
X45535101Y-23351367D01*
X45516534Y-23386103D01*
X45491548Y-23416548D01*
X45461103Y-23441534D01*
X45426367Y-23460101D01*
X45388674Y-23471535D01*
X45343339Y-23476000D01*
X44256661Y-23476000D01*
X44211326Y-23471535D01*
X44173633Y-23460101D01*
X44138897Y-23441534D01*
X44108452Y-23416548D01*
X44083466Y-23386103D01*
X44064899Y-23351367D01*
X44053465Y-23313674D01*
X44049000Y-23268339D01*
X44049000Y-22431661D01*
X44053465Y-22386326D01*
X44064899Y-22348633D01*
X44083466Y-22313897D01*
X44108452Y-22283452D01*
X44138897Y-22258466D01*
X44173633Y-22239899D01*
X44211326Y-22228465D01*
X44256661Y-22224000D01*
X45343339Y-22224000D01*
X45388674Y-22228465D01*
G37*
G36*
X31388674Y-20753465D02*
G01*
X31426367Y-20764899D01*
X31461103Y-20783466D01*
X31491548Y-20808452D01*
X31516534Y-20838897D01*
X31535101Y-20873633D01*
X31546535Y-20911326D01*
X31551000Y-20956661D01*
X31551000Y-21793339D01*
X31546535Y-21838674D01*
X31535101Y-21876367D01*
X31516534Y-21911103D01*
X31491548Y-21941548D01*
X31461103Y-21966534D01*
X31426367Y-21985101D01*
X31388674Y-21996535D01*
X31343339Y-22001000D01*
X30256661Y-22001000D01*
X30211326Y-21996535D01*
X30173633Y-21985101D01*
X30138897Y-21966534D01*
X30108452Y-21941548D01*
X30083466Y-21911103D01*
X30064899Y-21876367D01*
X30053465Y-21838674D01*
X30049000Y-21793339D01*
X30049000Y-20956661D01*
X30053465Y-20911326D01*
X30064899Y-20873633D01*
X30083466Y-20838897D01*
X30108452Y-20808452D01*
X30138897Y-20783466D01*
X30173633Y-20764899D01*
X30211326Y-20753465D01*
X30256661Y-20749000D01*
X31343339Y-20749000D01*
X31388674Y-20753465D01*
G37*
G36*
X29288674Y-20753465D02*
G01*
X29326367Y-20764899D01*
X29361103Y-20783466D01*
X29391548Y-20808452D01*
X29416534Y-20838897D01*
X29435101Y-20873633D01*
X29446535Y-20911326D01*
X29451000Y-20956661D01*
X29451000Y-21793339D01*
X29446535Y-21838674D01*
X29435101Y-21876367D01*
X29416534Y-21911103D01*
X29391548Y-21941548D01*
X29361103Y-21966534D01*
X29326367Y-21985101D01*
X29288674Y-21996535D01*
X29243339Y-22001000D01*
X28156661Y-22001000D01*
X28111326Y-21996535D01*
X28073633Y-21985101D01*
X28038897Y-21966534D01*
X28008452Y-21941548D01*
X27983466Y-21911103D01*
X27964899Y-21876367D01*
X27953465Y-21838674D01*
X27949000Y-21793339D01*
X27949000Y-20956661D01*
X27953465Y-20911326D01*
X27964899Y-20873633D01*
X27983466Y-20838897D01*
X28008452Y-20808452D01*
X28038897Y-20783466D01*
X28073633Y-20764899D01*
X28111326Y-20753465D01*
X28156661Y-20749000D01*
X29243339Y-20749000D01*
X29288674Y-20753465D01*
G37*
G36*
X27238674Y-20753465D02*
G01*
X27276367Y-20764899D01*
X27311103Y-20783466D01*
X27341548Y-20808452D01*
X27366534Y-20838897D01*
X27385101Y-20873633D01*
X27396535Y-20911326D01*
X27401000Y-20956661D01*
X27401000Y-21793339D01*
X27396535Y-21838674D01*
X27385101Y-21876367D01*
X27366534Y-21911103D01*
X27341548Y-21941548D01*
X27311103Y-21966534D01*
X27276367Y-21985101D01*
X27238674Y-21996535D01*
X27193339Y-22001000D01*
X26106661Y-22001000D01*
X26061326Y-21996535D01*
X26023633Y-21985101D01*
X25988897Y-21966534D01*
X25958452Y-21941548D01*
X25933466Y-21911103D01*
X25914899Y-21876367D01*
X25903465Y-21838674D01*
X25899000Y-21793339D01*
X25899000Y-20956661D01*
X25903465Y-20911326D01*
X25914899Y-20873633D01*
X25933466Y-20838897D01*
X25958452Y-20808452D01*
X25988897Y-20783466D01*
X26023633Y-20764899D01*
X26061326Y-20753465D01*
X26106661Y-20749000D01*
X27193339Y-20749000D01*
X27238674Y-20753465D01*
G37*
G36*
X54001000Y-21951000D02*
G01*
X52199000Y-21951000D01*
X52199000Y-20149000D01*
X54001000Y-20149000D01*
X54001000Y-21951000D01*
G37*
G36*
X48988674Y-20253465D02*
G01*
X49026367Y-20264899D01*
X49061103Y-20283466D01*
X49091548Y-20308452D01*
X49116534Y-20338897D01*
X49135101Y-20373633D01*
X49146535Y-20411326D01*
X49151000Y-20456661D01*
X49151000Y-21293339D01*
X49146535Y-21338674D01*
X49135101Y-21376367D01*
X49116534Y-21411103D01*
X49091548Y-21441548D01*
X49061103Y-21466534D01*
X49026367Y-21485101D01*
X48988674Y-21496535D01*
X48943339Y-21501000D01*
X47856661Y-21501000D01*
X47811326Y-21496535D01*
X47773633Y-21485101D01*
X47738897Y-21466534D01*
X47708452Y-21441548D01*
X47683466Y-21411103D01*
X47664899Y-21376367D01*
X47653465Y-21338674D01*
X47649000Y-21293339D01*
X47649000Y-20456661D01*
X47653465Y-20411326D01*
X47664899Y-20373633D01*
X47683466Y-20338897D01*
X47708452Y-20308452D01*
X47738897Y-20283466D01*
X47773633Y-20264899D01*
X47811326Y-20253465D01*
X47856661Y-20249000D01*
X48943339Y-20249000D01*
X48988674Y-20253465D01*
G37*
G36*
X42188674Y-20253465D02*
G01*
X42226367Y-20264899D01*
X42261103Y-20283466D01*
X42291548Y-20308452D01*
X42316534Y-20338897D01*
X42335101Y-20373633D01*
X42346535Y-20411326D01*
X42351000Y-20456661D01*
X42351000Y-21293339D01*
X42346535Y-21338674D01*
X42335101Y-21376367D01*
X42316534Y-21411103D01*
X42291548Y-21441548D01*
X42261103Y-21466534D01*
X42226367Y-21485101D01*
X42188674Y-21496535D01*
X42143339Y-21501000D01*
X41056661Y-21501000D01*
X41011326Y-21496535D01*
X40973633Y-21485101D01*
X40938897Y-21466534D01*
X40908452Y-21441548D01*
X40883466Y-21411103D01*
X40864899Y-21376367D01*
X40853465Y-21338674D01*
X40849000Y-21293339D01*
X40849000Y-20456661D01*
X40853465Y-20411326D01*
X40864899Y-20373633D01*
X40883466Y-20338897D01*
X40908452Y-20308452D01*
X40938897Y-20283466D01*
X40973633Y-20264899D01*
X41011326Y-20253465D01*
X41056661Y-20249000D01*
X42143339Y-20249000D01*
X42188674Y-20253465D01*
G37*
G36*
X45388674Y-20178465D02*
G01*
X45426367Y-20189899D01*
X45461103Y-20208466D01*
X45491548Y-20233452D01*
X45516534Y-20263897D01*
X45535101Y-20298633D01*
X45546535Y-20336326D01*
X45551000Y-20381661D01*
X45551000Y-21218339D01*
X45546535Y-21263674D01*
X45535101Y-21301367D01*
X45516534Y-21336103D01*
X45491548Y-21366548D01*
X45461103Y-21391534D01*
X45426367Y-21410101D01*
X45388674Y-21421535D01*
X45343339Y-21426000D01*
X44256661Y-21426000D01*
X44211326Y-21421535D01*
X44173633Y-21410101D01*
X44138897Y-21391534D01*
X44108452Y-21366548D01*
X44083466Y-21336103D01*
X44064899Y-21301367D01*
X44053465Y-21263674D01*
X44049000Y-21218339D01*
X44049000Y-20381661D01*
X44053465Y-20336326D01*
X44064899Y-20298633D01*
X44083466Y-20263897D01*
X44108452Y-20233452D01*
X44138897Y-20208466D01*
X44173633Y-20189899D01*
X44211326Y-20178465D01*
X44256661Y-20174000D01*
X45343339Y-20174000D01*
X45388674Y-20178465D01*
G37*
G36*
X31388674Y-18703465D02*
G01*
X31426367Y-18714899D01*
X31461103Y-18733466D01*
X31491548Y-18758452D01*
X31516534Y-18788897D01*
X31535101Y-18823633D01*
X31546535Y-18861326D01*
X31551000Y-18906661D01*
X31551000Y-19743339D01*
X31546535Y-19788674D01*
X31535101Y-19826367D01*
X31516534Y-19861103D01*
X31491548Y-19891548D01*
X31461103Y-19916534D01*
X31426367Y-19935101D01*
X31388674Y-19946535D01*
X31343339Y-19951000D01*
X30256661Y-19951000D01*
X30211326Y-19946535D01*
X30173633Y-19935101D01*
X30138897Y-19916534D01*
X30108452Y-19891548D01*
X30083466Y-19861103D01*
X30064899Y-19826367D01*
X30053465Y-19788674D01*
X30049000Y-19743339D01*
X30049000Y-18906661D01*
X30053465Y-18861326D01*
X30064899Y-18823633D01*
X30083466Y-18788897D01*
X30108452Y-18758452D01*
X30138897Y-18733466D01*
X30173633Y-18714899D01*
X30211326Y-18703465D01*
X30256661Y-18699000D01*
X31343339Y-18699000D01*
X31388674Y-18703465D01*
G37*
G36*
X29288674Y-18703465D02*
G01*
X29326367Y-18714899D01*
X29361103Y-18733466D01*
X29391548Y-18758452D01*
X29416534Y-18788897D01*
X29435101Y-18823633D01*
X29446535Y-18861326D01*
X29451000Y-18906661D01*
X29451000Y-19743339D01*
X29446535Y-19788674D01*
X29435101Y-19826367D01*
X29416534Y-19861103D01*
X29391548Y-19891548D01*
X29361103Y-19916534D01*
X29326367Y-19935101D01*
X29288674Y-19946535D01*
X29243339Y-19951000D01*
X28156661Y-19951000D01*
X28111326Y-19946535D01*
X28073633Y-19935101D01*
X28038897Y-19916534D01*
X28008452Y-19891548D01*
X27983466Y-19861103D01*
X27964899Y-19826367D01*
X27953465Y-19788674D01*
X27949000Y-19743339D01*
X27949000Y-18906661D01*
X27953465Y-18861326D01*
X27964899Y-18823633D01*
X27983466Y-18788897D01*
X28008452Y-18758452D01*
X28038897Y-18733466D01*
X28073633Y-18714899D01*
X28111326Y-18703465D01*
X28156661Y-18699000D01*
X29243339Y-18699000D01*
X29288674Y-18703465D01*
G37*
G36*
X27238674Y-18703465D02*
G01*
X27276367Y-18714899D01*
X27311103Y-18733466D01*
X27341548Y-18758452D01*
X27366534Y-18788897D01*
X27385101Y-18823633D01*
X27396535Y-18861326D01*
X27401000Y-18906661D01*
X27401000Y-19743339D01*
X27396535Y-19788674D01*
X27385101Y-19826367D01*
X27366534Y-19861103D01*
X27341548Y-19891548D01*
X27311103Y-19916534D01*
X27276367Y-19935101D01*
X27238674Y-19946535D01*
X27193339Y-19951000D01*
X26106661Y-19951000D01*
X26061326Y-19946535D01*
X26023633Y-19935101D01*
X25988897Y-19916534D01*
X25958452Y-19891548D01*
X25933466Y-19861103D01*
X25914899Y-19826367D01*
X25903465Y-19788674D01*
X25899000Y-19743339D01*
X25899000Y-18906661D01*
X25903465Y-18861326D01*
X25914899Y-18823633D01*
X25933466Y-18788897D01*
X25958452Y-18758452D01*
X25988897Y-18733466D01*
X26023633Y-18714899D01*
X26061326Y-18703465D01*
X26106661Y-18699000D01*
X27193339Y-18699000D01*
X27238674Y-18703465D01*
G37*
G36*
X23651000Y-19501000D02*
G01*
X20549000Y-19501000D01*
X20549000Y-16399000D01*
X23651000Y-16399000D01*
X23651000Y-19501000D01*
G37*
G36*
X54488674Y-17528465D02*
G01*
X54526367Y-17539899D01*
X54561103Y-17558466D01*
X54591548Y-17583452D01*
X54616534Y-17613897D01*
X54635101Y-17648633D01*
X54646535Y-17686326D01*
X54651000Y-17731661D01*
X54651000Y-18568339D01*
X54646535Y-18613674D01*
X54635101Y-18651367D01*
X54616534Y-18686103D01*
X54591548Y-18716548D01*
X54561103Y-18741534D01*
X54526367Y-18760101D01*
X54488674Y-18771535D01*
X54443339Y-18776000D01*
X53356661Y-18776000D01*
X53311326Y-18771535D01*
X53273633Y-18760101D01*
X53238897Y-18741534D01*
X53208452Y-18716548D01*
X53183466Y-18686103D01*
X53164899Y-18651367D01*
X53153465Y-18613674D01*
X53149000Y-18568339D01*
X53149000Y-17731661D01*
X53153465Y-17686326D01*
X53164899Y-17648633D01*
X53183466Y-17613897D01*
X53208452Y-17583452D01*
X53238897Y-17558466D01*
X53273633Y-17539899D01*
X53311326Y-17528465D01*
X53356661Y-17524000D01*
X54443339Y-17524000D01*
X54488674Y-17528465D01*
G37*
G36*
X37863674Y-16528465D02*
G01*
X37901367Y-16539899D01*
X37936103Y-16558466D01*
X37966548Y-16583452D01*
X37991534Y-16613897D01*
X38010101Y-16648633D01*
X38021535Y-16686326D01*
X38026000Y-16731661D01*
X38026000Y-17568339D01*
X38021535Y-17613674D01*
X38010101Y-17651367D01*
X37991534Y-17686103D01*
X37966548Y-17716548D01*
X37936103Y-17741534D01*
X37901367Y-17760101D01*
X37863674Y-17771535D01*
X37818339Y-17776000D01*
X36731661Y-17776000D01*
X36686326Y-17771535D01*
X36648633Y-17760101D01*
X36613897Y-17741534D01*
X36583452Y-17716548D01*
X36558466Y-17686103D01*
X36539899Y-17651367D01*
X36528465Y-17613674D01*
X36524000Y-17568339D01*
X36524000Y-16731661D01*
X36528465Y-16686326D01*
X36539899Y-16648633D01*
X36558466Y-16613897D01*
X36583452Y-16583452D01*
X36613897Y-16558466D01*
X36648633Y-16539899D01*
X36686326Y-16528465D01*
X36731661Y-16524000D01*
X37818339Y-16524000D01*
X37863674Y-16528465D01*
G37*
G36*
X44688674Y-16528465D02*
G01*
X44726367Y-16539899D01*
X44761103Y-16558466D01*
X44791548Y-16583452D01*
X44816534Y-16613897D01*
X44835101Y-16648633D01*
X44846535Y-16686326D01*
X44851000Y-16731661D01*
X44851000Y-17568339D01*
X44846535Y-17613674D01*
X44835101Y-17651367D01*
X44816534Y-17686103D01*
X44791548Y-17716548D01*
X44761103Y-17741534D01*
X44726367Y-17760101D01*
X44688674Y-17771535D01*
X44643339Y-17776000D01*
X43556661Y-17776000D01*
X43511326Y-17771535D01*
X43473633Y-17760101D01*
X43438897Y-17741534D01*
X43408452Y-17716548D01*
X43383466Y-17686103D01*
X43364899Y-17651367D01*
X43353465Y-17613674D01*
X43349000Y-17568339D01*
X43349000Y-16731661D01*
X43353465Y-16686326D01*
X43364899Y-16648633D01*
X43383466Y-16613897D01*
X43408452Y-16583452D01*
X43438897Y-16558466D01*
X43473633Y-16539899D01*
X43511326Y-16528465D01*
X43556661Y-16524000D01*
X44643339Y-16524000D01*
X44688674Y-16528465D01*
G37*
G36*
X51388674Y-16528465D02*
G01*
X51426367Y-16539899D01*
X51461103Y-16558466D01*
X51491548Y-16583452D01*
X51516534Y-16613897D01*
X51535101Y-16648633D01*
X51546535Y-16686326D01*
X51551000Y-16731661D01*
X51551000Y-17568339D01*
X51546535Y-17613674D01*
X51535101Y-17651367D01*
X51516534Y-17686103D01*
X51491548Y-17716548D01*
X51461103Y-17741534D01*
X51426367Y-17760101D01*
X51388674Y-17771535D01*
X51343339Y-17776000D01*
X50256661Y-17776000D01*
X50211326Y-17771535D01*
X50173633Y-17760101D01*
X50138897Y-17741534D01*
X50108452Y-17716548D01*
X50083466Y-17686103D01*
X50064899Y-17651367D01*
X50053465Y-17613674D01*
X50049000Y-17568339D01*
X50049000Y-16731661D01*
X50053465Y-16686326D01*
X50064899Y-16648633D01*
X50083466Y-16613897D01*
X50108452Y-16583452D01*
X50138897Y-16558466D01*
X50173633Y-16539899D01*
X50211326Y-16528465D01*
X50256661Y-16524000D01*
X51343339Y-16524000D01*
X51388674Y-16528465D01*
G37*
G36*
X40063674Y-16528465D02*
G01*
X40101367Y-16539899D01*
X40136103Y-16558466D01*
X40166548Y-16583452D01*
X40191534Y-16613897D01*
X40210101Y-16648633D01*
X40221535Y-16686326D01*
X40226000Y-16731661D01*
X40226000Y-17568339D01*
X40221535Y-17613674D01*
X40210101Y-17651367D01*
X40191534Y-17686103D01*
X40166548Y-17716548D01*
X40136103Y-17741534D01*
X40101367Y-17760101D01*
X40063674Y-17771535D01*
X40018339Y-17776000D01*
X38931661Y-17776000D01*
X38886326Y-17771535D01*
X38848633Y-17760101D01*
X38813897Y-17741534D01*
X38783452Y-17716548D01*
X38758466Y-17686103D01*
X38739899Y-17651367D01*
X38728465Y-17613674D01*
X38724000Y-17568339D01*
X38724000Y-16731661D01*
X38728465Y-16686326D01*
X38739899Y-16648633D01*
X38758466Y-16613897D01*
X38783452Y-16583452D01*
X38813897Y-16558466D01*
X38848633Y-16539899D01*
X38886326Y-16528465D01*
X38931661Y-16524000D01*
X40018339Y-16524000D01*
X40063674Y-16528465D01*
G37*
G36*
X35488674Y-16503465D02*
G01*
X35526367Y-16514899D01*
X35561103Y-16533466D01*
X35591548Y-16558452D01*
X35616534Y-16588897D01*
X35635101Y-16623633D01*
X35646535Y-16661326D01*
X35651000Y-16706661D01*
X35651000Y-17543339D01*
X35646535Y-17588674D01*
X35635101Y-17626367D01*
X35616534Y-17661103D01*
X35591548Y-17691548D01*
X35561103Y-17716534D01*
X35526367Y-17735101D01*
X35488674Y-17746535D01*
X35443339Y-17751000D01*
X34356661Y-17751000D01*
X34311326Y-17746535D01*
X34273633Y-17735101D01*
X34238897Y-17716534D01*
X34208452Y-17691548D01*
X34183466Y-17661103D01*
X34164899Y-17626367D01*
X34153465Y-17588674D01*
X34149000Y-17543339D01*
X34149000Y-16706661D01*
X34153465Y-16661326D01*
X34164899Y-16623633D01*
X34183466Y-16588897D01*
X34208452Y-16558452D01*
X34238897Y-16533466D01*
X34273633Y-16514899D01*
X34311326Y-16503465D01*
X34356661Y-16499000D01*
X35443339Y-16499000D01*
X35488674Y-16503465D01*
G37*
G36*
X47888674Y-16453465D02*
G01*
X47926367Y-16464899D01*
X47961103Y-16483466D01*
X47991548Y-16508452D01*
X48016534Y-16538897D01*
X48035101Y-16573633D01*
X48046535Y-16611326D01*
X48051000Y-16656661D01*
X48051000Y-17493339D01*
X48046535Y-17538674D01*
X48035101Y-17576367D01*
X48016534Y-17611103D01*
X47991548Y-17641548D01*
X47961103Y-17666534D01*
X47926367Y-17685101D01*
X47888674Y-17696535D01*
X47843339Y-17701000D01*
X46756661Y-17701000D01*
X46711326Y-17696535D01*
X46673633Y-17685101D01*
X46638897Y-17666534D01*
X46608452Y-17641548D01*
X46583466Y-17611103D01*
X46564899Y-17576367D01*
X46553465Y-17538674D01*
X46549000Y-17493339D01*
X46549000Y-16656661D01*
X46553465Y-16611326D01*
X46564899Y-16573633D01*
X46583466Y-16538897D01*
X46608452Y-16508452D01*
X46638897Y-16483466D01*
X46673633Y-16464899D01*
X46711326Y-16453465D01*
X46756661Y-16449000D01*
X47843339Y-16449000D01*
X47888674Y-16453465D01*
G37*
G36*
X54488674Y-15478465D02*
G01*
X54526367Y-15489899D01*
X54561103Y-15508466D01*
X54591548Y-15533452D01*
X54616534Y-15563897D01*
X54635101Y-15598633D01*
X54646535Y-15636326D01*
X54651000Y-15681661D01*
X54651000Y-16518339D01*
X54646535Y-16563674D01*
X54635101Y-16601367D01*
X54616534Y-16636103D01*
X54591548Y-16666548D01*
X54561103Y-16691534D01*
X54526367Y-16710101D01*
X54488674Y-16721535D01*
X54443339Y-16726000D01*
X53356661Y-16726000D01*
X53311326Y-16721535D01*
X53273633Y-16710101D01*
X53238897Y-16691534D01*
X53208452Y-16666548D01*
X53183466Y-16636103D01*
X53164899Y-16601367D01*
X53153465Y-16563674D01*
X53149000Y-16518339D01*
X53149000Y-15681661D01*
X53153465Y-15636326D01*
X53164899Y-15598633D01*
X53183466Y-15563897D01*
X53208452Y-15533452D01*
X53238897Y-15508466D01*
X53273633Y-15489899D01*
X53311326Y-15478465D01*
X53356661Y-15474000D01*
X54443339Y-15474000D01*
X54488674Y-15478465D01*
G37*
G36*
X37863674Y-14478465D02*
G01*
X37901367Y-14489899D01*
X37936103Y-14508466D01*
X37966548Y-14533452D01*
X37991534Y-14563897D01*
X38010101Y-14598633D01*
X38021535Y-14636326D01*
X38026000Y-14681661D01*
X38026000Y-15518339D01*
X38021535Y-15563674D01*
X38010101Y-15601367D01*
X37991534Y-15636103D01*
X37966548Y-15666548D01*
X37936103Y-15691534D01*
X37901367Y-15710101D01*
X37863674Y-15721535D01*
X37818339Y-15726000D01*
X36731661Y-15726000D01*
X36686326Y-15721535D01*
X36648633Y-15710101D01*
X36613897Y-15691534D01*
X36583452Y-15666548D01*
X36558466Y-15636103D01*
X36539899Y-15601367D01*
X36528465Y-15563674D01*
X36524000Y-15518339D01*
X36524000Y-14681661D01*
X36528465Y-14636326D01*
X36539899Y-14598633D01*
X36558466Y-14563897D01*
X36583452Y-14533452D01*
X36613897Y-14508466D01*
X36648633Y-14489899D01*
X36686326Y-14478465D01*
X36731661Y-14474000D01*
X37818339Y-14474000D01*
X37863674Y-14478465D01*
G37*
G36*
X51388674Y-14478465D02*
G01*
X51426367Y-14489899D01*
X51461103Y-14508466D01*
X51491548Y-14533452D01*
X51516534Y-14563897D01*
X51535101Y-14598633D01*
X51546535Y-14636326D01*
X51551000Y-14681661D01*
X51551000Y-15518339D01*
X51546535Y-15563674D01*
X51535101Y-15601367D01*
X51516534Y-15636103D01*
X51491548Y-15666548D01*
X51461103Y-15691534D01*
X51426367Y-15710101D01*
X51388674Y-15721535D01*
X51343339Y-15726000D01*
X50256661Y-15726000D01*
X50211326Y-15721535D01*
X50173633Y-15710101D01*
X50138897Y-15691534D01*
X50108452Y-15666548D01*
X50083466Y-15636103D01*
X50064899Y-15601367D01*
X50053465Y-15563674D01*
X50049000Y-15518339D01*
X50049000Y-14681661D01*
X50053465Y-14636326D01*
X50064899Y-14598633D01*
X50083466Y-14563897D01*
X50108452Y-14533452D01*
X50138897Y-14508466D01*
X50173633Y-14489899D01*
X50211326Y-14478465D01*
X50256661Y-14474000D01*
X51343339Y-14474000D01*
X51388674Y-14478465D01*
G37*
G36*
X44688674Y-14478465D02*
G01*
X44726367Y-14489899D01*
X44761103Y-14508466D01*
X44791548Y-14533452D01*
X44816534Y-14563897D01*
X44835101Y-14598633D01*
X44846535Y-14636326D01*
X44851000Y-14681661D01*
X44851000Y-15518339D01*
X44846535Y-15563674D01*
X44835101Y-15601367D01*
X44816534Y-15636103D01*
X44791548Y-15666548D01*
X44761103Y-15691534D01*
X44726367Y-15710101D01*
X44688674Y-15721535D01*
X44643339Y-15726000D01*
X43556661Y-15726000D01*
X43511326Y-15721535D01*
X43473633Y-15710101D01*
X43438897Y-15691534D01*
X43408452Y-15666548D01*
X43383466Y-15636103D01*
X43364899Y-15601367D01*
X43353465Y-15563674D01*
X43349000Y-15518339D01*
X43349000Y-14681661D01*
X43353465Y-14636326D01*
X43364899Y-14598633D01*
X43383466Y-14563897D01*
X43408452Y-14533452D01*
X43438897Y-14508466D01*
X43473633Y-14489899D01*
X43511326Y-14478465D01*
X43556661Y-14474000D01*
X44643339Y-14474000D01*
X44688674Y-14478465D01*
G37*
G36*
X40063674Y-14478465D02*
G01*
X40101367Y-14489899D01*
X40136103Y-14508466D01*
X40166548Y-14533452D01*
X40191534Y-14563897D01*
X40210101Y-14598633D01*
X40221535Y-14636326D01*
X40226000Y-14681661D01*
X40226000Y-15518339D01*
X40221535Y-15563674D01*
X40210101Y-15601367D01*
X40191534Y-15636103D01*
X40166548Y-15666548D01*
X40136103Y-15691534D01*
X40101367Y-15710101D01*
X40063674Y-15721535D01*
X40018339Y-15726000D01*
X38931661Y-15726000D01*
X38886326Y-15721535D01*
X38848633Y-15710101D01*
X38813897Y-15691534D01*
X38783452Y-15666548D01*
X38758466Y-15636103D01*
X38739899Y-15601367D01*
X38728465Y-15563674D01*
X38724000Y-15518339D01*
X38724000Y-14681661D01*
X38728465Y-14636326D01*
X38739899Y-14598633D01*
X38758466Y-14563897D01*
X38783452Y-14533452D01*
X38813897Y-14508466D01*
X38848633Y-14489899D01*
X38886326Y-14478465D01*
X38931661Y-14474000D01*
X40018339Y-14474000D01*
X40063674Y-14478465D01*
G37*
G36*
X35488674Y-14453465D02*
G01*
X35526367Y-14464899D01*
X35561103Y-14483466D01*
X35591548Y-14508452D01*
X35616534Y-14538897D01*
X35635101Y-14573633D01*
X35646535Y-14611326D01*
X35651000Y-14656661D01*
X35651000Y-15493339D01*
X35646535Y-15538674D01*
X35635101Y-15576367D01*
X35616534Y-15611103D01*
X35591548Y-15641548D01*
X35561103Y-15666534D01*
X35526367Y-15685101D01*
X35488674Y-15696535D01*
X35443339Y-15701000D01*
X34356661Y-15701000D01*
X34311326Y-15696535D01*
X34273633Y-15685101D01*
X34238897Y-15666534D01*
X34208452Y-15641548D01*
X34183466Y-15611103D01*
X34164899Y-15576367D01*
X34153465Y-15538674D01*
X34149000Y-15493339D01*
X34149000Y-14656661D01*
X34153465Y-14611326D01*
X34164899Y-14573633D01*
X34183466Y-14538897D01*
X34208452Y-14508452D01*
X34238897Y-14483466D01*
X34273633Y-14464899D01*
X34311326Y-14453465D01*
X34356661Y-14449000D01*
X35443339Y-14449000D01*
X35488674Y-14453465D01*
G37*
G36*
X47888674Y-14403465D02*
G01*
X47926367Y-14414899D01*
X47961103Y-14433466D01*
X47991548Y-14458452D01*
X48016534Y-14488897D01*
X48035101Y-14523633D01*
X48046535Y-14561326D01*
X48051000Y-14606661D01*
X48051000Y-15443339D01*
X48046535Y-15488674D01*
X48035101Y-15526367D01*
X48016534Y-15561103D01*
X47991548Y-15591548D01*
X47961103Y-15616534D01*
X47926367Y-15635101D01*
X47888674Y-15646535D01*
X47843339Y-15651000D01*
X46756661Y-15651000D01*
X46711326Y-15646535D01*
X46673633Y-15635101D01*
X46638897Y-15616534D01*
X46608452Y-15591548D01*
X46583466Y-15561103D01*
X46564899Y-15526367D01*
X46553465Y-15488674D01*
X46549000Y-15443339D01*
X46549000Y-14606661D01*
X46553465Y-14561326D01*
X46564899Y-14523633D01*
X46583466Y-14488897D01*
X46608452Y-14458452D01*
X46638897Y-14433466D01*
X46673633Y-14414899D01*
X46711326Y-14403465D01*
X46756661Y-14399000D01*
X47843339Y-14399000D01*
X47888674Y-14403465D01*
G37*
G36*
X56160721Y-14370174D02*
G01*
X56260995Y-14411709D01*
X56305812Y-14441655D01*
X56351242Y-14472010D01*
X56427990Y-14548758D01*
X56438105Y-14563897D01*
X56488291Y-14639005D01*
X56529826Y-14739279D01*
X56551000Y-14845730D01*
X56551000Y-14954270D01*
X56529826Y-15060721D01*
X56488291Y-15160995D01*
X56488290Y-15160996D01*
X56427990Y-15251242D01*
X56351242Y-15327990D01*
X56305812Y-15358345D01*
X56260995Y-15388291D01*
X56160721Y-15429826D01*
X56054270Y-15451000D01*
X55945730Y-15451000D01*
X55839279Y-15429826D01*
X55739005Y-15388291D01*
X55694188Y-15358345D01*
X55648758Y-15327990D01*
X55572010Y-15251242D01*
X55511710Y-15160996D01*
X55511709Y-15160995D01*
X55470174Y-15060721D01*
X55449000Y-14954270D01*
X55449000Y-14845730D01*
X55470174Y-14739279D01*
X55511709Y-14639005D01*
X55561895Y-14563897D01*
X55572010Y-14548758D01*
X55648758Y-14472010D01*
X55694188Y-14441655D01*
X55739005Y-14411709D01*
X55839279Y-14370174D01*
X55945730Y-14349000D01*
X56054270Y-14349000D01*
X56160721Y-14370174D01*
G37*
G36*
X58622322Y-13965048D02*
G01*
X58682889Y-13977095D01*
X58739942Y-14000727D01*
X58796997Y-14024360D01*
X58899687Y-14092975D01*
X58987025Y-14180313D01*
X59055640Y-14283003D01*
X59055640Y-14283004D01*
X59091748Y-14370175D01*
X59102905Y-14397112D01*
X59127000Y-14518245D01*
X59127000Y-14641755D01*
X59102905Y-14762888D01*
X59055640Y-14876997D01*
X58987025Y-14979687D01*
X58899687Y-15067025D01*
X58796997Y-15135640D01*
X58739943Y-15159272D01*
X58682889Y-15182905D01*
X58622322Y-15194952D01*
X58561755Y-15207000D01*
X58438245Y-15207000D01*
X58377678Y-15194952D01*
X58317111Y-15182905D01*
X58260057Y-15159272D01*
X58203003Y-15135640D01*
X58100313Y-15067025D01*
X58012975Y-14979687D01*
X57944360Y-14876997D01*
X57897095Y-14762888D01*
X57873000Y-14641755D01*
X57873000Y-14518245D01*
X57897095Y-14397112D01*
X57908253Y-14370175D01*
X57944360Y-14283004D01*
X57944360Y-14283003D01*
X58012975Y-14180313D01*
X58100313Y-14092975D01*
X58203003Y-14024360D01*
X58260057Y-14000728D01*
X58317111Y-13977095D01*
X58377678Y-13965048D01*
X58438245Y-13953000D01*
X58561755Y-13953000D01*
X58622322Y-13965048D01*
G37*
M02*
